<svg xmlns="http://www.w3.org/2000/svg" height="430" width="509.723"><defs><clipPath id="a"><path d="M188.8 350.9h267.3v292.6H188.8z"/></clipPath></defs><path d="M255.395 407h-175.2V23h350.4v384z" fill="#ff60dd" fill-rule="evenodd"/><g clip-path="url(#a)" opacity=".5" transform="matrix(1.33333 0 0 -1.33333 -174.605 877.933)"><path d="M322.5 353.2H191.1v288h262.8v-288z" fill="none" stroke="#fff" stroke-width="4.5" stroke-linejoin="round" stroke-miterlimit="10"/></g><path d="M131.928 383.533h-110.4V48.6h220.8v334.933z" fill="#ddd" fill-rule="evenodd"/><path d="M131.928 383.533h-110.4V48.6h220.8v334.933z" fill="none" stroke="#eee" stroke-width="3.0559923599999994" stroke-linejoin="round" stroke-miterlimit="10"/><g aria-label="Schema" style="-inkscape-font-specification:Montserrat-Light" font-weight="300" font-size="36" font-family="Montserrat"><path d="M46.065 66.316q2.883 0 5.719.844 2.836.844 4.945 2.274l-1.64 3.609q-2.157-1.43-4.618-2.133-2.437-.703-4.64-.703-3.258 0-5.203 1.172-1.946 1.172-1.946 3.305 0 1.828 1.078 3.023 1.079 1.195 2.696 1.875 1.64.656 4.476 1.524 3.446 1.101 5.532 2.062 2.109.961 3.586 2.836 1.5 1.875 1.5 4.945 0 2.79-1.524 4.875-1.5 2.086-4.266 3.235-2.765 1.148-6.375 1.148-3.609 0-7.007-1.383-3.399-1.406-5.836-3.75l1.71-3.445q2.298 2.25 5.298 3.492 3.023 1.242 5.882 1.242 3.657 0 5.766-1.406 2.11-1.43 2.11-3.82 0-1.875-1.102-3.094-1.102-1.219-2.742-1.898-1.618-.68-4.454-1.524-3.398-1.008-5.53-1.945-2.11-.938-3.587-2.79-1.453-1.85-1.453-4.874 0-2.602 1.43-4.57 1.453-1.97 4.101-3.047 2.649-1.079 6.094-1.079zM75.017 74.684q2.93 0 5.367.984 2.461.984 4.172 2.742l-2.062 2.649q-3.07-2.93-7.524-2.93-2.601 0-4.64 1.172-2.04 1.172-3.188 3.305-1.148 2.109-1.148 4.828 0 2.742 1.148 4.851 1.148 2.11 3.188 3.328 2.039 1.196 4.64 1.196 2.485 0 4.477-.844 1.992-.844 3.351-2.438l2.157 2.32q-1.735 2.063-4.336 3.212-2.579 1.148-5.79 1.148-3.656 0-6.492-1.594-2.836-1.617-4.453-4.523-1.594-2.906-1.594-6.656 0-3.75 1.618-6.633 1.64-2.906 4.547-4.5 2.906-1.617 6.562-1.617zM105.53 74.637q4.523 0 7.055 2.625 2.554 2.601 2.554 7.195v15.61h-3.75V85.464q0-3.352-1.898-5.227-1.899-1.875-5.25-1.875-3.985.047-6.258 2.602-2.273 2.531-2.273 6.68v12.421h-3.75V64.441h3.75v15.985q2.484-5.719 9.82-5.79zM133.387 74.684q5.953 0 8.977 3.82 3.023 3.797 2.719 10.383h-20.625q.468 3.703 2.953 5.883 2.508 2.18 6.21 2.18 2.344 0 4.337-.821 1.992-.82 3.492-2.344l2.062 2.203q-1.828 2.016-4.453 3.118-2.601 1.101-5.719 1.101-3.703 0-6.562-1.594-2.86-1.617-4.453-4.523-1.57-2.906-1.57-6.656 0-3.75 1.593-6.633 1.617-2.906 4.5-4.5 2.883-1.617 6.54-1.617zm8.344 11.132q-.187-3.656-2.484-5.789-2.274-2.132-5.953-2.132-3.61 0-6.024 2.156-2.39 2.156-2.812 5.765zM183.828 74.637q4.406 0 6.89 2.625 2.508 2.601 2.508 7.195v15.61H189.5V85.464q0-3.352-1.875-5.25-1.875-1.899-5.133-1.899-3.89.094-6.094 2.649-2.18 2.531-2.18 6.68v12.421h-3.773V85.465q0-3.352-1.852-5.25-1.851-1.899-5.156-1.899-3.844.094-6.094 2.649-2.226 2.531-2.226 6.68v12.421h-3.68V74.777h3.68v5.696q1.242-2.883 3.68-4.336 2.46-1.453 5.976-1.5 3.563 0 5.906 1.734 2.344 1.711 3.164 4.875 1.149-3.305 3.704-4.922 2.578-1.64 6.28-1.687zM217.18 96.176q-3.023 4.078-9.257 4.078-2.555 0-4.523-1.008-1.946-1.008-3.024-2.765-1.055-1.782-1.055-3.961 0-3.305 2.485-5.25 2.508-1.946 6.984-1.993h8.297v-1.476q0-2.836-1.734-4.36-1.711-1.546-5.04-1.546-3.843 0-8.015 2.882l-1.57-2.742q2.695-1.781 4.968-2.578 2.274-.82 5.344-.82 4.664 0 7.172 2.297 2.531 2.297 2.578 6.422l.047 16.71h-3.656zm-8.53.82q3.21 0 5.484-1.5 2.273-1.523 3-4.172v-3.023h-7.875q-6.422 0-6.422 4.078 0 2.11 1.57 3.375 1.594 1.242 4.243 1.242z"/></g><g style="-inkscape-font-specification:Montserrat-Light"><path d="M33.501 117.17q0 .593-.182.892-.176.3-.592.43.41.117.592.423.182.3.182.885v2.598q0 .52.306.755t1.029.235v.891h-.378q-1.015 0-1.458-.37-.443-.365-.443-1.218v-2.943q0-.41-.156-.605-.15-.196-.488-.196h-.345v-.918h.345q.332 0 .488-.188.156-.19.156-.6v-2.962q0-.852.443-1.217.45-.371 1.458-.371h.378v.898q-.71 0-1.022.241-.313.235-.313.755z" aria-label="{" font-weight="300" font-size="10" font-family="Montserrat" fill="#666"/></g><g aria-label="&quot;$id&quot;: &quot;http://dash.org/schema/" style="-inkscape-font-specification:Montserrat-Light" font-weight="300" font-size="10" font-family="Montserrat" fill="#666"><path d="M39.262 132.158v-3.027h.827v3.027zm1.745 0v-3.027h.827v3.027zM47.1 133.226q.905.28 1.484.553.586.273.984.794.403.521.403 1.348 0 1.068-.781 1.764-.781.69-2.09.794v1.771h-.814v-1.757q-.918-.053-1.777-.43-.86-.384-1.484-.983l.475-.957q.573.56 1.308.898.736.339 1.478.404v-3.307q-.853-.254-1.419-.528-.566-.273-.944-.775-.371-.507-.371-1.308 0-1.003.742-1.64.742-.639 1.992-.75v-1.627h.814v1.614q.723.04 1.413.267.696.228 1.23.586l-.455 1.003q-.508-.332-1.075-.527-.566-.196-1.113-.248zm-2.37-1.81q0 .599.397.944.404.345 1.16.612v-2.774q-.736.065-1.147.39-.41.32-.41.828zm4.063 4.583q0-.638-.436-.996-.43-.365-1.257-.632v3.04q.8-.09 1.244-.461.449-.378.449-.951zM51.984 138.466v-7.024h1.023v7.024zm.502-9.759q.293 0 .488.209.195.202.195.507 0 .306-.195.515-.195.208-.488.208t-.489-.202q-.188-.208-.188-.52 0-.306.188-.508.196-.209.489-.209zM61.903 138.466H60.86v-1.503q-.397.748-1.1 1.152-.697.404-1.634.404-.99 0-1.764-.45-.769-.455-1.198-1.27-.424-.813-.424-1.855 0-1.041.424-1.842.43-.807 1.198-1.257.768-.455 1.75-.455.932 0 1.648.403.716.404 1.1 1.166v-4.388h1.042zm-3.574-.878q.735 0 1.308-.332.573-.339.899-.938.325-.599.325-1.348 0-.761-.325-1.36-.326-.6-.899-.938-.573-.338-1.308-.338-.736 0-1.315.338-.58.339-.905.944-.326.6-.326 1.354 0 .75.326 1.348.325.599.905.938.579.332 1.315.332zM64.036 132.158v-3.027h.826v3.027zm1.744 0v-3.027h.827v3.027zM68.703 133.226q.267 0 .45.201.188.202.188.495t-.189.495q-.182.195-.45.195-.28 0-.468-.195-.189-.202-.189-.495t.19-.495q.188-.201.468-.201zm0 3.958q.267 0 .45.202.188.202.188.495 0 .292-.189.494-.182.196-.45.196-.28 0-.468-.196-.189-.202-.189-.494 0-.293.19-.495.188-.202.468-.202zM74.422 132.158v-3.027h.827v3.027zm1.745 0v-3.027h.827v3.027zM82.859 131.403q1.257 0 1.96.729.71.722.71 1.999v4.335h-1.042v-4.056q0-.93-.528-1.451-.527-.521-1.458-.521-1.107.013-1.738.722-.632.704-.632 1.856v3.45H79.09v-9.895h1.042v4.44q.69-1.589 2.728-1.608zM91.45 137.985q-.761.52-1.588.534-.814 0-1.302-.495-.488-.502-.488-1.504v-4.01h-1.01v-.84h1.01v-1.856H89.1v1.856l2.227-.02v.86H89.1v3.821q0 .625.235.905.234.273.703.273.547 0 1.12-.364zM96.517 137.985q-.761.52-1.588.534-.814 0-1.302-.495-.489-.502-.489-1.504v-4.01H92.13v-.84h1.01v-1.856h1.028v1.856l2.227-.02v.86h-2.227v3.821q0 .625.234.905.235.273.704.273.546 0 1.12-.364zM101.886 131.403q.99 0 1.752.455.768.45 1.191 1.263.43.814.43 1.85 0 1.028-.423 1.835-.417.808-1.179 1.257-.755.443-1.745.443-.93 0-1.634-.404-.696-.41-1.094-1.14v4.09h-1.041v-9.61h1.041v1.517q.385-.749 1.081-1.153.703-.403 1.621-.403zm-.182 6.159q.716 0 1.29-.333.572-.338.891-.937.326-.599.326-1.348 0-.748-.326-1.34-.319-.593-.892-.932-.573-.338-1.289-.338-.736 0-1.309.332-.572.332-.891.937-.32.6-.32 1.341 0 .762.32 1.354.319.593.891.931.573.333 1.309.333zM107.076 133.226q.267 0 .45.201.188.202.188.495t-.189.495q-.182.195-.449.195-.28 0-.469-.195-.188-.202-.188-.495t.188-.495q.19-.201.47-.201zm0 3.958q.267 0 .45.202.188.202.188.495 0 .292-.189.494-.182.196-.449.196-.28 0-.469-.196-.188-.202-.188-.494 0-.293.188-.495.19-.202.47-.202zM108.125 140.094l4.16-12.559h.925l-4.173 12.56zM112.258 140.094l4.16-12.559h.925l-4.173 12.56zM124.263 138.466h-1.042v-1.503q-.397.748-1.1 1.152-.697.404-1.634.404-.99 0-1.764-.45-.769-.455-1.198-1.27-.424-.813-.424-1.855 0-1.041.424-1.842.43-.807 1.198-1.257.768-.455 1.75-.455.932 0 1.648.403.716.404 1.1 1.166v-4.388h1.042zm-3.574-.878q.735 0 1.308-.332.573-.339.899-.938.325-.599.325-1.348 0-.761-.325-1.36-.326-.6-.899-.938-.573-.338-1.308-.338-.736 0-1.315.338-.58.339-.905.944-.326.6-.326 1.354 0 .75.326 1.348.325.599.905.938.579.332 1.315.332zM131.22 137.386q-.84 1.133-2.572 1.133-.71 0-1.256-.28-.54-.28-.84-.769-.293-.494-.293-1.1 0-.918.69-1.458.697-.54 1.94-.554h2.305v-.41q0-.788-.482-1.21-.475-.43-1.4-.43-1.067 0-2.226.8l-.436-.761q.748-.495 1.38-.716.631-.228 1.484-.228 1.296 0 1.992.638.703.638.716 1.784l.013 4.641h-1.015zm-2.37.228q.892 0 1.524-.417.631-.423.833-1.159v-.84h-2.188q-1.784 0-1.784 1.133 0 .586.437.938.442.345 1.178.345zM136.326 131.403q.632 0 1.218.169.586.163 1.022.469l-.397.827q-.41-.267-.918-.417-.508-.156-.99-.156-.625 0-1.009.234-.377.228-.377.697 0 .319.214.533.215.215.528.352.312.13.872.286.736.215 1.192.43.462.215.787.625.326.404.326 1.055 0 .99-.742 1.497-.736.502-1.83.502-.762 0-1.484-.26-.716-.261-1.211-.724l.404-.787q.442.41 1.074.65.631.242 1.256.242.664 0 1.081-.26.423-.261.423-.769t-.403-.749q-.404-.247-1.244-.488-.736-.228-1.172-.423-.43-.202-.749-.593-.312-.397-.312-1.028 0-.957.69-1.433.697-.481 1.751-.481zM144.419 131.403q1.257 0 1.96.729.71.722.71 1.999v4.335h-1.042v-4.056q0-.93-.528-1.451-.527-.521-1.458-.521-1.107.013-1.738.722-.632.704-.632 1.856v3.45h-1.042v-9.895h1.042v4.44q.69-1.589 2.728-1.608zM149.45 137.184q.266 0 .449.202.189.202.189.495 0 .292-.19.494-.182.196-.449.196-.28 0-.468-.196-.19-.202-.19-.494 0-.293.19-.495.189-.202.468-.202zM154.77 131.416q1.028 0 1.835.449.814.443 1.27 1.25.455.807.455 1.83 0 1.041-.455 1.848-.456.808-1.27 1.263-.807.45-1.836.45-1.028 0-1.842-.45-.814-.455-1.27-1.263-.449-.807-.449-1.849 0-1.028.45-1.83.455-.806 1.269-1.25.814-.448 1.842-.448zm0 .944q-.723 0-1.303.332t-.898.924q-.32.586-.32 1.341 0 .762.32 1.355.319.592.898.93.58.333 1.302.333.723 0 1.302-.332.58-.339.899-.931.319-.593.319-1.355 0-.761-.32-1.347-.318-.586-.904-.918-.58-.332-1.296-.332zM161.086 132.998q.352-.769.99-1.172.638-.41 1.53-.423v1.048q-1.094-.013-1.758.612-.664.618-.762 1.673v3.73h-1.035v-7.024h1.035zM171.104 137.73q0 1.016-.443 1.772-.442.761-1.243 1.165-.794.41-1.849.41-1.562-.013-2.878-1.009l.476-.8q.534.442 1.106.657.573.221 1.257.234 1.146 0 1.836-.657.697-.651.697-1.745v-1.061q-.372.71-1.042 1.087-.664.377-1.543.377-.931 0-1.66-.43-.73-.435-1.14-1.21-.403-.775-.403-1.758 0-.977.397-1.732.404-.761 1.12-1.191.722-.436 1.653-.436.892 0 1.556.377.67.378 1.062 1.088v-1.426h1.041zm-3.444-.448q.697 0 1.244-.32.547-.325.853-.891.306-.567.306-1.27 0-.723-.306-1.289t-.853-.885q-.547-.32-1.244-.32-.69 0-1.237.32-.547.319-.86.885-.312.566-.312 1.29 0 .709.313 1.275.312.56.86.886.546.319 1.236.319zM172.085 140.094l4.16-12.559h.925l-4.173 12.56zM179.5 131.403q.631 0 1.217.169.586.163 1.022.469l-.397.827q-.41-.267-.918-.417-.508-.156-.99-.156-.624 0-1.009.234-.377.228-.377.697 0 .319.215.533.215.215.527.352.313.13.872.286.736.215 1.192.43.462.215.788.625.325.404.325 1.055 0 .99-.742 1.497-.736.502-1.83.502-.761 0-1.484-.26-.716-.261-1.21-.724l.403-.787q.443.41 1.074.65.632.242 1.257.242.664 0 1.08-.26.424-.261.424-.769t-.404-.749q-.404-.247-1.244-.488-.735-.228-1.171-.423-.43-.202-.75-.593-.312-.397-.312-1.028 0-.957.69-1.433.697-.481 1.752-.481zM186.583 131.416q.814 0 1.491.273.684.274 1.159.762l-.573.736q-.853-.814-2.09-.814-.722 0-1.289.325-.566.326-.885.918-.32.586-.32 1.341 0 .762.32 1.348.319.586.885.924.567.333 1.29.333.69 0 1.243-.235.553-.234.93-.677l.6.645q-.482.573-1.205.892-.716.319-1.608.319-1.015 0-1.803-.443-.788-.45-1.237-1.257-.443-.807-.443-1.849 0-1.041.45-1.842.455-.807 1.262-1.25.808-.45 1.823-.45zM195.059 131.403q1.257 0 1.96.729.71.722.71 1.999v4.335h-1.042v-4.056q0-.93-.528-1.451-.527-.521-1.458-.521-1.107.013-1.738.722-.632.704-.632 1.856v3.45h-1.041v-9.895h1.041v4.44q.69-1.589 2.728-1.608zM202.824 131.416q1.654 0 2.493 1.06.84 1.056.756 2.885h-5.73q.13 1.029.82 1.634.697.606 1.726.606.651 0 1.204-.228.554-.228.97-.651l.573.612q-.507.56-1.237.866-.722.306-1.588.306-1.029 0-1.823-.443-.794-.45-1.237-1.257-.436-.807-.436-1.849 0-1.041.442-1.842.45-.807 1.25-1.25.801-.45 1.817-.45zm2.318 3.092q-.053-1.015-.69-1.608-.632-.592-1.654-.592-1.003 0-1.673.599-.664.599-.782 1.601zM216.875 131.403q1.224 0 1.914.729.697.722.697 1.999v4.335h-1.035v-4.056q0-.93-.521-1.458-.521-.527-1.426-.527-1.08.026-1.693.735-.605.704-.605 1.856v3.45h-1.048v-4.056q0-.93-.515-1.458-.514-.527-1.432-.527-1.068.026-1.693.735-.618.704-.618 1.856v3.45h-1.022v-7.024h1.022v1.582q.345-.801 1.022-1.205.684-.403 1.66-.416.99 0 1.64.481.652.476.88 1.355.319-.918 1.028-1.368.716-.455 1.745-.468zM226.1 137.386q-.84 1.133-2.572 1.133-.71 0-1.256-.28-.54-.28-.84-.769-.293-.494-.293-1.1 0-.918.69-1.458.697-.54 1.94-.554h2.305v-.41q0-.788-.482-1.21-.475-.43-1.4-.43-1.067 0-2.226.8l-.436-.761q.748-.495 1.38-.716.631-.228 1.484-.228 1.296 0 1.992.638.703.638.716 1.784l.013 4.641H226.1zm-2.37.228q.892 0 1.524-.417.631-.423.833-1.159v-.84h-2.188q-1.784 0-1.784 1.133 0 .586.437.938.442.345 1.178.345zM228.045 140.094l4.16-12.559h.925l-4.173 12.56z"/></g><g aria-label="dap&quot;," style="-inkscape-font-specification:Montserrat-Light" font-weight="300" font-size="10" font-family="Montserrat" fill="#666"><path d="M38.716 154.333h-1.041v-1.504q-.398.749-1.1 1.153-.697.403-1.635.403-.99 0-1.764-.449-.768-.456-1.198-1.27-.423-.813-.423-1.855t.423-1.842q.43-.808 1.198-1.257.768-.456 1.751-.456.931 0 1.647.404t1.1 1.165v-4.388h1.042zm-3.574-.879q.736 0 1.309-.332.573-.338.898-.937.326-.6.326-1.348 0-.762-.326-1.36-.325-.6-.898-.938-.573-.339-1.309-.339t-1.315.339q-.58.338-.905.944-.326.599-.326 1.354 0 .749.326 1.348.325.599.905.937.58.332 1.315.332zM45.673 153.252q-.84 1.133-2.571 1.133-.71 0-1.257-.28-.54-.28-.84-.768-.293-.495-.293-1.1 0-.918.69-1.459.697-.54 1.94-.553h2.305v-.41q0-.788-.482-1.211-.475-.43-1.4-.43-1.067 0-2.226.801l-.436-.762q.749-.494 1.38-.716.632-.228 1.484-.228 1.296 0 1.993.638.703.638.716 1.784l.013 4.642h-1.016zm-2.37.228q.892 0 1.524-.416.631-.424.833-1.16v-.84h-2.187q-1.784 0-1.784 1.134 0 .586.436.937.443.345 1.178.345zM52.726 147.27q.99 0 1.752.455.768.45 1.191 1.263.43.814.43 1.849 0 1.029-.423 1.836-.417.807-1.179 1.256-.755.443-1.745.443-.93 0-1.634-.403-.696-.41-1.094-1.14v4.089h-1.041v-9.61h1.041v1.517q.385-.748 1.081-1.152.703-.404 1.621-.404zm-.182 6.158q.716 0 1.29-.332.572-.338.891-.937.326-.6.326-1.348 0-.749-.326-1.341-.319-.593-.892-.931-.573-.339-1.289-.339-.736 0-1.309.332-.572.332-.891.938-.32.599-.32 1.341 0 .762.32 1.354.319.593.891.931.573.332 1.309.332zM57.382 148.025v-3.028h.827v3.028zm1.745 0v-3.028h.827v3.028zM62.05 153.077q.266 0 .449.188.189.19.189.495 0 .267-.202.573l-.625.957h-.586l.442-.97q-.292-.176-.292-.573 0-.293.175-.482.183-.188.45-.188z"/></g><g aria-label="&quot;title&quot;: &quot;HelloWorld&quot;," style="-inkscape-font-specification:Montserrat-Light" font-weight="300" font-size="10" font-family="Montserrat" fill="#666"><path d="M39.262 163.891v-3.027h.827v3.027zm1.745 0v-3.027h.827v3.027zM47.49 169.718q-.761.52-1.588.534-.814 0-1.302-.495-.488-.501-.488-1.504v-4.01h-1.01v-.84h1.01v-1.856h1.028v1.856l2.227-.02v.86H45.14v3.821q0 .625.235.905.234.274.703.274.547 0 1.12-.365zM48.931 170.2v-7.025h1.022v7.025zm.501-9.76q.293 0 .489.209.195.202.195.508t-.195.514q-.196.208-.489.208t-.488-.201q-.189-.209-.189-.521 0-.306.19-.508.194-.208.487-.208zM56.144 169.718q-.762.52-1.589.534-.813 0-1.302-.495-.488-.501-.488-1.504v-4.01h-1.009v-.84h1.01v-1.856h1.028v1.856l2.226-.02v.86h-2.226v3.821q0 .625.234.905.235.274.703.274.547 0 1.12-.365zM57.65 170.2v-9.896h1.041v9.896zM64.104 163.149q1.654 0 2.493 1.061.84 1.055.756 2.884h-5.73q.13 1.029.82 1.634.697.606 1.726.606.651 0 1.204-.228.554-.228.97-.651l.573.612q-.507.56-1.237.866-.722.306-1.588.306-1.029 0-1.823-.443-.794-.45-1.237-1.256-.436-.808-.436-1.85 0-1.041.442-1.842.45-.807 1.25-1.25.801-.449 1.817-.449zm2.318 3.092q-.052-1.015-.69-1.608-.632-.592-1.654-.592-1.003 0-1.673.599-.664.599-.782 1.601zM68.569 163.891v-3.027h.827v3.027zm1.745 0v-3.027h.827v3.027zM73.356 164.959q.267 0 .45.202.188.202.188.495 0 .292-.189.494-.182.196-.449.196-.28 0-.469-.196-.188-.202-.188-.494 0-.293.188-.495.19-.202.47-.202zm0 3.958q.267 0 .45.202.188.202.188.495t-.189.495q-.182.195-.449.195-.28 0-.469-.195-.188-.202-.188-.495t.188-.495q.19-.202.47-.202zM78.956 163.891v-3.027h.826v3.027zm1.744 0v-3.027h.827v3.027zM90.514 170.2v-4.108h-5.625v4.108H83.82v-9.336h1.068v4.219h5.625v-4.22h1.067v9.337zM97.01 163.149q1.654 0 2.494 1.061.84 1.055.755 2.884H94.53q.13 1.029.82 1.634.697.606 1.726.606.65 0 1.204-.228.553-.228.97-.651l.573.612q-.508.56-1.237.866-.723.306-1.588.306-1.03 0-1.823-.443-.795-.45-1.237-1.256-.437-.808-.437-1.85 0-1.041.443-1.842.45-.807 1.25-1.25.8-.449 1.817-.449zm2.318 3.092q-.052-1.015-.69-1.608-.631-.592-1.654-.592-1.002 0-1.673.599-.664.599-.78 1.601zM102.13 170.2v-9.896h1.041v9.896zM105.73 170.2v-9.896h1.041v9.896zM112.236 163.149q1.029 0 1.836.45.814.442 1.27 1.25.455.807.455 1.829 0 1.041-.456 1.849-.455.807-1.27 1.263-.806.449-1.835.449t-1.842-.45q-.814-.455-1.27-1.262-.45-.808-.45-1.85 0-1.028.45-1.829.456-.807 1.27-1.25.813-.449 1.842-.449zm0 .944q-.723 0-1.302.332-.58.332-.899.925-.319.585-.319 1.34 0 .762.32 1.355.318.592.898.93.58.333 1.302.333.723 0 1.302-.332.58-.339.898-.931.32-.593.32-1.354 0-.762-.32-1.348-.319-.586-.904-.918-.58-.332-1.296-.332zM124.944 170.2l-2.52-7.865-2.552 7.865h-1.087l-3.125-9.336h1.145l2.566 8.099 2.532-8.086 1.068-.013 2.558 8.099 2.533-8.1h1.107l-3.132 9.337zM132.503 163.149q1.028 0 1.836.45.813.442 1.27 1.25.455.807.455 1.829 0 1.041-.456 1.849-.456.807-1.27 1.263-.807.449-1.835.449-1.029 0-1.843-.45-.814-.455-1.27-1.262-.449-.808-.449-1.85 0-1.028.45-1.829.455-.807 1.27-1.25.813-.449 1.842-.449zm0 .944q-.723 0-1.302.332-.58.332-.899.925-.319.585-.319 1.34 0 .762.32 1.355.318.592.898.93.579.333 1.302.333.722 0 1.302-.332.58-.339.898-.931.32-.593.32-1.354 0-.762-.32-1.348-.319-.586-.905-.918-.58-.332-1.295-.332zM138.82 164.731q.351-.768.99-1.172.637-.41 1.53-.423v1.048q-1.095-.013-1.759.612-.664.619-.761 1.673v3.73h-1.036v-7.024h1.036zM142.903 170.2v-9.896h1.041v9.896zM152.89 170.2h-1.042v-1.504q-.397.749-1.1 1.152-.697.404-1.634.404-.99 0-1.765-.45-.768-.455-1.198-1.269-.423-.814-.423-1.855 0-1.042.423-1.843.43-.807 1.198-1.256.768-.456 1.751-.456.931 0 1.648.404.716.403 1.1 1.165v-4.388h1.042zm-3.575-.88q.736 0 1.309-.331.573-.339.898-.938.326-.599.326-1.347 0-.762-.326-1.361-.325-.599-.898-.937-.573-.339-1.309-.339-.735 0-1.315.339-.58.338-.905.944-.325.598-.325 1.354 0 .748.325 1.347.326.6.905.938.58.332 1.315.332zM154.902 163.891v-3.027h.827v3.027zm1.745 0v-3.027h.827v3.027zM159.69 168.943q.266 0 .449.19.189.188.189.494 0 .267-.202.573l-.625.957h-.586l.442-.97q-.293-.176-.293-.573 0-.293.176-.482.183-.189.45-.189z"/></g><g aria-label="&quot;properties&quot;: {" style="-inkscape-font-specification:Montserrat-Light" font-weight="300" font-size="10" font-family="Montserrat" fill="#666"><path d="M39.262 179.625v-3.028h.827v3.028zm1.745 0v-3.028h.827v3.028zM47.673 178.87q.99 0 1.751.455.769.45 1.192 1.263.43.814.43 1.849 0 1.029-.424 1.836-.416.807-1.178 1.256-.755.443-1.745.443-.931 0-1.634-.403-.697-.41-1.094-1.14v4.089H43.93v-9.61h1.042v1.517q.384-.748 1.08-1.152.704-.404 1.622-.404zm-.182 6.158q.716 0 1.289-.332.573-.338.892-.937.325-.6.325-1.348 0-.749-.325-1.341-.32-.593-.892-.931-.573-.339-1.29-.339-.735 0-1.308.332-.573.332-.892.938-.319.599-.319 1.341 0 .762.32 1.354.318.593.891.931.573.332 1.309.332zM53.833 180.464q.351-.768.99-1.171.637-.41 1.53-.424v1.049q-1.094-.014-1.758.611-.664.619-.762 1.674v3.73h-1.035v-7.025h1.035zM60.583 178.882q1.028 0 1.836.45.813.442 1.27 1.25.455.807.455 1.829 0 1.042-.456 1.849-.456.807-1.27 1.263-.807.45-1.835.45-1.029 0-1.843-.45-.814-.456-1.27-1.263-.449-.807-.449-1.849 0-1.029.45-1.83.455-.807 1.27-1.25.813-.449 1.842-.449zm0 .944q-.723 0-1.302.332-.58.332-.899.925-.319.586-.319 1.341 0 .762.32 1.354.318.593.898.931.579.332 1.302.332.722 0 1.302-.332.58-.338.898-.93.32-.593.32-1.355t-.32-1.348q-.319-.586-.905-.918-.58-.332-1.295-.332zM69.673 178.87q.99 0 1.751.455.769.45 1.192 1.263.43.814.43 1.849 0 1.029-.424 1.836-.416.807-1.178 1.256-.755.443-1.745.443-.931 0-1.634-.403-.697-.41-1.094-1.14v4.089H65.93v-9.61h1.042v1.517q.384-.748 1.08-1.152.704-.404 1.622-.404zm-.182 6.158q.716 0 1.289-.332.573-.338.892-.937.325-.6.325-1.348 0-.749-.325-1.341-.32-.593-.892-.931-.573-.339-1.29-.339-.735 0-1.308.332-.573.332-.892.938-.319.599-.319 1.341 0 .762.32 1.354.318.593.891.931.573.332 1.309.332zM77.717 178.882q1.654 0 2.494 1.062.84 1.054.755 2.884h-5.73q.131 1.028.821 1.634.697.605 1.725.605.651 0 1.205-.228.553-.227.97-.65l.573.611q-.508.56-1.237.866-.723.306-1.589.306-1.028 0-1.823-.443-.794-.449-1.237-1.256-.436-.807-.436-1.849 0-1.042.443-1.842.449-.808 1.25-1.25.8-.45 1.816-.45zm2.318 3.093q-.052-1.016-.69-1.608-.632-.593-1.654-.593-1.002 0-1.673.6-.664.598-.781 1.6zM83.686 180.464q.352-.768.99-1.171.638-.41 1.53-.424v1.049q-1.094-.014-1.758.611-.664.619-.762 1.674v3.73h-1.035v-7.025h1.035zM91.33 185.451q-.761.521-1.588.534-.814 0-1.302-.495-.488-.5-.488-1.503v-4.01h-1.01v-.84h1.01v-1.856h1.028v1.855l2.227-.02v.86H88.98v3.822q0 .625.235.905.234.273.703.273.547 0 1.12-.364zM92.771 185.933v-7.025h1.022v7.025zm.501-9.759q.293 0 .489.208.195.202.195.508t-.195.514q-.196.209-.489.209t-.488-.202q-.189-.208-.189-.52 0-.307.19-.509.194-.208.487-.208zM99.157 178.882q1.654 0 2.494 1.062.84 1.054.755 2.884h-5.73q.131 1.028.821 1.634.697.605 1.725.605.651 0 1.205-.228.553-.227.97-.65l.573.611q-.508.56-1.237.866-.723.306-1.589.306-1.028 0-1.823-.443-.794-.449-1.237-1.256-.436-.807-.436-1.849 0-1.042.443-1.842.449-.808 1.25-1.25.8-.45 1.816-.45zm2.318 3.093q-.052-1.016-.69-1.608-.632-.593-1.654-.593-1.002 0-1.673.6-.664.598-.781 1.6zM105.953 178.87q.632 0 1.217.169.586.162 1.023.468l-.398.827q-.41-.267-.917-.416-.508-.157-.99-.157-.625 0-1.01.235-.377.227-.377.696 0 .32.215.534.215.215.527.352.313.13.873.286.735.215 1.191.43.462.215.788.625.325.403.325 1.054 0 .99-.742 1.498-.735.501-1.83.501-.76 0-1.484-.26-.716-.26-1.21-.723l.403-.788q.443.41 1.074.651.632.241 1.257.241.664 0 1.08-.26.424-.26.424-.768t-.404-.75q-.403-.246-1.243-.487-.736-.228-1.172-.424-.43-.201-.749-.592-.312-.397-.312-1.029 0-.957.69-1.432.696-.482 1.751-.482zM109.742 179.625v-3.028h.827v3.028zm1.745 0v-3.028h.827v3.028zM114.41 180.692q.266 0 .449.202.189.202.189.495t-.19.495q-.182.195-.449.195-.28 0-.468-.195-.19-.202-.19-.495t.19-.495q.189-.202.468-.202zm0 3.959q.266 0 .449.201.189.202.189.495t-.19.495q-.182.195-.449.195-.28 0-.468-.195-.19-.202-.19-.495t.19-.495q.189-.201.468-.201zM121.835 180.503q0 .593-.183.892-.175.3-.592.43.41.117.592.423.183.3.183.886v2.597q0 .521.306.756.306.234 1.028.234v.892h-.377q-1.016 0-1.459-.371-.442-.365-.442-1.218v-2.942q0-.41-.157-.606-.15-.195-.488-.195h-.345v-.918h.345q.332 0 .488-.189.157-.189.157-.599v-2.962q0-.853.442-1.218.45-.37 1.459-.37h.377v.898q-.71 0-1.022.24-.312.235-.312.756z"/></g><g aria-label="&quot;someobject&quot;: {" style="-inkscape-font-specification:Montserrat-Light" font-weight="300" font-size="10" font-family="Montserrat" fill="#666"><path d="M46.596 195.491v-3.027h.826v3.027zm1.744 0v-3.027h.827v3.027zM53.06 194.736q.631 0 1.217.17.586.162 1.022.468l-.397.827q-.41-.267-.918-.417-.508-.156-.99-.156-.624 0-1.009.234-.377.228-.377.697 0 .319.215.534.215.215.527.351.313.13.872.287.736.215 1.192.43.462.214.788.624.325.404.325 1.055 0 .99-.742 1.498-.736.5-1.83.5-.761 0-1.484-.26-.716-.26-1.21-.722l.403-.788q.443.41 1.074.651.632.24 1.257.24.664 0 1.08-.26.424-.26.424-.768t-.404-.748q-.404-.248-1.244-.489-.735-.228-1.172-.423-.43-.202-.748-.592-.313-.397-.313-1.029 0-.957.69-1.432.697-.482 1.752-.482zM60.05 194.749q1.028 0 1.835.45.814.442 1.27 1.25.455.807.455 1.829 0 1.041-.455 1.849-.456.807-1.27 1.263-.807.449-1.836.449-1.028 0-1.842-.45-.814-.455-1.27-1.262-.449-.808-.449-1.85 0-1.028.45-1.829.455-.807 1.269-1.25.814-.449 1.842-.449zm0 .944q-.723 0-1.303.332t-.898.925q-.32.585-.32 1.34 0 .762.32 1.355.319.592.898.93.58.333 1.302.333.723 0 1.302-.332.58-.339.899-.931.319-.593.319-1.354 0-.762-.32-1.348-.318-.586-.904-.918-.58-.332-1.296-.332zM74.448 194.736q1.224 0 1.915.73.696.722.696 1.998v4.336h-1.035v-4.056q0-.931-.52-1.459-.522-.527-1.427-.527-1.08.026-1.692.736-.606.703-.606 1.855v3.45h-1.048v-4.055q0-.931-.514-1.459-.515-.527-1.433-.527-1.067.026-1.692.736-.619.703-.619 1.855v3.45h-1.022v-7.024h1.022v1.582q.345-.8 1.022-1.204.684-.404 1.66-.417.99 0 1.641.482.651.475.879 1.354.319-.918 1.029-1.367.716-.456 1.744-.469zM82.117 194.749q1.654 0 2.494 1.061.84 1.055.755 2.884h-5.73q.131 1.029.821 1.634.697.606 1.725.606.651 0 1.205-.228.553-.228.97-.651l.573.612q-.508.56-1.237.866-.723.306-1.589.306-1.028 0-1.823-.443-.794-.45-1.237-1.256-.436-.808-.436-1.85 0-1.041.443-1.842.449-.807 1.25-1.25.8-.449 1.816-.449zm2.318 3.092q-.052-1.015-.69-1.608-.632-.592-1.654-.592-1.002 0-1.673.599-.664.599-.781 1.601zM90.023 194.749q1.028 0 1.836.45.813.442 1.27 1.25.455.807.455 1.829 0 1.041-.456 1.849-.456.807-1.27 1.263-.807.449-1.835.449-1.029 0-1.843-.45-.814-.455-1.27-1.262-.449-.808-.449-1.85 0-1.028.45-1.829.455-.807 1.27-1.25.813-.449 1.842-.449zm0 .944q-.723 0-1.302.332-.58.332-.899.925-.319.585-.319 1.34 0 .762.32 1.355.318.592.898.93.579.333 1.302.333.722 0 1.302-.332.58-.339.898-.931.32-.593.32-1.354 0-.762-.32-1.348-.319-.586-.905-.918-.58-.332-1.295-.332zM99.113 194.736q.99 0 1.751.456.769.449 1.192 1.263.43.814.43 1.849 0 1.028-.424 1.836-.416.807-1.178 1.256-.755.443-1.745.443-.931 0-1.634-.404-.697-.41-1.094-1.14v1.505H95.37v-9.896h1.042v4.388q.384-.749 1.08-1.152.704-.404 1.622-.404zm-.182 6.159q.716 0 1.289-.332.573-.339.892-.938.325-.599.325-1.347 0-.749-.325-1.341-.32-.593-.892-.931-.573-.339-1.29-.339-.735 0-1.308.332-.573.332-.892.938-.319.598-.319 1.34 0 .762.32 1.355.318.592.891.93.573.333 1.309.333zM104.713 192.028q.306 0 .508.215.202.208.202.514 0 .306-.202.52-.202.216-.508.216-.293 0-.501-.209-.202-.215-.202-.527 0-.306.202-.514.208-.215.501-.215zm.52 10.039q0 1.146-.56 1.751-.559.605-1.425.605-.8 0-1.452-.475l.371-.853q.495.358 1.016.358.482 0 .742-.312.267-.313.267-.944v-7.422h1.042zM110.624 194.749q1.654 0 2.493 1.061.84 1.055.756 2.884h-5.73q.13 1.029.82 1.634.697.606 1.726.606.651 0 1.204-.228.554-.228.97-.651l.573.612q-.507.56-1.237.866-.722.306-1.588.306-1.029 0-1.823-.443-.794-.45-1.237-1.256-.436-.808-.436-1.85 0-1.041.442-1.842.45-.807 1.25-1.25.801-.449 1.817-.449zm2.318 3.092q-.052-1.015-.69-1.608-.632-.592-1.654-.592-1.003 0-1.673.599-.664.599-.782 1.601zM118.383 194.749q.814 0 1.491.273.684.274 1.159.762l-.573.736q-.853-.814-2.09-.814-.722 0-1.289.326-.566.325-.885.918-.32.585-.32 1.34 0 .762.32 1.348.319.586.885.925.567.332 1.29.332.69 0 1.243-.235.553-.234.93-.677l.6.645q-.482.573-1.205.892-.716.319-1.608.319-1.015 0-1.803-.443-.788-.45-1.237-1.256-.443-.808-.443-1.85 0-1.041.45-1.842.455-.807 1.262-1.25.808-.449 1.823-.449zM126.77 201.318q-.761.52-1.588.534-.814 0-1.302-.495-.488-.501-.488-1.504v-4.01h-1.01v-.84h1.01v-1.856h1.028v1.856l2.227-.02v.86h-2.227v3.821q0 .625.235.905.234.274.703.274.547 0 1.12-.365zM127.742 195.491v-3.027h.827v3.027zm1.745 0v-3.027h.827v3.027zM132.53 196.559q.266 0 .449.202.189.202.189.495 0 .292-.19.494-.182.196-.448.196-.28 0-.47-.196-.188-.202-.188-.494 0-.293.189-.495t.469-.202zm0 3.958q.266 0 .449.202.189.202.189.495t-.19.495q-.182.195-.448.195-.28 0-.47-.195-.188-.202-.188-.495t.189-.495q.189-.202.469-.202zM139.835 196.37q0 .593-.183.892-.175.3-.592.43.41.117.592.423.183.3.183.885v2.598q0 .52.306.755t1.028.235v.891h-.377q-1.016 0-1.459-.37-.442-.365-.442-1.218v-2.943q0-.41-.157-.605-.15-.196-.488-.196h-.345v-.918h.345q.332 0 .488-.188.157-.19.157-.6v-2.962q0-.852.442-1.217.45-.371 1.459-.371h.377v.898q-.71 0-1.022.241-.312.235-.312.755z"/></g><g aria-label="&quot;type&quot;: &quot;object&quot;," style="-inkscape-font-specification:Montserrat-Light" font-weight="300" font-size="10" font-family="Montserrat" fill="#666"><path d="M53.929 211.358v-3.027h.827v3.027zm1.745 0v-3.027h.827v3.027zM62.157 217.185q-.761.52-1.588.534-.814 0-1.302-.495-.489-.502-.489-1.504v-4.01H57.77v-.84h1.01v-1.856h1.028v1.856l2.227-.02v.86h-2.227v3.821q0 .625.234.905.235.273.704.273.546 0 1.12-.364zM65.957 218.67q-.338.813-.872 1.223-.527.417-1.237.417-.84 0-1.478-.521l.436-.866q.469.332.99.332.41 0 .736-.254.332-.254.54-.736l.3-.65-2.91-6.973h1.093l2.33 5.8 2.227-5.8h1.068zM74.193 210.603q.99 0 1.751.455.769.45 1.192 1.263.43.814.43 1.85 0 1.028-.424 1.835-.416.808-1.178 1.257-.755.443-1.745.443-.931 0-1.634-.404-.697-.41-1.094-1.14v4.09H70.45v-9.61h1.042v1.517q.384-.75 1.08-1.153.704-.403 1.622-.403zm-.182 6.159q.716 0 1.289-.333.573-.338.892-.937.325-.599.325-1.348 0-.748-.325-1.34-.32-.593-.892-.932-.573-.338-1.29-.338-.735 0-1.308.332-.573.332-.892.937-.319.6-.319 1.341 0 .762.32 1.354.318.593.891.931.573.333 1.309.333zM82.117 210.616q1.654 0 2.494 1.06.84 1.056.755 2.885h-5.73q.131 1.029.821 1.634.697.606 1.725.606.651 0 1.205-.228.553-.228.97-.651l.573.612q-.508.56-1.237.866-.723.306-1.589.306-1.028 0-1.823-.443-.794-.45-1.237-1.257-.436-.807-.436-1.849 0-1.041.443-1.842.449-.807 1.25-1.25.8-.45 1.816-.45zm2.318 3.092q-.052-1.015-.69-1.608-.632-.592-1.654-.592-1.002 0-1.673.599-.664.599-.781 1.601zM86.702 211.358v-3.027h.827v3.027zm1.745 0v-3.027h.827v3.027zM91.37 212.426q.266 0 .449.201.189.202.189.495t-.19.495q-.182.195-.449.195-.28 0-.468-.195-.19-.202-.19-.495t.19-.495q.189-.201.468-.201zm0 3.958q.266 0 .449.202.189.202.189.495 0 .292-.19.494-.182.196-.449.196-.28 0-.468-.196-.19-.202-.19-.494 0-.293.19-.495.189-.202.468-.202zM97.089 211.358v-3.027h.827v3.027zm1.745 0v-3.027h.827v3.027zM104.543 210.616q1.028 0 1.836.449.813.443 1.27 1.25.455.807.455 1.83 0 1.041-.456 1.848-.456.808-1.27 1.263-.807.45-1.835.45-1.029 0-1.843-.45-.814-.455-1.27-1.263-.449-.807-.449-1.849 0-1.028.45-1.83.455-.806 1.27-1.25.813-.448 1.842-.448zm0 .944q-.723 0-1.302.332-.58.332-.899.924-.319.586-.319 1.341 0 .762.32 1.355.318.592.898.93.579.333 1.302.333.722 0 1.302-.332.58-.339.898-.931.32-.593.32-1.355 0-.761-.32-1.347-.319-.586-.905-.918-.58-.332-1.295-.332zM113.633 210.603q.99 0 1.751.455.769.45 1.192 1.263.43.814.43 1.85 0 1.028-.424 1.835-.416.808-1.178 1.257-.755.443-1.745.443-.931 0-1.634-.404-.697-.41-1.094-1.14v1.504h-1.042v-9.895h1.042v4.388q.384-.75 1.08-1.153.704-.403 1.622-.403zm-.182 6.159q.716 0 1.289-.333.573-.338.892-.937.325-.599.325-1.348 0-.748-.325-1.34-.32-.593-.892-.932-.573-.338-1.29-.338-.735 0-1.308.332-.573.332-.892.937-.319.6-.319 1.341 0 .762.32 1.354.318.593.891.931.573.333 1.309.333zM119.233 207.894q.306 0 .508.215.202.209.202.514 0 .306-.202.521-.202.215-.508.215-.293 0-.501-.208-.202-.215-.202-.528 0-.305.202-.514.208-.215.501-.215zm.52 10.04q0 1.145-.56 1.75-.559.606-1.425.606-.8 0-1.452-.475l.371-.853q.495.358 1.016.358.482 0 .742-.312.267-.313.267-.944v-7.422h1.042zM125.144 210.616q1.654 0 2.493 1.06.84 1.056.756 2.885h-5.73q.13 1.029.82 1.634.697.606 1.726.606.651 0 1.204-.228.554-.228.97-.651l.573.612q-.507.56-1.237.866-.722.306-1.588.306-1.029 0-1.823-.443-.794-.45-1.237-1.257-.436-.807-.436-1.849 0-1.041.442-1.842.45-.807 1.25-1.25.801-.45 1.817-.45zm2.318 3.092q-.053-1.015-.69-1.608-.632-.592-1.654-.592-1.003 0-1.673.599-.664.599-.782 1.601zM133.023 210.616q.814 0 1.491.273.684.274 1.159.762l-.573.736q-.853-.814-2.09-.814-.722 0-1.289.325-.566.326-.885.918-.32.586-.32 1.341 0 .762.32 1.348.319.586.885.924.567.333 1.29.333.69 0 1.243-.235.553-.234.93-.677l.6.645q-.482.573-1.205.892-.716.319-1.608.319-1.015 0-1.803-.443-.788-.45-1.237-1.257-.443-.807-.443-1.849 0-1.041.45-1.842.455-.807 1.262-1.25.808-.45 1.823-.45zM141.29 217.185q-.761.52-1.588.534-.814 0-1.302-.495-.488-.502-.488-1.504v-4.01h-1.01v-.84h1.01v-1.856h1.028v1.856l2.227-.02v.86h-2.227v3.821q0 .625.235.905.234.273.703.273.547 0 1.12-.364zM142.262 211.358v-3.027h.827v3.027zm1.745 0v-3.027h.827v3.027zM147.05 216.41q.266 0 .449.189.189.189.189.495 0 .266-.202.572l-.625.957h-.586l.442-.97q-.292-.175-.292-.572 0-.293.175-.482.183-.19.45-.19z"/></g><g aria-label="&quot;allOf&quot;: [{&quot;$ref&quot;:" style="-inkscape-font-specification:Montserrat-Light" font-weight="300" font-size="10" font-family="Montserrat" fill="#666"><path d="M53.929 227.225v-3.028h.827v3.028zm1.745 0v-3.028h.827v3.028zM62.887 232.452q-.84 1.133-2.572 1.133-.71 0-1.257-.28-.54-.28-.84-.768-.292-.495-.292-1.1 0-.918.69-1.459.696-.54 1.94-.553h2.304v-.41q0-.788-.481-1.211-.476-.43-1.4-.43-1.068 0-2.227.801l-.436-.762q.749-.494 1.38-.716.632-.228 1.485-.228 1.295 0 1.992.638.703.638.716 1.784l.013 4.642h-1.015zm-2.37.228q.892 0 1.523-.416.632-.424.834-1.16v-.84h-2.188q-1.784 0-1.784 1.134 0 .586.436.937.443.345 1.179.345zM66.316 233.533v-9.896h1.042v9.896zM69.916 233.533v-9.896h1.042v9.896zM77.731 224.171q1.328 0 2.448.632 1.12.625 1.771 1.699.658 1.074.658 2.363 0 1.296-.658 2.376-.651 1.081-1.77 1.713-1.12.631-2.449.631-1.347 0-2.467-.631-1.12-.632-1.778-1.713-.65-1.08-.65-2.376 0-1.295.65-2.37.658-1.08 1.778-1.699 1.12-.625 2.467-.625zm0 1.016q-1.028 0-1.9.495-.873.494-1.394 1.334-.52.84-.52 1.85 0 1.015.52 1.861.52.846 1.393 1.341.873.489 1.901.489 1.029 0 1.888-.489.866-.495 1.38-1.34.515-.847.515-1.863 0-1.015-.515-1.849-.514-.84-1.38-1.334-.866-.495-1.888-.495zM86.712 224.562q-.528 0-.886.332-.351.332-.351.918v.905h2.011v.86h-2.011v5.956h-1.029v-5.957h-.905v-.86h.905v-.768q0-.735.313-1.276.319-.54.826-.813.515-.274 1.114-.274.879.026 1.51.495l-.43.84q-.507-.358-1.067-.358z"/><path d="M88.156 227.225v-3.028h.826v3.028zm1.744 0v-3.028h.827v3.028zM92.823 228.292q.267 0 .45.202.188.202.188.495t-.189.495q-.182.195-.45.195-.28 0-.468-.195-.189-.202-.189-.495t.19-.495q.188-.202.468-.202zm0 3.959q.267 0 .45.201.188.202.188.495t-.189.495q-.182.195-.45.195-.28 0-.468-.195-.189-.202-.189-.495t.19-.495q.188-.201.468-.201zM100.098 224.536v9.759h1.686v.892h-2.63v-11.55h2.63v.899zM104.648 228.103q0 .593-.182.892-.176.3-.593.43.41.117.593.423.182.3.182.886v2.597q0 .521.306.756.306.234 1.029.234v.892h-.378q-1.016 0-1.458-.371-.443-.365-.443-1.218v-2.942q0-.41-.156-.606-.15-.195-.489-.195h-.345v-.918h.345q.333 0 .489-.189.156-.189.156-.599v-2.962q0-.853.443-1.218.449-.37 1.458-.37h.378v.898q-.71 0-1.022.24-.313.235-.313.756zM107.196 227.225v-3.028h.826v3.028zm1.744 0v-3.028h.827v3.028zM115.033 228.292q.905.28 1.485.554.586.273.983.794.403.52.403 1.348 0 1.067-.78 1.764-.782.69-2.09.794v1.771h-.814v-1.758q-.918-.052-1.778-.43-.86-.384-1.484-.983l.475-.957q.573.56 1.309.899.735.338 1.478.403v-3.307q-.853-.254-1.42-.527-.566-.274-.944-.775-.37-.508-.37-1.309 0-1.002.741-1.64.743-.638 1.993-.749v-1.627h.813v1.614q.723.04 1.413.267.697.228 1.23.586l-.455 1.003q-.508-.332-1.074-.528-.567-.195-1.114-.247zm-2.37-1.81q0 .6.398.944.403.345 1.159.612v-2.773q-.736.065-1.146.39-.41.32-.41.827zm4.063 4.584q0-.638-.436-.996-.43-.365-1.257-.632v3.04q.801-.09 1.244-.462.45-.377.45-.95zM120.953 228.064q.351-.768.99-1.171.637-.41 1.53-.424v1.049q-1.094-.014-1.758.611-.664.619-.762 1.674v3.73h-1.035v-7.025h1.035zM127.65 226.482q1.654 0 2.494 1.062.84 1.054.755 2.884h-5.729q.13 1.028.82 1.634.697.605 1.726.605.65 0 1.204-.228.553-.227.97-.65l.573.611q-.508.56-1.237.866-.723.306-1.588.306-1.03 0-1.823-.443-.795-.449-1.237-1.256-.437-.807-.437-1.849 0-1.042.443-1.842.45-.808 1.25-1.25.8-.45 1.817-.45zm2.318 3.093q-.052-1.016-.69-1.608-.631-.593-1.654-.593-1.002 0-1.673.6-.664.598-.78 1.6zM135.178 224.562q-.527 0-.885.332-.352.332-.352.918v.905h2.012v.86h-2.012v5.956h-1.028v-5.957h-.905v-.86h.905v-.768q0-.735.312-1.276.32-.54.827-.813.514-.274 1.113-.274.88.026 1.51.495l-.429.84q-.508-.358-1.068-.358z"/><path d="M136.502 227.225v-3.028h.827v3.028zm1.745 0v-3.028h.827v3.028zM141.29 228.292q.266 0 .449.202.189.202.189.495t-.19.495q-.182.195-.448.195-.28 0-.47-.195-.188-.202-.188-.495t.189-.495q.189-.202.469-.202zm0 3.959q.266 0 .449.201.189.202.189.495t-.19.495q-.182.195-.448.195-.28 0-.47-.195-.188-.202-.188-.495t.189-.495q.189-.201.469-.201z"/></g><g aria-label="&quot;http://dash.org/sys#/...}]," style="-inkscape-font-specification:Montserrat-Light" font-weight="300" font-size="10" font-family="Montserrat" fill="#666"><path d="M31.796 243.091v-3.027h.826v3.027zm1.744 0v-3.027h.827v3.027zM40.352 242.336q1.257 0 1.96.73.71.722.71 1.998v4.336H41.98v-4.056q0-.931-.527-1.452-.528-.52-1.459-.52-1.106.012-1.738.722-.631.703-.631 1.855v3.45h-1.042v-9.895h1.042v4.44q.69-1.588 2.727-1.608zM48.944 248.918q-.762.52-1.589.534-.813 0-1.302-.495-.488-.501-.488-1.504v-4.01h-1.009v-.84h1.01v-1.856h1.028v1.856l2.226-.02v.86h-2.226v3.821q0 .625.234.905.235.274.703.274.547 0 1.12-.365zM54.01 248.918q-.761.52-1.588.534-.814 0-1.302-.495-.488-.501-.488-1.504v-4.01h-1.01v-.84h1.01v-1.856h1.028v1.856l2.227-.02v.86H51.66v3.821q0 .625.235.905.234.274.703.274.547 0 1.12-.365zM59.26 242.336q.99 0 1.751.456.768.449 1.191 1.263.43.814.43 1.849 0 1.028-.423 1.836-.417.807-1.179 1.256-.755.443-1.744.443-.931 0-1.634-.404-.697-.41-1.094-1.14v4.09h-1.042v-9.61h1.042v1.517q.384-.749 1.08-1.152.704-.404 1.622-.404zm-.183 6.159q.717 0 1.29-.332.572-.339.891-.938.326-.599.326-1.347 0-.749-.326-1.341-.319-.593-.892-.931-.572-.339-1.289-.339-.735 0-1.308.332-.573.332-.892.938-.32.598-.32 1.34 0 .762.32 1.355.319.592.892.93.573.333 1.308.333zM64.57 244.159q.266 0 .449.202.189.202.189.495 0 .292-.19.494-.182.196-.448.196-.28 0-.47-.196-.188-.202-.188-.494 0-.293.189-.495t.469-.202zm0 3.958q.266 0 .449.202.189.202.189.495t-.19.495q-.182.195-.448.195-.28 0-.47-.195-.188-.202-.188-.495t.189-.495q.189-.202.469-.202zM65.618 251.027l4.16-12.558h.925l-4.173 12.558zM69.752 251.027l4.16-12.558h.924l-4.173 12.558zM81.756 249.4h-1.041v-1.504q-.398.749-1.1 1.152-.697.404-1.635.404-.99 0-1.764-.45-.768-.455-1.198-1.269-.423-.814-.423-1.855 0-1.042.423-1.843.43-.807 1.198-1.256.768-.456 1.751-.456.931 0 1.647.404.716.403 1.1 1.165v-4.388h1.042zm-3.574-.88q.736 0 1.309-.331.573-.339.898-.938.326-.599.326-1.347 0-.762-.326-1.361-.325-.599-.898-.937-.573-.339-1.309-.339t-1.315.339q-.58.338-.905.944-.326.598-.326 1.354 0 .748.326 1.347.325.6.905.938.58.332 1.315.332zM88.593 248.32q-.84 1.132-2.571 1.132-.71 0-1.257-.28-.54-.28-.84-.768-.293-.495-.293-1.1 0-.919.69-1.459.697-.54 1.94-.553h2.305v-.41q0-.788-.482-1.211-.475-.43-1.4-.43-1.067 0-2.226.8l-.436-.761q.749-.495 1.38-.716.632-.228 1.484-.228 1.296 0 1.993.638.703.638.716 1.784l.013 4.642h-1.016zm-2.37.227q.892 0 1.524-.417.631-.423.833-1.159v-.84h-2.187q-1.784 0-1.784 1.133 0 .586.436.938.443.345 1.178.345zM93.82 242.336q.631 0 1.217.17.586.162 1.022.468l-.397.827q-.41-.267-.918-.417-.508-.156-.99-.156-.624 0-1.009.234-.377.228-.377.697 0 .319.215.534.215.215.527.351.313.13.872.287.736.215 1.192.43.462.214.788.624.325.404.325 1.055 0 .99-.742 1.498-.736.5-1.83.5-.761 0-1.484-.26-.716-.26-1.21-.722l.403-.788q.443.41 1.074.651.632.24 1.257.24.664 0 1.08-.26.424-.26.424-.768t-.404-.748q-.404-.248-1.244-.489-.735-.228-1.172-.423-.43-.202-.748-.592-.313-.397-.313-1.029 0-.957.69-1.432.697-.482 1.752-.482zM101.912 242.336q1.257 0 1.96.73.71.722.71 1.998v4.336h-1.042v-4.056q0-.931-.527-1.452-.528-.52-1.459-.52-1.106.012-1.738.722-.632.703-.632 1.855v3.45h-1.041v-9.895h1.041v4.44q.69-1.588 2.728-1.608zM106.943 248.117q.267 0 .449.202.189.202.189.495t-.189.495q-.182.195-.45.195-.28 0-.468-.195-.189-.202-.189-.495t.19-.495q.188-.202.468-.202zM112.263 242.349q1.028 0 1.836.45.813.442 1.27 1.25.455.807.455 1.829 0 1.041-.456 1.849-.456.807-1.27 1.263-.807.449-1.835.449-1.029 0-1.843-.45-.814-.455-1.27-1.262-.449-.808-.449-1.85 0-1.028.45-1.829.455-.807 1.27-1.25.813-.449 1.842-.449zm0 .944q-.723 0-1.302.332-.58.332-.899.925-.319.585-.319 1.34 0 .762.32 1.355.318.592.898.93.579.333 1.302.333.722 0 1.302-.332.58-.339.898-.931.32-.593.32-1.354 0-.762-.32-1.348-.319-.586-.905-.918-.58-.332-1.295-.332zM118.58 243.931q.351-.768.99-1.172.637-.41 1.53-.423v1.048q-1.095-.013-1.759.612-.664.619-.761 1.673v3.73h-1.036v-7.024h1.036zM128.598 248.664q0 1.016-.443 1.77-.443.763-1.244 1.166-.794.41-1.849.41-1.562-.013-2.877-1.009l.475-.8q.534.442 1.107.657.573.221 1.256.235 1.146 0 1.836-.658.697-.651.697-1.745v-1.061q-.371.71-1.042 1.087-.664.378-1.543.378-.93 0-1.66-.43-.73-.436-1.14-1.21-.403-.776-.403-1.759 0-.976.397-1.731.404-.762 1.12-1.192.723-.436 1.654-.436.892 0 1.556.378.67.377 1.06 1.087v-1.426h1.043zm-3.444-.45q.696 0 1.243-.318.547-.326.853-.892.306-.566.306-1.27 0-.722-.306-1.289-.306-.566-.853-.885-.547-.32-1.243-.32-.69 0-1.237.32-.547.319-.86.885-.312.567-.312 1.29 0 .71.312 1.275.313.56.86.886.546.319 1.237.319zM129.578 251.027l4.16-12.558h.925l-4.173 12.558zM136.993 242.336q.632 0 1.217.17.586.162 1.023.468l-.398.827q-.41-.267-.917-.417-.508-.156-.99-.156-.625 0-1.01.234-.377.228-.377.697 0 .319.215.534.215.215.527.351.313.13.873.287.735.215 1.191.43.462.214.788.624.325.404.325 1.055 0 .99-.742 1.498-.735.5-1.83.5-.76 0-1.484-.26-.716-.26-1.21-.722l.403-.788q.443.41 1.074.651.632.24 1.257.24.664 0 1.08-.26.424-.26.424-.768t-.404-.748q-.403-.248-1.243-.489-.736-.228-1.172-.423-.43-.202-.749-.592-.312-.397-.312-1.029 0-.957.69-1.432.696-.482 1.751-.482zM143.237 250.402q-.338.814-.872 1.224-.527.417-1.237.417-.84 0-1.478-.52l.436-.867q.469.332.99.332.41 0 .736-.254.332-.253.54-.735l.3-.651-2.91-6.973h1.093l2.33 5.8 2.227-5.8h1.068zM149.393 242.336q.632 0 1.217.17.586.162 1.023.468l-.398.827q-.41-.267-.917-.417-.508-.156-.99-.156-.625 0-1.01.234-.377.228-.377.697 0 .319.215.534.215.215.527.351.313.13.873.287.735.215 1.191.43.462.214.788.624.325.404.325 1.055 0 .99-.742 1.498-.735.5-1.83.5-.76 0-1.484-.26-.716-.26-1.21-.722l.403-.788q.443.41 1.074.651.632.24 1.257.24.664 0 1.08-.26.424-.26.424-.768t-.404-.748q-.403-.248-1.243-.489-.736-.228-1.172-.423-.43-.202-.749-.592-.312-.397-.312-1.029 0-.957.69-1.432.696-.482 1.751-.482zM159.126 246.093h1.908l-.065.84h-1.934l-.306 2.467h-.8l.305-2.468h-2.682l-.306 2.468h-.8l.312-2.468h-1.908l.065-.84h1.934l.332-2.636h-1.908l.066-.84h1.946l.313-2.552h.794l-.306 2.552h2.682l.32-2.552h.787l-.306 2.552h1.895l-.059.84h-1.947zm-3.157-2.637l-.32 2.637h2.677l.338-2.637zM161.818 251.027l4.16-12.558h.925l-4.173 12.558zM167.436 248.117q.267 0 .45.202.188.202.188.495t-.189.495q-.182.195-.449.195-.28 0-.469-.195-.188-.202-.188-.495t.188-.495q.19-.202.47-.202zM170.09 248.117q.266 0 .449.202.189.202.189.495t-.19.495q-.182.195-.448.195-.28 0-.47-.195-.188-.202-.188-.495t.189-.495q.189-.202.469-.202zM172.623 248.117q.267 0 .449.202.189.202.189.495t-.189.495q-.182.195-.45.195-.28 0-.468-.195-.189-.202-.189-.495t.19-.495q.188-.202.468-.202zM176.354 243.97q0 .593.176.892.182.3.599.43-.41.117-.593.423-.182.3-.182.885v2.598q0 .52-.306.755t-1.029.235v.891h.378q1.016 0 1.458-.37.443-.365.443-1.218v-2.943q0-.41.15-.605.156-.196.495-.196h.345v-.918h-.345q-.332 0-.489-.188-.156-.19-.156-.6v-2.962q0-.852-.45-1.217-.442-.371-1.451-.371h-.378v.898q.71 0 1.023.241.312.235.312.755zM181.74 240.402v9.76h-1.686v.891h2.63v-11.549h-2.63v.898zM185.41 248.143q.266 0 .449.19.189.188.189.494 0 .267-.202.573l-.625.957h-.586l.442-.97q-.293-.176-.293-.573 0-.293.176-.482.183-.189.45-.189z"/></g><g aria-label="&quot;properties&quot;: {" style="-inkscape-font-specification:Montserrat-Light" font-weight="300" font-size="10" font-family="Montserrat" fill="#666"><path d="M53.929 258.825v-3.028h.827v3.028zm1.745 0v-3.028h.827v3.028zM62.34 258.07q.99 0 1.751.455.768.45 1.191 1.263.43.814.43 1.849 0 1.029-.423 1.836-.417.807-1.179 1.256-.755.443-1.744.443-.931 0-1.634-.403-.697-.41-1.094-1.14v4.089h-1.042v-9.61h1.042v1.517q.384-.748 1.08-1.152.704-.404 1.622-.404zm-.183 6.158q.717 0 1.29-.332.572-.338.891-.937.326-.6.326-1.348 0-.749-.326-1.341-.319-.593-.892-.931-.572-.339-1.289-.339-.735 0-1.308.332-.573.332-.892.938-.32.599-.32 1.341 0 .762.32 1.354.319.593.892.931.573.332 1.308.332zM68.5 259.664q.351-.768.99-1.171.637-.41 1.53-.424v1.049q-1.095-.014-1.759.611-.664.619-.761 1.674v3.73h-1.036v-7.025H68.5zM75.25 258.082q1.028 0 1.835.45.814.442 1.27 1.25.455.807.455 1.829 0 1.042-.455 1.849-.456.807-1.27 1.263-.807.45-1.836.45-1.028 0-1.842-.45-.814-.456-1.27-1.263-.449-.807-.449-1.849 0-1.029.45-1.83.455-.807 1.269-1.25.814-.449 1.842-.449zm0 .944q-.723 0-1.303.332t-.898.925q-.32.586-.32 1.341 0 .762.32 1.354.319.593.898.931.58.332 1.302.332.723 0 1.302-.332.58-.338.899-.93.319-.593.319-1.355t-.32-1.348q-.318-.586-.904-.918-.58-.332-1.296-.332zM84.46 258.07q.99 0 1.751.455.768.45 1.191 1.263.43.814.43 1.849 0 1.029-.423 1.836-.417.807-1.179 1.256-.755.443-1.744.443-.931 0-1.634-.403-.697-.41-1.094-1.14v4.089h-1.042v-9.61h1.042v1.517q.384-.748 1.08-1.152.704-.404 1.622-.404zm-.183 6.158q.717 0 1.29-.332.572-.338.891-.937.326-.6.326-1.348 0-.749-.326-1.341-.319-.593-.892-.931-.572-.339-1.289-.339-.735 0-1.308.332-.573.332-.892.938-.32.599-.32 1.341 0 .762.32 1.354.319.593.892.931.573.332 1.308.332zM92.384 258.082q1.654 0 2.493 1.062.84 1.054.756 2.884h-5.73q.13 1.028.82 1.634.697.605 1.726.605.651 0 1.204-.228.554-.227.97-.65l.573.611q-.507.56-1.237.866-.722.306-1.588.306-1.029 0-1.823-.443-.794-.449-1.237-1.256-.436-.807-.436-1.849 0-1.042.442-1.842.45-.808 1.25-1.25.801-.45 1.817-.45zm2.318 3.093q-.052-1.016-.69-1.608-.632-.593-1.654-.593-1.003 0-1.673.6-.664.598-.782 1.6zM98.473 259.664q.351-.768.99-1.171.637-.41 1.53-.424v1.049q-1.094-.014-1.758.611-.664.619-.762 1.674v3.73h-1.035v-7.025h1.035zM105.997 264.651q-.761.521-1.588.534-.814 0-1.302-.495-.489-.5-.489-1.503v-4.01h-1.009v-.84h1.01v-1.856h1.028v1.855l2.227-.02v.86h-2.227v3.822q0 .625.234.905.235.273.704.273.546 0 1.12-.364zM107.438 265.133v-7.025h1.022v7.025zm.501-9.759q.293 0 .488.208.196.202.196.508t-.196.514q-.195.209-.488.209t-.488-.202q-.19-.208-.19-.52 0-.307.19-.509.195-.208.488-.208zM113.824 258.082q1.654 0 2.493 1.062.84 1.054.756 2.884h-5.73q.13 1.028.82 1.634.697.605 1.726.605.651 0 1.204-.228.554-.227.97-.65l.573.611q-.507.56-1.237.866-.722.306-1.588.306-1.029 0-1.823-.443-.794-.449-1.237-1.256-.436-.807-.436-1.849 0-1.042.442-1.842.45-.808 1.25-1.25.801-.45 1.817-.45zm2.318 3.093q-.052-1.016-.69-1.608-.632-.593-1.654-.593-1.003 0-1.673.6-.664.598-.782 1.6zM120.62 258.07q.631 0 1.217.169.586.162 1.022.468l-.397.827q-.41-.267-.918-.416-.508-.157-.99-.157-.624 0-1.009.235-.377.227-.377.696 0 .32.215.534.215.215.527.352.313.13.872.286.736.215 1.192.43.462.215.788.625.325.403.325 1.054 0 .99-.742 1.498-.736.501-1.83.501-.761 0-1.484-.26-.716-.26-1.21-.723l.403-.788q.443.41 1.074.651.632.241 1.257.241.664 0 1.08-.26.424-.26.424-.768t-.404-.75q-.404-.246-1.244-.487-.735-.228-1.172-.424-.43-.201-.748-.592-.313-.397-.313-1.029 0-.957.69-1.432.697-.482 1.752-.482zM124.409 258.825v-3.028h.827v3.028zm1.745 0v-3.028h.827v3.028zM129.076 259.892q.267 0 .45.202.188.202.188.495t-.189.495q-.182.195-.449.195-.28 0-.469-.195-.188-.202-.188-.495t.188-.495q.19-.202.47-.202zm0 3.959q.267 0 .45.201.188.202.188.495t-.189.495q-.182.195-.449.195-.28 0-.469-.195-.188-.202-.188-.495t.188-.495q.19-.201.47-.201zM136.501 259.703q0 .593-.182.892-.176.3-.592.43.41.117.592.423.182.3.182.886v2.597q0 .521.306.756.306.234 1.029.234v.892h-.378q-1.015 0-1.458-.371-.443-.365-.443-1.218v-2.942q0-.41-.156-.606-.15-.195-.488-.195h-.345v-.918h.345q.332 0 .488-.189.156-.189.156-.599v-2.962q0-.853.443-1.218.45-.37 1.458-.37h.378v.898q-.71 0-1.022.24-.313.235-.313.756z"/></g><g aria-label="&quot;helloworld&quot;: {" style="-inkscape-font-specification:Montserrat-Light" font-weight="300" font-size="10" font-family="Montserrat" fill="#666"><path d="M61.262 274.691v-3.027h.827v3.027zm1.745 0v-3.027h.827v3.027zM69.699 273.936q1.257 0 1.96.73.71.722.71 1.998V281h-1.042v-4.056q0-.931-.528-1.452-.527-.52-1.458-.52-1.107.012-1.738.722-.632.703-.632 1.855V281H65.93v-9.895h1.042v4.44q.69-1.588 2.728-1.608zM77.464 273.949q1.654 0 2.493 1.061.84 1.055.756 2.884h-5.73q.13 1.029.82 1.634.697.606 1.726.606.651 0 1.204-.228.554-.228.97-.651l.573.612q-.507.56-1.237.866-.722.306-1.588.306-1.029 0-1.823-.443-.794-.45-1.237-1.256-.436-.808-.436-1.85 0-1.041.442-1.842.45-.807 1.25-1.25.801-.449 1.817-.449zm2.318 3.092q-.052-1.015-.69-1.608-.632-.592-1.654-.592-1.003 0-1.673.599-.664.599-.782 1.601zM82.583 281v-9.896h1.041V281zM86.303 281v-9.896h1.041V281zM92.69 273.949q1.028 0 1.835.45.814.442 1.27 1.25.455.807.455 1.829 0 1.041-.455 1.849-.456.807-1.27 1.263-.807.449-1.836.449-1.028 0-1.842-.45-.814-.455-1.27-1.262-.449-.808-.449-1.85 0-1.028.45-1.829.455-.807 1.269-1.25.814-.449 1.842-.449zm0 .944q-.723 0-1.303.332t-.898.925q-.32.585-.32 1.34 0 .762.32 1.355.319.592.898.93.58.333 1.302.333.723 0 1.302-.332.58-.339.899-.931.319-.593.319-1.354 0-.762-.32-1.348-.318-.586-.904-.918-.58-.332-1.296-.332zM104.446 281l-2.064-5.71-2.05 5.71H99.25l-2.63-7.025h1.094l2.083 5.944 2.038-5.944h1.094l2.064 5.944 2.057-5.944h1.08L105.528 281zM111.89 273.949q1.028 0 1.835.45.814.442 1.27 1.25.455.807.455 1.829 0 1.041-.455 1.849-.456.807-1.27 1.263-.807.449-1.836.449-1.028 0-1.842-.45-.814-.455-1.27-1.262-.449-.808-.449-1.85 0-1.028.45-1.829.455-.807 1.269-1.25.814-.449 1.842-.449zm0 .944q-.723 0-1.303.332t-.898.925q-.32.585-.32 1.34 0 .762.32 1.355.319.592.898.93.58.333 1.302.333.723 0 1.302-.332.58-.339.899-.931.319-.593.319-1.354 0-.762-.32-1.348-.318-.586-.904-.918-.58-.332-1.296-.332zM118.326 275.531q.352-.768.99-1.172.638-.41 1.53-.423v1.048q-1.094-.013-1.758.612-.664.619-.762 1.673V281h-1.035v-7.024h1.035zM122.29 281v-9.896h1.041V281zM132.276 281h-1.041v-1.504q-.398.749-1.1 1.152-.697.404-1.635.404-.99 0-1.764-.45-.768-.455-1.198-1.269-.423-.814-.423-1.855 0-1.042.423-1.843.43-.807 1.198-1.256.768-.456 1.751-.456.931 0 1.647.404.716.403 1.1 1.165v-4.388h1.042zm-3.574-.88q.736 0 1.309-.331.573-.339.898-.938.326-.599.326-1.347 0-.762-.326-1.361-.325-.599-.898-.937-.573-.339-1.309-.339t-1.315.339q-.58.338-.905.944-.326.598-.326 1.354 0 .748.326 1.347.325.6.905.938.58.332 1.315.332zM134.409 274.691v-3.027h.827v3.027zm1.745 0v-3.027h.827v3.027zM139.076 275.759q.267 0 .45.202.188.202.188.495 0 .292-.189.494-.182.196-.449.196-.28 0-.469-.196-.188-.202-.188-.494 0-.293.188-.495.19-.202.47-.202zm0 3.958q.267 0 .45.202.188.202.188.495t-.189.495q-.182.195-.449.195-.28 0-.469-.195-.188-.202-.188-.495t.188-.495q.19-.202.47-.202zM146.501 275.57q0 .593-.182.892-.176.3-.592.43.41.117.592.423.182.3.182.885v2.598q0 .52.306.755t1.029.235v.891h-.378q-1.015 0-1.458-.37-.443-.365-.443-1.218v-2.943q0-.41-.156-.605-.15-.196-.488-.196h-.345v-.918h.345q.332 0 .488-.188.156-.19.156-.6v-2.962q0-.852.443-1.217.45-.371 1.458-.371h.378v.898q-.71 0-1.022.241-.313.235-.313.755z"/></g><g aria-label="&quot;type&quot;: &quot;string&quot;" style="-inkscape-font-specification:Montserrat-Light" font-weight="300" font-size="10" font-family="Montserrat" fill="#666"><path d="M68.596 290.558v-3.027h.826v3.027zm1.744 0v-3.027h.827v3.027zM76.944 296.385q-.762.52-1.589.534-.813 0-1.302-.495-.488-.502-.488-1.504v-4.01h-1.009v-.84h1.01v-1.856h1.028v1.856l2.226-.02v.86h-2.226v3.821q0 .625.234.905.235.273.703.273.547 0 1.12-.364zM80.624 297.87q-.339.813-.872 1.223-.528.417-1.237.417-.84 0-1.478-.521l.436-.866q.469.332.99.332.41 0 .735-.254.332-.254.54-.736l.3-.65-2.91-6.973h1.094l2.33 5.8 2.227-5.8h1.068zM88.86 289.803q.99 0 1.751.455.768.45 1.191 1.263.43.814.43 1.85 0 1.028-.423 1.835-.417.808-1.179 1.257-.755.443-1.744.443-.931 0-1.634-.404-.697-.41-1.094-1.14v4.09h-1.042v-9.61h1.042v1.517q.384-.75 1.08-1.153.704-.403 1.622-.403zm-.183 6.159q.717 0 1.29-.333.572-.338.891-.937.326-.599.326-1.348 0-.748-.326-1.34-.319-.593-.892-.932-.572-.338-1.289-.338-.735 0-1.308.332-.573.332-.892.937-.32.6-.32 1.341 0 .762.32 1.354.319.593.892.931.573.333 1.308.333zM96.904 289.816q1.654 0 2.493 1.06.84 1.056.756 2.885h-5.73q.13 1.029.82 1.634.697.606 1.726.606.651 0 1.204-.228.554-.228.97-.651l.573.612q-.507.56-1.237.866-.722.306-1.588.306-1.029 0-1.823-.443-.794-.45-1.237-1.257-.436-.807-.436-1.849 0-1.041.442-1.842.45-.807 1.25-1.25.801-.45 1.817-.45zm2.318 3.092q-.052-1.016-.69-1.608-.632-.592-1.654-.592-1.003 0-1.673.599-.664.599-.782 1.601zM101.369 290.558v-3.027h.827v3.027zm1.745 0v-3.027h.827v3.027zM106.156 291.626q.267 0 .45.201.188.202.188.495t-.189.495q-.182.195-.449.195-.28 0-.469-.195-.188-.202-.188-.495t.188-.495q.19-.201.47-.201zm0 3.958q.267 0 .45.202.188.202.188.495 0 .292-.189.494-.182.196-.449.196-.28 0-.469-.196-.188-.202-.188-.494 0-.293.188-.495.19-.202.47-.202zM111.756 290.558v-3.027h.826v3.027zm1.744 0v-3.027h.827v3.027zM118.34 289.803q.631 0 1.217.169.586.163 1.022.469l-.397.826q-.41-.266-.918-.416-.508-.156-.99-.156-.624 0-1.009.234-.377.228-.377.697 0 .319.215.533.215.215.527.352.313.13.872.286.736.215 1.192.43.462.215.788.625.325.404.325 1.055 0 .99-.742 1.497-.736.502-1.83.502-.761 0-1.484-.26-.716-.261-1.21-.724l.403-.787q.443.41 1.074.65.632.242 1.257.242.664 0 1.08-.26.424-.261.424-.769t-.404-.749q-.404-.247-1.244-.488-.735-.228-1.171-.423-.43-.202-.75-.593-.312-.397-.312-1.028 0-.957.69-1.433.697-.481 1.752-.481zM126.104 296.385q-.762.52-1.589.534-.813 0-1.302-.495-.488-.502-.488-1.504v-4.01h-1.009v-.84h1.01v-1.856h1.028v1.856l2.226-.02v.86h-2.226v3.821q0 .625.234.905.235.273.703.273.547 0 1.12-.364zM128.7 291.398q.351-.769.99-1.172.637-.41 1.53-.423v1.048q-1.095-.013-1.759.612-.664.618-.761 1.673v3.73h-1.036v-7.024h1.036zM132.598 296.866v-7.024h1.022v7.024zm.501-9.759q.293 0 .488.209.196.201.196.507t-.196.515q-.195.208-.488.208t-.488-.202q-.19-.208-.19-.52 0-.307.19-.508.195-.209.488-.209zM139.82 289.803q1.257 0 1.96.729.71.722.71 1.999v4.335h-1.041v-4.056q0-.93-.528-1.451-.527-.521-1.458-.521-1.029.013-1.647.631-.619.612-.716 1.621v3.776h-1.036v-7.024h1.036v1.543q.722-1.563 2.72-1.582zM150.85 296.13q0 1.016-.442 1.772-.443.761-1.243 1.165-.795.41-1.85.41-1.562-.013-2.877-1.009l.475-.8q.534.442 1.107.657.573.221 1.257.234 1.145 0 1.836-.657.696-.651.696-1.745v-1.061q-.37.71-1.041 1.087-.665.377-1.543.377-.931 0-1.66-.43-.73-.435-1.14-1.21-.404-.775-.404-1.758 0-.977.398-1.732.403-.761 1.12-1.191.722-.436 1.653-.436.892 0 1.556.377.67.378 1.061 1.087v-1.425h1.042zm-3.443-.448q.696 0 1.243-.32.547-.325.853-.891.306-.567.306-1.27 0-.723-.306-1.289t-.853-.885q-.547-.32-1.243-.32-.69 0-1.237.32-.547.319-.86.885-.312.566-.312 1.29 0 .709.312 1.275.313.56.86.886.547.319 1.237.319zM152.782 290.558v-3.027h.827v3.027zm1.745 0v-3.027h.827v3.027z"/></g><g aria-label="}}}}," style="-inkscape-font-specification:Montserrat-Light" font-weight="300" font-size="10" font-family="Montserrat" fill="#666"><path d="M62.994 307.303q0 .593.176.892.182.3.599.43-.41.117-.593.423-.182.3-.182.886v2.597q0 .521-.306.756-.306.234-1.029.234v.892h.378q1.016 0 1.458-.371.443-.365.443-1.218v-2.942q0-.41.15-.606.156-.195.495-.195h.345v-.918h-.345q-.332 0-.489-.189-.156-.189-.156-.599v-2.962q0-.853-.45-1.218-.442-.37-1.45-.37h-.379v.898q.71 0 1.023.24.312.235.312.756zM67.78 307.303q0 .593.177.892.182.3.598.43-.41.117-.592.423-.182.3-.182.886v2.597q0 .521-.306.756-.306.234-1.029.234v.892h.378q1.015 0 1.458-.371.443-.365.443-1.218v-2.942q0-.41.15-.606.156-.195.494-.195h.345v-.918h-.345q-.332 0-.488-.189-.156-.189-.156-.599v-2.962q0-.853-.45-1.218-.442-.37-1.451-.37h-.378v.898q.71 0 1.022.24.313.235.313.756zM72.567 307.303q0 .593.176.892.182.3.6.43-.411.117-.593.423-.183.3-.183.886v2.597q0 .521-.306.756-.306.234-1.028.234v.892h.377q1.016 0 1.459-.371.442-.365.442-1.218v-2.942q0-.41.15-.606.156-.195.495-.195h.345v-.918h-.345q-.332 0-.488-.189-.157-.189-.157-.599v-2.962q0-.853-.449-1.218-.443-.37-1.452-.37h-.377v.898q.71 0 1.022.24.312.235.312.756zM77.354 307.303q0 .593.176.892.182.3.599.43-.41.117-.593.423-.182.3-.182.886v2.597q0 .521-.306.756-.306.234-1.029.234v.892h.378q1.016 0 1.458-.371.443-.365.443-1.218v-2.942q0-.41.15-.606.156-.195.495-.195h.345v-.918h-.345q-.332 0-.489-.189-.156-.189-.156-.599v-2.962q0-.853-.45-1.218-.442-.37-1.45-.37h-.379v.898q.71 0 1.023.24.312.235.312.756zM80.943 311.477q.267 0 .45.188.188.19.188.495 0 .267-.202.573l-.625.957h-.586l.443-.97q-.293-.176-.293-.573 0-.293.176-.482.182-.188.449-.188z"/></g><g aria-label="&quot;oneOf&quot;: [{&quot;required&quot;:" style="-inkscape-font-specification:Montserrat-Light" font-weight="300" font-size="10" font-family="Montserrat" fill="#666"><path d="M39.262 322.158v-3.027h.827v3.027zm1.745 0v-3.027h.827v3.027zM46.716 321.416q1.029 0 1.836.449.814.443 1.27 1.25.455.807.455 1.83 0 1.041-.456 1.848-.455.808-1.27 1.263-.806.45-1.835.45t-1.842-.45q-.814-.455-1.27-1.263-.45-.807-.45-1.849 0-1.028.45-1.83.456-.806 1.27-1.25.813-.448 1.842-.448zm0 .944q-.723 0-1.302.332-.58.332-.899.924-.319.586-.319 1.341 0 .762.32 1.355.318.592.898.93.58.333 1.302.333.723 0 1.302-.333.58-.338.898-.93.32-.593.32-1.355 0-.761-.32-1.347-.319-.586-.904-.918-.58-.332-1.296-.332zM55.754 321.403q1.257 0 1.96.729.71.722.71 1.999v4.335h-1.042v-4.056q0-.93-.528-1.451-.527-.521-1.458-.521-1.028.013-1.647.631-.618.612-.716 1.621v3.776h-1.035v-7.024h1.035v1.543q.723-1.563 2.721-1.582zM63.464 321.416q1.654 0 2.493 1.06.84 1.056.756 2.885h-5.73q.13 1.029.82 1.634.697.606 1.726.606.651 0 1.204-.228.554-.228.97-.651l.573.612q-.507.56-1.237.866-.722.306-1.588.306-1.029 0-1.823-.443-.794-.45-1.237-1.257-.436-.807-.436-1.849 0-1.041.442-1.842.45-.807 1.25-1.25.801-.45 1.817-.45zm2.318 3.092q-.052-1.016-.69-1.608-.632-.592-1.654-.592-1.003 0-1.673.599-.664.599-.782 1.601zM72.678 319.104q1.328 0 2.448.632 1.12.625 1.77 1.7.658 1.073.658 2.362 0 1.296-.657 2.377-.651 1.08-1.771 1.712-1.12.632-2.448.632-1.348 0-2.468-.632-1.12-.631-1.777-1.712-.65-1.08-.65-2.377 0-1.295.65-2.37.658-1.08 1.777-1.699 1.12-.625 2.468-.625zm0 1.016q-1.029 0-1.901.495-.873.495-1.393 1.335-.521.84-.521 1.848 0 1.016.52 1.862.521.847 1.394 1.342.872.488 1.9.488 1.03 0 1.889-.488.866-.495 1.38-1.342.514-.846.514-1.862 0-1.015-.514-1.848-.514-.84-1.38-1.335-.866-.495-1.888-.495zM81.658 319.495q-.527 0-.885.332-.352.332-.352.918v.905h2.012v.86h-2.012v5.956h-1.028v-5.957h-.905v-.859h.905v-.768q0-.736.312-1.276.32-.54.827-.814.514-.273 1.113-.273.88.026 1.51.494l-.429.84q-.508-.358-1.068-.358z"/><path d="M82.982 322.158v-3.027h.827v3.027zm1.745 0v-3.027h.827v3.027zM87.77 323.226q.266 0 .449.201.189.202.189.495t-.19.495q-.182.195-.449.195-.28 0-.468-.195-.19-.202-.19-.495t.19-.495q.189-.201.468-.201zm0 3.958q.266 0 .449.202.189.202.189.495 0 .292-.19.494-.182.196-.449.196-.28 0-.468-.196-.19-.202-.19-.494 0-.293.19-.495.189-.202.468-.202zM94.925 319.47v9.758h1.686v.892h-2.63v-11.55h2.63v.9zM99.595 323.037q0 .592-.183.892-.175.3-.592.43.41.117.592.423.183.299.183.885v2.598q0 .52.306.755.306.234 1.028.234v.892h-.377q-1.016 0-1.459-.37-.442-.366-.442-1.218v-2.943q0-.41-.157-.606-.15-.195-.488-.195h-.345v-.918h.345q.332 0 .488-.189.157-.188.157-.599v-2.962q0-.853.442-1.217.45-.371 1.459-.371h.377v.898q-.71 0-1.022.24-.312.235-.312.756zM102.022 322.158v-3.027h.827v3.027zm1.745 0v-3.027h.827v3.027zM107.66 322.998q.351-.769.99-1.172.637-.41 1.53-.423v1.048q-1.095-.013-1.759.612-.664.618-.761 1.673v3.73h-1.036v-7.024h1.036zM114.477 321.416q1.654 0 2.494 1.06.84 1.056.755 2.885h-5.73q.13 1.029.821 1.634.697.606 1.725.606.651 0 1.205-.228.553-.228.97-.651l.573.612q-.508.56-1.237.866-.723.306-1.589.306-1.028 0-1.823-.443-.794-.45-1.237-1.257-.436-.807-.436-1.849 0-1.041.443-1.842.449-.807 1.25-1.25.8-.45 1.816-.45zm2.318 3.092q-.052-1.016-.69-1.608-.632-.592-1.654-.592-1.002 0-1.673.599-.664.599-.781 1.601zM125.863 331.051h-1.042v-4.088q-.397.748-1.1 1.152-.697.404-1.634.404-.99 0-1.764-.45-.769-.455-1.198-1.27-.424-.813-.424-1.855 0-1.041.424-1.842.43-.807 1.198-1.257.768-.455 1.75-.455.932 0 1.648.403.716.404 1.1 1.166v-1.517h1.042zm-3.574-3.463q.735 0 1.308-.332.573-.339.899-.938.325-.599.325-1.348 0-.761-.325-1.36-.326-.6-.899-.938-.573-.338-1.308-.338-.736 0-1.315.338-.58.339-.905.944-.326.6-.326 1.354 0 .75.326 1.348.325.599.905.938.579.332 1.315.332zM134.552 328.466h-1.036v-1.588q-.677 1.601-2.669 1.628-1.224 0-1.927-.73-.696-.735-.696-2.005v-4.33h1.035v4.05q0 .931.52 1.452.521.52 1.426.52 1.081-.012 1.693-.722.618-.716.618-1.849v-3.45h1.036zM136.998 328.466v-7.024h1.022v7.024zm.501-9.759q.293 0 .488.209.196.201.196.507t-.196.515q-.195.208-.488.208t-.488-.202q-.19-.208-.19-.52 0-.307.19-.508.195-.209.488-.209zM141.62 322.998q.351-.769.99-1.172.637-.41 1.53-.423v1.048q-1.095-.013-1.759.612-.664.618-.761 1.673v3.73h-1.036v-7.024h1.036zM148.317 321.416q1.654 0 2.494 1.06.84 1.056.755 2.885h-5.73q.13 1.029.821 1.634.697.606 1.725.606.651 0 1.205-.228.553-.228.97-.651l.573.612q-.508.56-1.237.866-.723.306-1.589.306-1.028 0-1.823-.443-.794-.45-1.237-1.257-.436-.807-.436-1.849 0-1.041.443-1.842.449-.807 1.25-1.25.8-.45 1.816-.45zm2.318 3.092q-.052-1.016-.69-1.608-.632-.592-1.654-.592-1.002 0-1.673.599-.664.599-.781 1.601zM159.823 328.466h-1.042v-1.503q-.397.748-1.1 1.152-.697.404-1.634.404-.99 0-1.764-.45-.769-.455-1.198-1.27-.424-.813-.424-1.855 0-1.041.424-1.842.43-.807 1.198-1.257.768-.455 1.75-.455.932 0 1.648.403.716.404 1.1 1.166v-4.388h1.042zm-3.574-.878q.735 0 1.308-.332.573-.339.899-.938.325-.599.325-1.348 0-.761-.325-1.36-.326-.6-.899-.938-.573-.338-1.308-.338-.736 0-1.315.338-.58.339-.905.944-.326.6-.326 1.354 0 .75.326 1.348.325.599.905.938.579.332 1.315.332zM161.836 322.158v-3.027h.826v3.027zm1.744 0v-3.027h.827v3.027zM166.503 323.226q.267 0 .449.201.189.202.189.495t-.189.495q-.182.195-.45.195-.28 0-.468-.195-.189-.202-.189-.495t.19-.495q.188-.201.468-.201zm0 3.958q.267 0 .449.202.189.202.189.495 0 .292-.189.494-.182.196-.45.196-.28 0-.468-.196-.189-.202-.189-.494 0-.293.19-.495.188-.202.468-.202z"/></g><g aria-label="[&quot;someobject&quot;]}]," style="-inkscape-font-specification:Montserrat-Light" font-weight="300" font-size="10" font-family="Montserrat" fill="#666"><path d="M33.352 335.336v9.759h1.686v.892h-2.63v-11.55h2.63v.899zM36.316 338.025v-3.028h.826v3.028zm1.744 0v-3.028h.827v3.028zM42.78 337.27q.631 0 1.217.169.586.162 1.022.468l-.397.827q-.41-.267-.918-.417-.508-.156-.99-.156-.624 0-1.009.235-.377.227-.377.696 0 .32.215.534.215.215.527.352.313.13.872.286.736.215 1.192.43.462.215.788.625.325.403.325 1.054 0 .99-.742 1.498-.736.501-1.83.501-.761 0-1.484-.26-.716-.26-1.21-.723l.403-.788q.443.41 1.074.651.632.241 1.257.241.664 0 1.08-.26.424-.26.424-.768t-.404-.75q-.404-.246-1.244-.487-.735-.228-1.172-.424-.43-.201-.748-.592-.313-.397-.313-1.029 0-.957.69-1.432.697-.482 1.752-.482zM49.89 337.282q1.028 0 1.835.45.814.442 1.27 1.25.455.807.455 1.829 0 1.042-.455 1.849-.456.807-1.27 1.263-.807.45-1.836.45-1.028 0-1.842-.45-.814-.456-1.27-1.263-.449-.807-.449-1.849 0-1.029.45-1.83.455-.807 1.269-1.25.814-.449 1.842-.449zm0 .944q-.723 0-1.303.332t-.898.925q-.32.586-.32 1.341 0 .762.32 1.354.319.593.898.931.58.332 1.302.332.723 0 1.302-.332.58-.338.899-.93.319-.593.319-1.355t-.32-1.348q-.318-.586-.904-.918-.58-.332-1.296-.332zM64.168 337.27q1.224 0 1.915.728.696.723.696 2v4.335h-1.035v-4.056q0-.93-.52-1.458-.522-.528-1.427-.528-1.08.026-1.692.736-.606.703-.606 1.856v3.45h-1.048v-4.056q0-.93-.514-1.458-.515-.528-1.433-.528-1.067.026-1.692.736-.619.703-.619 1.856v3.45h-1.022v-7.025h1.022v1.582q.345-.8 1.022-1.204.684-.404 1.66-.417.99 0 1.641.482.651.475.879 1.354.319-.918 1.029-1.367.716-.456 1.744-.469zM71.837 337.282q1.654 0 2.494 1.062.84 1.054.755 2.884h-5.73q.131 1.028.821 1.634.697.605 1.725.605.651 0 1.205-.228.553-.227.97-.65l.573.611q-.508.56-1.237.866-.723.306-1.589.306-1.028 0-1.823-.443-.794-.449-1.237-1.256-.436-.807-.436-1.849 0-1.042.443-1.842.449-.808 1.25-1.25.8-.45 1.816-.45zm2.318 3.093q-.052-1.016-.69-1.608-.632-.593-1.654-.593-1.002 0-1.673.6-.664.598-.781 1.6zM79.743 337.282q1.028 0 1.836.45.813.442 1.27 1.25.455.807.455 1.829 0 1.042-.456 1.849-.456.807-1.27 1.263-.807.45-1.835.45-1.029 0-1.843-.45-.814-.456-1.27-1.263-.449-.807-.449-1.849 0-1.029.45-1.83.455-.807 1.27-1.25.813-.449 1.842-.449zm0 .944q-.723 0-1.302.332-.58.332-.899.925-.319.586-.319 1.341 0 .762.32 1.354.318.593.898.931.579.332 1.302.332.722 0 1.302-.332.58-.338.898-.93.32-.593.32-1.355t-.32-1.348q-.319-.586-.905-.918-.58-.332-1.295-.332zM88.833 337.27q.99 0 1.751.455.769.45 1.192 1.263.43.814.43 1.849 0 1.029-.424 1.836-.416.807-1.178 1.256-.755.443-1.745.443-.931 0-1.634-.403-.697-.41-1.094-1.14v1.504H85.09v-9.896h1.042v4.388q.384-.748 1.08-1.152.704-.404 1.622-.404zm-.182 6.158q.716 0 1.289-.332.573-.338.892-.937.325-.6.325-1.348 0-.749-.325-1.341-.32-.593-.892-.931-.573-.339-1.29-.339-.735 0-1.308.332-.573.332-.892.938-.319.599-.319 1.341 0 .762.32 1.354.318.593.891.931.573.332 1.309.332zM94.553 334.561q.306 0 .508.215.202.208.202.514 0 .306-.202.521-.202.215-.508.215-.293 0-.501-.209-.202-.214-.202-.527 0-.306.202-.514.208-.215.501-.215zm.52 10.04q0 1.145-.56 1.75-.559.606-1.425.606-.8 0-1.452-.475l.371-.853q.495.358 1.016.358.482 0 .742-.313.267-.312.267-.944v-7.422h1.042zM100.344 337.282q1.654 0 2.493 1.062.84 1.054.756 2.884h-5.73q.13 1.028.82 1.634.697.605 1.726.605.651 0 1.204-.228.554-.227.97-.65l.573.611q-.507.56-1.237.866-.722.306-1.588.306-1.029 0-1.823-.443-.794-.449-1.237-1.256-.436-.807-.436-1.849 0-1.042.442-1.842.45-.808 1.25-1.25.801-.45 1.817-.45zm2.318 3.093q-.052-1.016-.69-1.608-.632-.593-1.654-.593-1.003 0-1.673.6-.664.598-.782 1.6zM108.223 337.282q.814 0 1.491.274.684.273 1.159.761l-.573.736q-.853-.814-2.09-.814-.722 0-1.289.326-.566.325-.885.918-.32.586-.32 1.341 0 .762.32 1.348.319.586.885.924.567.332 1.29.332.69 0 1.243-.234.553-.235.93-.677l.6.644q-.482.573-1.205.892-.716.32-1.608.32-1.015 0-1.803-.444-.788-.449-1.237-1.256-.443-.807-.443-1.849 0-1.042.45-1.842.455-.808 1.262-1.25.808-.45 1.823-.45zM116.49 343.851q-.761.521-1.588.534-.814 0-1.302-.495-.488-.5-.488-1.503v-4.01h-1.01v-.84h1.01v-1.856h1.028v1.855l2.227-.02v.86h-2.227v3.822q0 .625.235.905.234.273.703.273.547 0 1.12-.364zM117.582 338.025v-3.028h.827v3.028zm1.745 0v-3.028h.827v3.028zM124.046 335.336v9.759h-1.686v.892h2.63v-11.55h-2.63v.899zM128.914 338.903q0 .593.176.892.182.3.599.43-.41.117-.593.423-.182.3-.182.886v2.597q0 .521-.306.756-.306.234-1.029.234v.892h.378q1.016 0 1.458-.371.443-.365.443-1.218v-2.942q0-.41.15-.606.156-.195.495-.195h.345v-.918h-.345q-.332 0-.489-.189-.156-.189-.156-.599v-2.962q0-.853-.45-1.218-.442-.37-1.45-.37h-.379v.898q.71 0 1.023.24.312.235.312.756zM134.3 335.336v9.759h-1.686v.892h2.63v-11.55h-2.63v.899zM137.836 343.077q.267 0 .45.188.188.19.188.495 0 .267-.202.573l-.625.957h-.586l.443-.97q-.293-.176-.293-.573 0-.293.176-.482.182-.188.45-.188z"/></g><g aria-label="&quot;additionalProperties&quot;: false" style="-inkscape-font-specification:Montserrat-Light" font-weight="300" font-size="10" font-family="Montserrat" fill="#666"><path d="M39.262 353.891v-3.027h.827v3.027zm1.745 0v-3.027h.827v3.027zM48.22 359.12q-.84 1.132-2.572 1.132-.71 0-1.256-.28-.54-.28-.84-.768-.293-.495-.293-1.1 0-.919.69-1.459.697-.54 1.94-.553h2.305v-.41q0-.788-.482-1.211-.475-.43-1.4-.43-1.067 0-2.226.8l-.436-.761q.748-.495 1.38-.716.631-.228 1.484-.228 1.296 0 1.992.638.703.638.716 1.784l.013 4.642H48.22zm-2.37.227q.892 0 1.524-.417.631-.423.833-1.159v-.84h-2.188q-1.784 0-1.784 1.133 0 .586.437.938.442.345 1.178.345zM57.916 360.2h-1.041v-1.504q-.398.749-1.1 1.152-.697.404-1.635.404-.99 0-1.764-.45-.768-.455-1.198-1.269-.423-.814-.423-1.855 0-1.042.423-1.843.43-.807 1.198-1.256.768-.456 1.751-.456.931 0 1.647.404.716.403 1.1 1.165v-4.388h1.042zm-3.574-.88q.736 0 1.309-.331.573-.339.898-.938.326-.599.326-1.347 0-.762-.326-1.361-.325-.599-.898-.937-.573-.339-1.309-.339t-1.315.339q-.58.338-.905.944-.326.598-.326 1.354 0 .748.326 1.347.325.6.905.938.58.332 1.315.332zM66.97 360.2h-1.042v-1.504q-.397.749-1.1 1.152-.697.404-1.634.404-.99 0-1.765-.45-.768-.455-1.198-1.269-.423-.814-.423-1.855 0-1.042.423-1.843.43-.807 1.198-1.256.768-.456 1.751-.456.931 0 1.648.404.716.403 1.1 1.165v-4.388h1.042zm-3.575-.88q.736 0 1.309-.331.573-.339.898-.938.326-.599.326-1.347 0-.762-.326-1.361-.325-.599-.898-.937-.573-.339-1.309-.339-.735 0-1.315.339-.58.338-.905.944-.325.598-.325 1.354 0 .748.325 1.347.326.6.905.938.58.332 1.315.332zM69.451 360.2v-7.025h1.022v7.025zm.501-9.76q.293 0 .489.209.195.202.195.508t-.195.514q-.196.208-.489.208t-.488-.201q-.189-.209-.189-.521 0-.306.19-.508.194-.208.487-.208zM76.544 359.718q-.762.52-1.589.534-.813 0-1.302-.495-.488-.501-.488-1.504v-4.01h-1.009v-.84h1.01v-1.856h1.028v1.856l2.226-.02v.86h-2.226v3.821q0 .625.234.905.235.274.703.274.547 0 1.12-.365zM78.104 360.2v-7.025h1.023v7.025zm.502-9.76q.293 0 .488.209.195.202.195.508t-.195.514q-.195.208-.488.208t-.489-.201q-.188-.209-.188-.521 0-.306.188-.508.196-.208.489-.208zM84.423 353.149q1.028 0 1.836.45.813.442 1.27 1.25.455.807.455 1.829 0 1.041-.456 1.849-.456.807-1.27 1.263-.807.449-1.835.449-1.029 0-1.843-.45-.814-.455-1.27-1.262-.449-.808-.449-1.85 0-1.028.45-1.829.455-.807 1.27-1.25.813-.449 1.842-.449zm0 .944q-.723 0-1.302.332-.58.332-.899.925-.319.585-.319 1.34 0 .762.32 1.355.318.592.898.93.579.333 1.302.333.722 0 1.302-.332.58-.339.898-.931.32-.593.32-1.354 0-.762-.32-1.348-.319-.586-.905-.918-.58-.332-1.295-.332zM93.46 353.136q1.257 0 1.96.73.71.722.71 1.998v4.336H95.09v-4.056q0-.931-.528-1.452-.527-.52-1.458-.52-1.029.012-1.647.63-.619.613-.716 1.622v3.776h-1.036v-7.025h1.036v1.543q.722-1.562 2.72-1.582zM102.727 359.12q-.84 1.132-2.572 1.132-.71 0-1.257-.28-.54-.28-.84-.768-.292-.495-.292-1.1 0-.919.69-1.459.696-.54 1.94-.553h2.304v-.41q0-.788-.481-1.211-.476-.43-1.4-.43-1.068 0-2.227.8l-.436-.761q.749-.495 1.38-.716.632-.228 1.485-.228 1.295 0 1.992.638.703.638.716 1.784l.013 4.642h-1.015zm-2.37.227q.892 0 1.523-.417.632-.423.834-1.159v-.84h-2.188q-1.784 0-1.784 1.133 0 .586.436.938.443.345 1.179.345zM106.156 360.2v-9.896h1.042v9.896zM113.343 350.864q1.732 0 2.683.82.957.82.957 2.318 0 1.55-.957 2.402-.95.847-2.683.847h-2.441v2.949h-1.068v-9.336zm-2.441 5.364h2.402q1.283 0 1.966-.56.684-.56.684-1.64 0-1.055-.69-1.595-.684-.54-1.96-.54h-2.402zM119.646 354.731q.352-.768.99-1.172.638-.41 1.53-.423v1.048q-1.094-.013-1.758.612-.664.619-.762 1.673v3.73h-1.035v-7.024h1.035zM126.516 353.149q1.029 0 1.836.45.814.442 1.27 1.25.455.807.455 1.829 0 1.041-.456 1.849-.455.807-1.27 1.263-.806.449-1.835.449t-1.842-.45q-.814-.455-1.27-1.262-.45-.808-.45-1.85 0-1.028.45-1.829.456-.807 1.27-1.25.813-.449 1.842-.449zm0 .944q-.723 0-1.302.332-.58.332-.899.925-.319.585-.319 1.34 0 .762.32 1.355.318.592.898.93.58.333 1.302.333.723 0 1.302-.332.58-.339.898-.931.32-.593.32-1.354 0-.762-.32-1.348-.319-.586-.904-.918-.58-.332-1.296-.332zM135.606 353.136q.99 0 1.752.456.768.449 1.191 1.263.43.814.43 1.849 0 1.028-.423 1.836-.417.807-1.179 1.256-.755.443-1.745.443-.93 0-1.634-.404-.696-.41-1.093-1.14v4.09h-1.042v-9.61h1.042v1.517q.384-.749 1.08-1.152.703-.404 1.621-.404zm-.182 6.159q.716 0 1.29-.332.572-.339.891-.938.326-.599.326-1.347 0-.749-.326-1.341-.319-.593-.892-.931-.573-.339-1.289-.339-.736 0-1.309.332-.572.332-.891.938-.32.598-.32 1.34 0 .762.32 1.355.319.592.891.93.573.333 1.309.333zM143.53 353.149q1.654 0 2.494 1.061.84 1.055.755 2.884h-5.729q.13 1.029.82 1.634.697.606 1.726.606.65 0 1.204-.228.553-.228.97-.651l.573.612q-.508.56-1.237.866-.723.306-1.588.306-1.03 0-1.823-.443-.795-.45-1.237-1.256-.437-.808-.437-1.85 0-1.041.443-1.842.45-.807 1.25-1.25.8-.449 1.817-.449zm2.318 3.092q-.052-1.015-.69-1.608-.631-.592-1.654-.592-1.002 0-1.673.599-.664.599-.78 1.601zM149.62 354.731q.351-.768.99-1.172.637-.41 1.53-.423v1.048q-1.095-.013-1.759.612-.664.619-.761 1.673v3.73h-1.036v-7.024h1.036zM157.144 359.718q-.762.52-1.589.534-.813 0-1.302-.495-.488-.501-.488-1.504v-4.01h-1.009v-.84h1.01v-1.856h1.028v1.856l2.226-.02v.86h-2.226v3.821q0 .625.234.905.235.274.703.274.547 0 1.12-.365zM158.704 360.2v-7.025h1.023v7.025zm.502-9.76q.293 0 .488.209.195.202.195.508t-.195.514q-.195.208-.488.208t-.489-.201q-.188-.209-.188-.521 0-.306.188-.508.196-.208.489-.208zM164.97 353.149q1.654 0 2.494 1.061.84 1.055.755 2.884h-5.729q.13 1.029.82 1.634.697.606 1.726.606.65 0 1.204-.228.553-.228.97-.651l.573.612q-.508.56-1.237.866-.723.306-1.588.306-1.03 0-1.823-.443-.795-.45-1.237-1.256-.437-.808-.437-1.85 0-1.041.443-1.842.45-.807 1.25-1.25.8-.449 1.817-.449zm2.318 3.092q-.052-1.015-.69-1.608-.631-.592-1.654-.592-1.002 0-1.673.599-.664.599-.78 1.601zM171.886 353.136q.632 0 1.218.17.586.162 1.022.468l-.397.827q-.41-.267-.918-.417-.508-.156-.99-.156-.625 0-1.009.234-.377.228-.377.697 0 .319.214.534.215.215.528.351.312.13.872.287.736.215 1.192.43.462.214.787.624.326.404.326 1.055 0 .99-.742 1.498-.736.5-1.83.5-.762 0-1.484-.26-.716-.26-1.211-.722l.404-.788q.442.41 1.074.651.631.24 1.256.24.664 0 1.081-.26.423-.26.423-.768t-.403-.748q-.404-.248-1.244-.489-.736-.228-1.172-.423-.43-.202-.749-.592-.312-.397-.312-1.029 0-.957.69-1.432.697-.482 1.751-.482zM175.556 353.891v-3.027h.826v3.027zm1.744 0v-3.027h.827v3.027zM180.223 354.959q.267 0 .449.202.189.202.189.495 0 .292-.189.494-.182.196-.45.196-.28 0-.468-.196-.189-.202-.189-.494 0-.293.19-.495.188-.202.468-.202zm0 3.958q.267 0 .449.202.189.202.189.495t-.189.495q-.182.195-.45.195-.28 0-.468-.195-.189-.202-.189-.495t.19-.495q.188-.202.468-.202zM188.885 351.228q-.527 0-.885.332-.352.332-.352.918v.905h2.012v.86h-2.012v5.957h-1.029v-5.957h-.905v-.86h.905v-.768q0-.736.313-1.276.319-.54.827-.814.514-.273 1.113-.273.879.026 1.51.495l-.43.84q-.507-.359-1.067-.359zM194.633 359.12q-.84 1.132-2.571 1.132-.71 0-1.257-.28-.54-.28-.84-.768-.293-.495-.293-1.1 0-.919.69-1.459.697-.54 1.94-.553h2.305v-.41q0-.788-.482-1.211-.475-.43-1.4-.43-1.067 0-2.226.8l-.436-.761q.749-.495 1.38-.716.632-.228 1.484-.228 1.296 0 1.993.638.703.638.716 1.784l.013 4.642h-1.016zm-2.37.227q.892 0 1.524-.417.631-.423.833-1.159v-.84h-2.187q-1.784 0-1.784 1.133 0 .586.436.938.443.345 1.178.345zM198.063 360.2v-9.896h1.041v9.896zM203.46 353.136q.631 0 1.217.17.586.162 1.022.468l-.397.827q-.41-.267-.918-.417-.508-.156-.99-.156-.624 0-1.009.234-.377.228-.377.697 0 .319.215.534.215.215.527.351.313.13.872.287.736.215 1.192.43.462.214.788.624.325.404.325 1.055 0 .99-.742 1.498-.736.5-1.83.5-.761 0-1.484-.26-.716-.26-1.21-.722l.403-.788q.443.41 1.074.651.632.24 1.257.24.664 0 1.08-.26.424-.26.424-.768t-.404-.748q-.404-.248-1.244-.489-.735-.228-1.171-.423-.43-.202-.75-.592-.312-.397-.312-1.029 0-.957.69-1.432.697-.482 1.752-.482zM210.517 353.149q1.654 0 2.494 1.061.84 1.055.755 2.884h-5.73q.131 1.029.821 1.634.697.606 1.725.606.651 0 1.205-.228.553-.228.97-.651l.573.612q-.508.56-1.237.866-.723.306-1.589.306-1.028 0-1.823-.443-.794-.45-1.237-1.256-.436-.808-.436-1.85 0-1.041.443-1.842.449-.807 1.25-1.25.8-.449 1.816-.449zm2.318 3.092q-.052-1.015-.69-1.608-.632-.592-1.654-.592-1.002 0-1.673.599-.664.599-.781 1.601z"/></g><g style="-inkscape-font-specification:Montserrat-Light"><path d="M33.527 370.637q0 .592.176.892.182.3.6.43-.411.117-.593.423-.183.299-.183.885v2.598q0 .52-.306.755-.306.234-1.028.234v.892h.377q1.016 0 1.459-.371.442-.365.442-1.217v-2.943q0-.41.15-.606.156-.195.495-.195h.345v-.918h-.345q-.332 0-.488-.189-.157-.188-.157-.599v-2.962q0-.853-.449-1.217-.442-.371-1.452-.371h-.377v.898q.71 0 1.022.24.312.235.312.756z" aria-label="}" font-weight="300" font-size="10" font-family="Montserrat" fill="#666"/></g><path d="M377.795 383h-110.4V47h220.8v336z" fill="#ddd" fill-rule="evenodd"/><path d="M377.795 383h-110.4V47h220.8v336z" fill="none" stroke="#eee" stroke-width="3.0559923599999994" stroke-linejoin="round" stroke-miterlimit="10"/><g aria-label="Code" style="-inkscape-font-specification:Montserrat-Light" font-weight="300" font-size="36" font-family="Montserrat"><path d="M335.625 67.963q3.421 0 6.632 1.313 3.211 1.289 5.672 3.586l-2.32 2.93q-1.969-1.97-4.594-3.094-2.601-1.125-5.344-1.125-3.75 0-6.89 1.781-3.14 1.758-4.969 4.805-1.805 3.023-1.805 6.656 0 3.61 1.805 6.656 1.828 3.047 4.969 4.828 3.164 1.758 6.89 1.758 2.743 0 5.32-1.055 2.602-1.054 4.618-2.976l2.367 2.648q-2.555 2.39-5.812 3.797-3.258 1.383-6.68 1.383-4.758 0-8.742-2.273-3.961-2.274-6.305-6.188-2.32-3.914-2.32-8.578 0-4.617 2.343-8.461 2.368-3.867 6.375-6.117 4.008-2.274 8.79-2.274zM363.815 76.284q3.703 0 6.61 1.617 2.929 1.594 4.57 4.5 1.64 2.906 1.64 6.586 0 3.75-1.64 6.656-1.641 2.906-4.57 4.547-2.907 1.617-6.61 1.617-3.703 0-6.633-1.617-2.93-1.64-4.57-4.547-1.618-2.906-1.618-6.656 0-3.703 1.618-6.586 1.64-2.906 4.57-4.5 2.93-1.617 6.633-1.617zm0 3.398q-2.602 0-4.688 1.195-2.086 1.196-3.234 3.329-1.149 2.109-1.149 4.828 0 2.742 1.149 4.875 1.148 2.132 3.234 3.351 2.086 1.196 4.688 1.196 2.601 0 4.687-1.196 2.086-1.219 3.235-3.351 1.148-2.133 1.148-4.875 0-2.743-1.148-4.852-1.149-2.11-3.258-3.305-2.086-1.195-4.664-1.195zM406.392 101.666h-3.75v-5.414q-1.43 2.696-3.961 4.149-2.508 1.453-5.883 1.453-3.563 0-6.352-1.617-2.765-1.64-4.312-4.57-1.524-2.93-1.524-6.68 0-3.75 1.524-6.633 1.547-2.906 4.312-4.523 2.766-1.641 6.305-1.641 3.352 0 5.93 1.453t3.96 4.195V66.041h3.75zm-12.867-3.164q2.648 0 4.71-1.195 2.063-1.219 3.235-3.375 1.172-2.156 1.172-4.851 0-2.743-1.172-4.899t-3.235-3.375q-2.062-1.219-4.71-1.219-2.649 0-4.735 1.22-2.086 1.218-3.258 3.398-1.172 2.156-1.172 4.875 0 2.695 1.172 4.851t3.258 3.375q2.086 1.195 4.735 1.195zM425.883 76.284q5.953 0 8.977 3.82 3.023 3.797 2.719 10.383h-20.625q.468 3.703 2.953 5.883 2.508 2.18 6.21 2.18 2.344 0 4.337-.821 1.992-.82 3.492-2.344l2.062 2.203q-1.828 2.016-4.453 3.118-2.601 1.101-5.719 1.101-3.703 0-6.562-1.594-2.86-1.617-4.453-4.523-1.57-2.906-1.57-6.656 0-3.75 1.593-6.633 1.617-2.906 4.5-4.5 2.883-1.617 6.54-1.617zm8.344 11.132q-.187-3.656-2.484-5.789-2.274-2.132-5.953-2.132-3.61 0-6.024 2.156-2.39 2.156-2.812 5.765z"/></g><g aria-label="class HelloWorld extends" style="-inkscape-font-specification:Montserrat-Light" font-weight="300" font-size="10" font-family="Montserrat" fill="#666"><path d="M280.957 133.016q.813 0 1.49.273.684.274 1.16.762l-.574.736q-.852-.814-2.09-.814-.722 0-1.289.325-.566.326-.885.918-.319.586-.319 1.341 0 .762.32 1.348.318.586.884.924.567.333 1.29.333.69 0 1.243-.235.553-.234.931-.677l.599.645q-.482.573-1.204.892-.717.319-1.609.319-1.015 0-1.803-.443-.788-.45-1.237-1.257-.443-.807-.443-1.849 0-1.041.45-1.842.455-.807 1.263-1.25.807-.45 1.823-.45zM285.663 140.066v-9.895h1.041v9.895zM293.673 138.986q-.84 1.133-2.571 1.133-.71 0-1.257-.28-.54-.28-.84-.769-.293-.494-.293-1.1 0-.918.69-1.458.697-.54 1.94-.554h2.305v-.41q0-.788-.482-1.21-.475-.43-1.4-.43-1.067 0-2.226.8l-.436-.761q.749-.495 1.38-.716.632-.228 1.484-.228 1.296 0 1.993.638.703.638.716 1.784l.013 4.641h-1.016zm-2.37.228q.892 0 1.524-.417.631-.423.833-1.159v-.84h-2.187q-1.784 0-1.784 1.133 0 .586.436.938.443.345 1.178.345zM298.9 133.003q.631 0 1.217.169.586.163 1.022.469l-.397.827q-.41-.267-.918-.417-.508-.156-.99-.156-.624 0-1.009.234-.377.228-.377.697 0 .319.215.533.215.215.527.352.313.13.872.286.736.215 1.192.43.462.215.788.625.325.404.325 1.055 0 .99-.742 1.497-.736.502-1.83.502-.761 0-1.484-.26-.716-.261-1.21-.724l.403-.787q.443.41 1.074.65.632.242 1.257.242.664 0 1.08-.26.424-.261.424-.769t-.404-.749q-.404-.247-1.244-.488-.735-.228-1.172-.423-.43-.202-.748-.593-.313-.397-.313-1.028 0-.957.69-1.433.697-.481 1.752-.481zM304.9 133.003q.631 0 1.217.169.586.163 1.022.469l-.397.827q-.41-.267-.918-.417-.508-.156-.99-.156-.624 0-1.009.234-.377.228-.377.697 0 .319.215.533.215.215.527.352.313.13.872.286.736.215 1.192.43.462.215.788.625.325.404.325 1.055 0 .99-.742 1.497-.736.502-1.83.502-.761 0-1.484-.26-.716-.261-1.21-.724l.403-.787q.443.41 1.074.65.632.242 1.257.242.664 0 1.08-.26.424-.261.424-.769t-.404-.749q-.404-.247-1.244-.488-.735-.228-1.172-.423-.43-.202-.748-.593-.313-.397-.313-1.028 0-.957.69-1.433.697-.481 1.752-.481zM319.594 140.066v-4.108h-5.625v4.108H312.9v-9.335h1.068v4.218h5.625v-4.218h1.067v9.335zM326.21 133.016q1.654 0 2.494 1.06.84 1.056.755 2.885h-5.729q.13 1.029.82 1.634.697.606 1.726.606.65 0 1.204-.228.553-.228.97-.651l.573.612q-.508.56-1.237.866-.723.306-1.588.306-1.03 0-1.823-.443-.795-.45-1.237-1.257-.437-.807-.437-1.849 0-1.041.443-1.842.45-.807 1.25-1.25.8-.45 1.817-.45zm2.318 3.092q-.052-1.015-.69-1.608-.631-.592-1.654-.592-1.002 0-1.673.599-.664.599-.78 1.601zM331.21 140.066v-9.895h1.041v9.895zM334.93 140.066v-9.895h1.041v9.895zM341.436 133.016q1.029 0 1.836.449.814.443 1.27 1.25.455.807.455 1.83 0 1.041-.456 1.848-.455.808-1.27 1.263-.806.45-1.835.45t-1.842-.45q-.814-.455-1.27-1.263-.45-.807-.45-1.849 0-1.028.45-1.83.456-.806 1.27-1.25.813-.448 1.842-.448zm0 .944q-.723 0-1.302.332-.58.332-.899.924-.319.586-.319 1.341 0 .762.32 1.355.318.592.898.93.58.333 1.302.333.723 0 1.302-.332.58-.339.898-.931.32-.593.32-1.355 0-.761-.32-1.347-.319-.586-.904-.918-.58-.332-1.296-.332zM354.144 140.066l-2.52-7.864-2.552 7.864h-1.087l-3.125-9.335h1.145l2.566 8.098 2.532-8.085 1.068-.013 2.558 8.098 2.533-8.098h1.107l-3.132 9.335zM361.703 133.016q1.028 0 1.836.449.813.443 1.27 1.25.455.807.455 1.83 0 1.041-.456 1.848-.456.808-1.27 1.263-.807.45-1.835.45-1.029 0-1.843-.45-.814-.455-1.27-1.263-.449-.807-.449-1.849 0-1.028.45-1.83.455-.806 1.27-1.25.813-.448 1.842-.448zm0 .944q-.723 0-1.302.332-.58.332-.899.924-.319.586-.319 1.341 0 .762.32 1.355.318.592.898.93.579.333 1.302.333.722 0 1.302-.332.58-.339.898-.931.32-.593.32-1.355 0-.761-.32-1.347-.319-.586-.905-.918-.58-.332-1.295-.332zM368.02 134.598q.351-.769.99-1.172.637-.41 1.53-.423v1.048q-1.095-.013-1.759.612-.664.618-.761 1.673v3.73h-1.036v-7.024h1.036zM371.983 140.066v-9.895h1.041v9.895zM382.09 140.066h-1.042v-1.503q-.397.748-1.1 1.152-.697.404-1.635.404-.99 0-1.764-.45-.768-.455-1.198-1.27-.423-.813-.423-1.855 0-1.041.423-1.842.43-.807 1.198-1.257.768-.455 1.751-.455.931 0 1.648.403.716.404 1.1 1.166v-4.388h1.042zm-3.575-.878q.736 0 1.309-.332.573-.339.898-.938.326-.599.326-1.348 0-.761-.326-1.36-.325-.6-.898-.938-.573-.338-1.309-.338-.735 0-1.315.338-.58.339-.905.944-.325.6-.325 1.354 0 .75.325 1.348.326.599.905.938.58.332 1.315.332zM391.09 133.016q1.654 0 2.494 1.06.84 1.056.755 2.885h-5.729q.13 1.029.82 1.634.697.606 1.726.606.65 0 1.204-.228.553-.228.97-.651l.573.612q-.508.56-1.237.866-.723.306-1.588.306-1.03 0-1.823-.443-.795-.45-1.237-1.257-.437-.807-.437-1.849 0-1.041.443-1.842.45-.807 1.25-1.25.8-.45 1.817-.45zm2.318 3.092q-.052-1.015-.69-1.608-.631-.592-1.654-.592-1.002 0-1.673.599-.664.599-.78 1.601zM399.765 133.042h1.152l-2.35 3.411 2.52 3.613h-1.211l-1.999-2.864-2.07 2.864h-1.172l2.558-3.613-2.382-3.411h1.198l1.868 2.662zM406.304 139.585q-.762.52-1.589.534-.813 0-1.302-.495-.488-.502-.488-1.504v-4.01h-1.009v-.84h1.01v-1.856h1.028v1.856l2.226-.02v.86h-2.226v3.821q0 .625.234.905.235.273.703.273.547 0 1.12-.364zM410.544 133.016q1.654 0 2.493 1.06.84 1.056.756 2.885h-5.73q.13 1.029.82 1.634.697.606 1.726.606.651 0 1.204-.228.554-.228.97-.651l.573.612q-.507.56-1.237.866-.722.306-1.588.306-1.029 0-1.823-.443-.794-.45-1.237-1.257-.436-.807-.436-1.849 0-1.041.442-1.842.45-.807 1.25-1.25.801-.45 1.817-.45zm2.318 3.092q-.053-1.015-.69-1.608-.632-.592-1.654-.592-1.003 0-1.673.599-.664.599-.782 1.601zM419.354 133.003q1.257 0 1.96.729.71.722.71 1.999v4.335h-1.042v-4.056q0-.93-.528-1.451-.527-.521-1.458-.521-1.028.013-1.647.631-.618.612-.716 1.621v3.776h-1.035v-7.024h1.035v1.543q.723-1.563 2.721-1.582zM430.716 140.066h-1.041v-1.503q-.398.748-1.1 1.152-.697.404-1.635.404-.99 0-1.764-.45-.768-.455-1.198-1.27-.423-.813-.423-1.855 0-1.041.423-1.842.43-.807 1.198-1.257.768-.455 1.751-.455.931 0 1.647.403.716.404 1.1 1.166v-4.388h1.042zm-3.574-.878q.736 0 1.309-.332.572-.339.898-.938.326-.599.326-1.348 0-.761-.326-1.36-.326-.6-.898-.938-.573-.338-1.309-.338t-1.315.338q-.58.339-.905.944-.326.6-.326 1.354 0 .75.326 1.348.325.599.905.938.58.332 1.315.332zM435.06 133.003q.631 0 1.217.169.586.163 1.022.469l-.397.827q-.41-.267-.918-.417-.508-.156-.99-.156-.624 0-1.009.234-.377.228-.377.697 0 .319.215.533.215.215.527.352.313.13.872.286.736.215 1.192.43.462.215.788.625.325.404.325 1.055 0 .99-.742 1.497-.736.502-1.83.502-.761 0-1.484-.26-.716-.261-1.21-.724l.403-.787q.443.41 1.074.65.632.242 1.257.242.664 0 1.08-.26.424-.261.424-.769t-.404-.749q-.404-.247-1.244-.488-.735-.228-1.172-.423-.43-.202-.748-.593-.313-.397-.313-1.028 0-.957.69-1.433.697-.481 1.752-.481z"/></g><g aria-label="DAPClient {" style="-inkscape-font-specification:Montserrat-Light" font-weight="300" font-size="10" font-family="Montserrat" fill="#666"><path d="M282.05 146.597q1.348 0 2.435.619 1.094.612 1.725 1.68.639 1.06.639 2.37 0 1.308-.639 2.375-.631 1.068-1.738 1.68-1.107.612-2.46.612h-3.738v-9.336zm-2.708 8.32h2.721q1.029 0 1.875-.468.847-.476 1.335-1.309.495-.833.495-1.862 0-1.028-.502-1.855-.5-.834-1.354-1.315-.853-.482-1.888-.482h-2.682zM289.355 153.576l-1.042 2.357h-1.133l4.186-9.336h1.107l4.173 9.336h-1.158l-1.042-2.357zm2.532-5.761l-2.077 4.733h4.187zM301.637 146.597q1.732 0 2.682.82.957.82.957 2.318 0 1.55-.957 2.403-.95.846-2.682.846h-2.442v2.95h-1.067v-9.337zm-2.442 5.365h2.403q1.282 0 1.966-.56.683-.56.683-1.64 0-1.055-.69-1.596-.683-.54-1.96-.54h-2.402zM311.032 146.571q.95 0 1.842.365.892.358 1.576.996l-.645.814q-.546-.547-1.276-.86-.722-.312-1.484-.312-1.042 0-1.914.495-.872.488-1.38 1.334-.502.84-.502 1.85 0 1.002.502 1.848.508.846 1.38 1.341.879.489 1.914.489.762 0 1.478-.293.723-.293 1.282-.827l.658.735q-.71.664-1.615 1.055-.905.384-1.855.384-1.322 0-2.428-.631-1.1-.632-1.752-1.719-.644-1.087-.644-2.383 0-1.282.65-2.35.658-1.074 1.772-1.7 1.113-.63 2.441-.63zM316.29 155.933v-9.896h1.041v9.896zM319.824 155.933v-7.025h1.023v7.025zm.502-9.759q.293 0 .488.208.195.202.195.508t-.195.514q-.195.209-.488.209t-.489-.202q-.188-.208-.188-.52 0-.307.188-.509.196-.208.489-.208zM326.21 148.882q1.654 0 2.494 1.062.84 1.054.755 2.884h-5.729q.13 1.028.82 1.634.697.605 1.726.605.65 0 1.204-.228.553-.227.97-.65l.573.611q-.508.56-1.237.866-.723.306-1.588.306-1.03 0-1.823-.443-.795-.449-1.237-1.256-.437-.807-.437-1.849 0-1.042.443-1.842.45-.808 1.25-1.25.8-.45 1.817-.45zm2.318 3.093q-.052-1.016-.69-1.608-.631-.593-1.654-.593-1.002 0-1.673.6-.664.598-.78 1.6zM334.9 148.87q1.257 0 1.96.728.71.723.71 2v4.335h-1.041v-4.056q0-.93-.528-1.452-.527-.52-1.458-.52-1.029.013-1.647.631-.619.612-.716 1.621v3.776h-1.036v-7.025h1.036v1.543q.722-1.562 2.72-1.582zM343.437 155.451q-.761.521-1.588.534-.814 0-1.302-.495-.489-.5-.489-1.503v-4.01h-1.009v-.84h1.01v-1.856h1.028v1.855l2.227-.02v.86h-2.227v3.822q0 .625.234.905.235.273.704.273.546 0 1.12-.364zM349.835 150.503q0 .593-.183.892-.175.3-.592.43.41.117.592.423.183.3.183.886v2.597q0 .521.306.756.306.234 1.028.234v.892h-.377q-1.016 0-1.459-.371-.442-.365-.442-1.218v-2.942q0-.41-.157-.606-.15-.195-.488-.195h-.345v-.918h.345q.332 0 .488-.189.157-.189.157-.599v-2.962q0-.853.442-1.218.45-.37 1.459-.37h.377v.898q-.71 0-1.022.24-.312.235-.312.756z"/></g><g aria-label="getHello(uid) {" style="-inkscape-font-specification:Montserrat-Light" font-weight="300" font-size="10" font-family="Montserrat" fill="#666"><path d="M291.584 171.064q0 1.016-.443 1.771-.442.762-1.243 1.165-.794.41-1.849.41-1.562-.013-2.878-1.009l.476-.8q.534.442 1.106.657.573.221 1.257.235 1.146 0 1.836-.658.697-.651.697-1.745v-1.061q-.372.71-1.042 1.087-.664.378-1.543.378-.931 0-1.66-.43-.73-.436-1.14-1.21-.403-.776-.403-1.759 0-.976.397-1.731.404-.762 1.12-1.192.722-.436 1.653-.436.892 0 1.556.378.67.377 1.062 1.087v-1.426h1.041zm-3.444-.45q.697 0 1.244-.318.547-.326.853-.892.306-.566.306-1.27 0-.722-.306-1.289-.306-.566-.853-.885-.547-.32-1.244-.32-.69 0-1.237.32-.547.319-.86.885-.312.567-.312 1.29 0 .71.313 1.275.312.56.86.886.546.319 1.236.319zM296.784 164.749q1.654 0 2.493 1.061.84 1.055.756 2.884h-5.73q.13 1.029.82 1.634.697.606 1.726.606.651 0 1.204-.228.554-.228.97-.651l.573.612q-.507.56-1.237.866-.722.306-1.588.306-1.029 0-1.823-.443-.794-.45-1.237-1.256-.436-.808-.436-1.85 0-1.041.442-1.842.45-.807 1.25-1.25.801-.449 1.817-.449zm2.318 3.092q-.053-1.015-.69-1.608-.632-.592-1.654-.592-1.003 0-1.673.599-.664.599-.782 1.601zM305.464 171.318q-.762.52-1.589.534-.813 0-1.302-.495-.488-.501-.488-1.504v-4.01h-1.009v-.84h1.01v-1.856h1.028v1.856l2.226-.02v.86h-2.226v3.821q0 .625.234.905.235.274.703.274.547 0 1.12-.365zM313.74 171.8v-4.108h-5.625v4.108h-1.067v-9.336h1.067v4.219h5.625v-4.22h1.068v9.337zM320.237 164.749q1.654 0 2.494 1.061.84 1.055.755 2.884h-5.73q.13 1.029.821 1.634.697.606 1.725.606.651 0 1.205-.228.553-.228.97-.651l.573.612q-.508.56-1.237.866-.723.306-1.589.306-1.028 0-1.823-.443-.794-.45-1.237-1.256-.436-.808-.436-1.85 0-1.041.443-1.842.449-.807 1.25-1.25.8-.449 1.816-.449zm2.318 3.092q-.052-1.015-.69-1.608-.632-.592-1.654-.592-1.002 0-1.673.599-.664.599-.781 1.601zM325.356 171.8v-9.896h1.042v9.896zM329.076 171.8v-9.896h1.042v9.896zM335.463 164.749q1.028 0 1.836.45.813.442 1.27 1.25.455.807.455 1.829 0 1.041-.456 1.849-.456.807-1.27 1.263-.807.449-1.835.449-1.029 0-1.843-.45-.814-.455-1.27-1.262-.449-.808-.449-1.85 0-1.028.45-1.829.455-.807 1.27-1.25.813-.449 1.842-.449zm0 .944q-.723 0-1.302.332-.58.332-.899.925-.319.585-.319 1.34 0 .762.32 1.355.318.592.898.93.579.333 1.302.333.722 0 1.302-.332.58-.339.898-.931.32-.593.32-1.354 0-.762-.32-1.348-.319-.586-.905-.918-.58-.332-1.295-.332zM343.286 161.904q-.729 1.152-1.14 2.637-.403 1.484-.403 3.138 0 1.653.404 3.15.41 1.492 1.14 2.624h-.945q-.774-1.12-1.185-2.61-.403-1.498-.403-3.164 0-1.667.403-3.151.41-1.491 1.185-2.624zM350.952 171.8h-1.036v-1.589q-.677 1.602-2.669 1.628-1.224 0-1.927-.73-.696-.735-.696-2.005v-4.329h1.035v4.05q0 .93.52 1.451.521.521 1.426.521 1.081-.013 1.693-.722.618-.717.618-1.85v-3.45h1.036zM353.398 171.8v-7.025h1.022v7.025zm.501-9.76q.293 0 .488.209.196.202.196.508t-.196.514q-.195.208-.488.208t-.488-.201q-.19-.209-.19-.521 0-.306.19-.508.195-.208.488-.208zM363.436 171.8h-1.041v-1.504q-.398.749-1.1 1.152-.697.404-1.635.404-.99 0-1.764-.45-.768-.455-1.198-1.269-.423-.814-.423-1.855 0-1.042.423-1.843.43-.807 1.198-1.256.768-.456 1.751-.456.931 0 1.647.404.716.403 1.1 1.165v-4.388h1.042zm-3.574-.88q.736 0 1.309-.331.573-.339.898-.938.326-.599.326-1.347 0-.762-.326-1.361-.325-.599-.898-.937-.573-.339-1.309-.339t-1.315.339q-.58.338-.905.944-.326.598-.326 1.354 0 .748.326 1.347.325.6.905.938.58.332 1.315.332zM365.82 161.904q.73 1.152 1.133 2.637.41 1.484.41 3.138 0 1.653-.41 3.15-.404 1.492-1.133 2.624h.944q.775-1.12 1.178-2.61.41-1.498.41-3.164 0-1.667-.41-3.151-.403-1.491-1.178-2.624zM375.008 166.37q0 .593-.182.892-.176.3-.593.43.41.117.593.423.182.3.182.885v2.598q0 .52.306.755t1.029.235v.891h-.378q-1.016 0-1.458-.37-.443-.365-.443-1.218v-2.943q0-.41-.156-.605-.15-.196-.489-.196h-.345v-.918h.345q.333 0 .489-.188.156-.19.156-.6v-2.962q0-.852.443-1.217.449-.371 1.458-.371h.378v.898q-.71 0-1.022.241-.313.235-.313.755z"/></g><g aria-label="//..." style="-inkscape-font-specification:Montserrat-Light" font-weight="300" font-size="10" font-family="Montserrat" fill="#666"><path d="M291.378 189.16l4.16-12.558h.925l-4.173 12.559zM295.512 189.16l4.16-12.558h.924l-4.173 12.559zM301.25 186.25q.266 0 .449.202.189.202.189.495t-.19.495q-.182.195-.449.195-.28 0-.468-.195-.19-.202-.19-.495t.19-.495q.189-.201.468-.201zM303.783 186.25q.267 0 .449.202.189.202.189.495t-.189.495q-.182.195-.45.195-.28 0-.468-.195-.189-.202-.189-.495t.19-.495q.188-.201.468-.201zM306.316 186.25q.267 0 .45.202.188.202.188.495t-.189.495q-.182.195-.449.195-.28 0-.469-.195-.188-.202-.188-.495t.188-.495q.19-.201.47-.201z"/></g><g style="-inkscape-font-specification:Montserrat-Light"><path d="M286.727 197.97q0 .593.176.892.182.3.6.43-.411.117-.593.423-.183.3-.183.885v2.598q0 .52-.306.755t-1.028.235v.891h.377q1.016 0 1.459-.37.442-.365.442-1.218v-2.943q0-.41.15-.605.156-.196.495-.196h.345v-.918h-.345q-.332 0-.488-.188-.157-.19-.157-.6v-2.962q0-.852-.449-1.217-.443-.371-1.452-.371h-.377v.898q.71 0 1.022.241.312.235.312.755z" aria-label="}" font-weight="300" font-size="10" font-family="Montserrat" fill="#666"/></g><g aria-label="setHello(message) {" style="-inkscape-font-specification:Montserrat-Light" font-weight="300" font-size="10" font-family="Montserrat" fill="#666"><path d="M287.326 212.203q.632 0 1.218.169.586.163 1.022.469l-.397.827q-.41-.267-.918-.417-.508-.156-.99-.156-.625 0-1.009.234-.377.228-.377.697 0 .319.214.533.215.215.528.352.312.13.872.286.736.215 1.192.43.462.215.787.625.326.404.326 1.055 0 .99-.742 1.497-.736.502-1.83.502-.762 0-1.484-.26-.716-.261-1.211-.724l.404-.787q.442.41 1.074.65.631.242 1.256.242.664 0 1.081-.26.423-.261.423-.769t-.403-.749q-.404-.247-1.244-.488-.736-.228-1.172-.423-.43-.202-.749-.593-.312-.397-.312-1.028 0-.957.69-1.433.697-.481 1.751-.481zM294.384 212.216q1.654 0 2.493 1.06.84 1.056.756 2.885h-5.73q.13 1.029.82 1.634.697.606 1.726.606.651 0 1.204-.228.554-.228.97-.651l.573.612q-.507.56-1.237.866-.722.306-1.588.306-1.029 0-1.823-.443-.794-.45-1.237-1.257-.436-.807-.436-1.849 0-1.041.442-1.842.45-.807 1.25-1.25.801-.45 1.817-.45zm2.318 3.092q-.053-1.015-.69-1.608-.632-.592-1.654-.592-1.003 0-1.673.599-.664.599-.782 1.601zM303.064 218.785q-.762.52-1.589.534-.813 0-1.302-.495-.488-.502-.488-1.504v-4.01h-1.009v-.84h1.01v-1.856h1.028v1.856l2.226-.02v.86h-2.226v3.821q0 .625.234.905.235.273.703.273.547 0 1.12-.364zM311.34 219.266v-4.108h-5.625v4.108h-1.067v-9.335h1.067v4.218h5.625v-4.218h1.068v9.335zM317.837 212.216q1.654 0 2.494 1.06.84 1.056.755 2.885h-5.73q.13 1.029.821 1.634.697.606 1.725.606.651 0 1.205-.228.553-.228.97-.651l.573.612q-.508.56-1.237.866-.723.306-1.589.306-1.028 0-1.823-.443-.794-.45-1.237-1.257-.436-.807-.436-1.849 0-1.041.443-1.842.449-.807 1.25-1.25.8-.45 1.816-.45zm2.318 3.092q-.052-1.015-.69-1.608-.632-.592-1.654-.592-1.002 0-1.673.599-.664.599-.781 1.601zM322.956 219.266v-9.895h1.042v9.895zM326.676 219.266v-9.895h1.042v9.895zM333.063 212.216q1.028 0 1.836.449.813.443 1.27 1.25.455.807.455 1.83 0 1.041-.456 1.848-.456.808-1.27 1.263-.807.45-1.835.45-1.029 0-1.843-.45-.814-.455-1.27-1.263-.449-.807-.449-1.849 0-1.028.45-1.83.455-.806 1.27-1.25.813-.448 1.842-.448zm0 .944q-.723 0-1.302.332-.58.332-.899.924-.319.586-.319 1.341 0 .762.32 1.355.318.592.898.93.579.333 1.302.333.722 0 1.302-.332.58-.339.898-.931.32-.593.32-1.355 0-.761-.32-1.347-.319-.586-.905-.918-.58-.332-1.295-.332zM340.766 209.37q-.729 1.153-1.14 2.637-.403 1.485-.403 3.138 0 1.654.404 3.151.41 1.491 1.14 2.624h-.945q-.774-1.12-1.185-2.61-.403-1.498-.403-3.165 0-1.666.403-3.15.41-1.492 1.185-2.624zM351.342 212.203q1.224 0 1.914.729.696.722.696 1.999v4.335h-1.035v-4.056q0-.93-.52-1.458-.521-.527-1.426-.527-1.081.026-1.693.735-.605.704-.605 1.856v3.45h-1.049v-4.056q0-.93-.514-1.458-.514-.527-1.432-.527-1.068.026-1.693.735-.618.704-.618 1.856v3.45h-1.023v-7.024h1.023v1.582q.345-.801 1.022-1.205.683-.403 1.66-.416.99 0 1.64.481.651.476.88 1.355.318-.918 1.028-1.368.716-.455 1.745-.468zM359.13 212.216q1.654 0 2.494 1.06.84 1.056.755 2.885h-5.729q.13 1.029.82 1.634.697.606 1.726.606.65 0 1.204-.228.553-.228.97-.651l.573.612q-.508.56-1.237.866-.723.306-1.588.306-1.03 0-1.823-.443-.795-.45-1.237-1.257-.437-.807-.437-1.849 0-1.041.443-1.842.45-.807 1.25-1.25.8-.45 1.817-.45zm2.318 3.092q-.052-1.015-.69-1.608-.631-.592-1.654-.592-1.002 0-1.673.599-.664.599-.78 1.601zM366.046 212.203q.632 0 1.218.169.586.163 1.022.469l-.397.827q-.41-.267-.918-.417-.508-.156-.99-.156-.625 0-1.009.234-.377.228-.377.697 0 .319.214.533.215.215.528.352.312.13.872.286.736.215 1.192.43.462.215.787.625.326.404.326 1.055 0 .99-.742 1.497-.736.502-1.83.502-.762 0-1.484-.26-.716-.261-1.211-.724l.404-.787q.442.41 1.074.65.631.242 1.256.242.664 0 1.081-.26.423-.261.423-.769t-.403-.749q-.404-.247-1.244-.488-.736-.228-1.172-.423-.43-.202-.749-.593-.312-.397-.312-1.028 0-.957.69-1.433.697-.481 1.751-.481zM372.046 212.203q.632 0 1.218.169.586.163 1.022.469l-.397.827q-.41-.267-.918-.417-.508-.156-.99-.156-.625 0-1.009.234-.377.228-.377.697 0 .319.214.533.215.215.528.352.312.13.872.286.736.215 1.192.43.462.215.787.625.326.404.326 1.055 0 .99-.742 1.497-.736.502-1.83.502-.762 0-1.484-.26-.716-.261-1.211-.724l.404-.787q.442.41 1.074.65.631.242 1.256.242.664 0 1.081-.26.423-.261.423-.769t-.403-.749q-.404-.247-1.244-.488-.736-.228-1.172-.423-.43-.202-.749-.593-.312-.397-.312-1.028 0-.957.69-1.433.697-.481 1.751-.481zM380.66 218.186q-.84 1.133-2.572 1.133-.71 0-1.256-.28-.54-.28-.84-.769-.293-.494-.293-1.1 0-.918.69-1.458.697-.54 1.94-.554h2.305v-.41q0-.788-.482-1.21-.475-.43-1.4-.43-1.067 0-2.226.8l-.436-.761q.748-.495 1.38-.716.631-.228 1.484-.228 1.296 0 1.992.638.703.638.716 1.784l.013 4.641h-1.015zm-2.37.228q.892 0 1.523-.417.632-.423.834-1.159v-.84h-2.188q-1.784 0-1.784 1.133 0 .586.437.938.442.345 1.178.345zM390.144 218.53q0 1.016-.443 1.772-.442.761-1.243 1.165-.794.41-1.849.41-1.562-.013-2.878-1.009l.476-.8q.534.442 1.106.657.573.221 1.257.234 1.146 0 1.836-.657.697-.651.697-1.745v-1.061q-.372.71-1.042 1.087-.664.377-1.543.377-.931 0-1.66-.43-.73-.435-1.14-1.21-.403-.775-.403-1.758 0-.977.397-1.732.404-.761 1.12-1.191.722-.436 1.653-.436.892 0 1.556.377.67.378 1.062 1.088v-1.426h1.041zm-3.444-.448q.697 0 1.244-.32.547-.325.853-.891.306-.567.306-1.27 0-.723-.306-1.289t-.853-.885q-.547-.32-1.244-.32-.69 0-1.237.32-.547.319-.86.885-.312.566-.312 1.29 0 .709.313 1.275.312.56.86.886.546.319 1.236.319zM395.224 212.216q1.654 0 2.493 1.06.84 1.056.756 2.885h-5.73q.13 1.029.82 1.634.697.606 1.726.606.651 0 1.204-.228.554-.228.97-.651l.573.612q-.507.56-1.237.866-.722.306-1.588.306-1.029 0-1.823-.443-.794-.45-1.237-1.257-.436-.807-.436-1.849 0-1.041.442-1.842.45-.807 1.25-1.25.801-.45 1.817-.45zm2.318 3.092q-.053-1.015-.69-1.608-.632-.592-1.654-.592-1.003 0-1.673.599-.664.599-.782 1.601zM400.18 209.37q.73 1.153 1.133 2.637.41 1.485.41 3.138 0 1.654-.41 3.151-.404 1.491-1.133 2.624h.944q.775-1.12 1.178-2.61.41-1.498.41-3.165 0-1.666-.41-3.15-.403-1.492-1.178-2.624zM409.368 213.837q0 .592-.182.892-.176.3-.593.43.41.117.593.423.182.299.182.885v2.598q0 .52.306.755.306.234 1.029.234v.892h-.378q-1.016 0-1.458-.37-.443-.366-.443-1.218v-2.943q0-.41-.156-.606-.15-.195-.489-.195h-.345v-.918h.345q.333 0 .489-.189.156-.188.156-.599v-2.962q0-.853.443-1.217.449-.371 1.458-.371h.378v.898q-.71 0-1.022.24-.313.235-.313.756z"/></g><g aria-label="//..." style="-inkscape-font-specification:Montserrat-Light" font-weight="300" font-size="10" font-family="Montserrat" fill="#666"><path d="M291.378 236.76l4.16-12.558h.925l-4.173 12.559zM295.512 236.76l4.16-12.558h.924l-4.173 12.559zM301.25 233.85q.266 0 .449.202.189.202.189.495t-.19.495q-.182.195-.449.195-.28 0-.468-.195-.19-.202-.19-.495t.19-.495q.189-.201.468-.201zM303.783 233.85q.267 0 .449.202.189.202.189.495t-.189.495q-.182.195-.45.195-.28 0-.468-.195-.189-.202-.189-.495t.19-.495q.188-.201.468-.201zM306.316 233.85q.267 0 .45.202.188.202.188.495t-.189.495q-.182.195-.449.195-.28 0-.469-.195-.188-.202-.188-.495t.188-.495q.19-.201.47-.201z"/></g><g style="-inkscape-font-specification:Montserrat-Light"><path d="M286.727 245.437q0 .592.176.892.182.3.6.43-.411.117-.593.423-.183.299-.183.885v2.598q0 .52-.306.755-.306.234-1.028.234v.892h.377q1.016 0 1.459-.37.442-.366.442-1.218v-2.943q0-.41.15-.606.156-.195.495-.195h.345v-.918h-.345q-.332 0-.488-.189-.157-.188-.157-.599v-2.962q0-.853-.449-1.217-.443-.371-1.452-.371h-.377v.898q.71 0 1.022.24.312.235.312.756z" aria-label="}" font-weight="300" font-size="10" font-family="Montserrat" fill="#666"/></g><g><g style="-inkscape-font-specification:Montserrat-Light"><path d="M279.394 261.303q0 .593.176.892.182.3.599.43-.41.117-.593.423-.182.3-.182.886v2.597q0 .521-.306.756-.306.234-1.029.234v.892h.378q1.016 0 1.458-.371.443-.365.443-1.218v-2.942q0-.41.15-.606.156-.195.495-.195h.345v-.918h-.345q-.332 0-.489-.189-.156-.189-.156-.599v-2.962q0-.853-.45-1.218-.442-.37-1.451-.37h-.378v.898q.71 0 1.023.24.312.235.312.756z" aria-label="}" font-weight="300" font-size="10" font-family="Montserrat" fill="#666"/></g></g></svg>