<svg xmlns="http://www.w3.org/2000/svg" height="499.056" width="959.119"><path d="M349.324 131.928h-86.4v-110.4h172.8v110.4z" fill="#ddd" fill-rule="evenodd"/><path d="M349.324 131.928h-86.4v-110.4h172.8v110.4z" fill="none" stroke="#ff60dd" stroke-width="3.0559923599999994" stroke-linejoin="round" stroke-miterlimit="10"/><g aria-label="DAP Clients" style="-inkscape-font-specification:Montserrat-Light" font-weight="300" font-size="18" font-family="Montserrat"><path d="M289.597 69.657q2.426 0 4.383 1.113 1.968 1.102 3.105 3.024 1.149 1.91 1.149 4.265 0 2.356-1.149 4.278-1.137 1.921-3.129 3.023t-4.43 1.102H282.8V69.657zm-4.875 14.976h4.898q1.852 0 3.375-.843 1.524-.856 2.403-2.356.89-1.5.89-3.351 0-1.852-.902-3.34-.902-1.5-2.438-2.367-1.535-.868-3.398-.868h-4.828zM302.793 82.22l-1.875 4.242h-2.04l7.536-16.805h1.992l7.512 16.805h-2.086l-1.875-4.243zm4.558-10.372l-3.738 8.52h7.535zM324.948 69.657q3.118 0 4.829 1.476 1.722 1.477 1.722 4.172 0 2.79-1.722 4.325-1.711 1.523-4.829 1.523h-4.394v5.309h-1.922V69.657zm-4.394 9.656h4.324q2.309 0 3.54-1.008 1.23-1.008 1.23-2.953 0-1.898-1.243-2.87-1.23-.974-3.527-.974h-4.324zM348.34 69.61q1.71 0 3.316.656 1.606.645 2.836 1.793l-1.16 1.465q-.984-.984-2.297-1.547-1.3-.562-2.672-.562-1.875 0-3.445.89-1.57.88-2.484 2.403-.903 1.511-.903 3.328 0 1.804.903 3.328.914 1.523 2.484 2.414 1.582.879 3.445.879 1.371 0 2.66-.527 1.301-.528 2.31-1.489l1.183 1.324q-1.278 1.196-2.907 1.899-1.629.691-3.34.691-2.378 0-4.37-1.136-1.981-1.137-3.153-3.094-1.16-1.957-1.16-4.29 0-2.308 1.172-4.23 1.183-1.933 3.187-3.058 2.004-1.137 4.395-1.137zM357.803 86.462V68.649h1.875v17.813zM364.334 86.462V73.817h1.84v12.645zm.903-17.567q.527 0 .878.375.352.363.352.914t-.352.926q-.351.375-.878.375-.528 0-.88-.363-.34-.375-.34-.938 0-.55.34-.914.352-.375.88-.375zM375.757 73.77q2.977 0 4.489 1.91 1.511 1.899 1.359 5.192h-10.313q.235 1.851 1.477 2.941 1.254 1.09 3.105 1.09 1.172 0 2.168-.41.996-.41 1.746-1.172l1.032 1.101q-.914 1.008-2.227 1.56-1.3.55-2.86.55-1.85 0-3.28-.797-1.43-.809-2.227-2.262-.785-1.453-.785-3.328 0-1.875.797-3.316.808-1.453 2.25-2.25 1.441-.809 3.27-.809zm4.172 5.567q-.094-1.829-1.242-2.895-1.137-1.066-2.977-1.066-1.804 0-3.011 1.078-1.196 1.078-1.407 2.883zM391.592 73.747q2.262 0 3.527 1.312 1.278 1.301 1.278 3.598v7.805h-1.875V79.16q0-1.676-.95-2.614-.949-.937-2.625-.937-1.851.023-2.964 1.137-1.114 1.101-1.29 2.918v6.797h-1.863V73.817h1.863v2.777q1.301-2.812 4.899-2.847zM406.958 85.594q-1.372.938-2.86.961-1.465 0-2.344-.89-.879-.903-.879-2.707v-7.22h-1.816v-1.51h1.816v-3.34h1.852v3.34l4.008-.036v1.547h-4.008v6.879q0 1.125.422 1.629.422.492 1.266.492.984 0 2.015-.656zM413.118 73.747q1.136 0 2.191.304 1.055.293 1.84.844l-.715 1.488q-.738-.48-1.652-.75-.914-.28-1.781-.28-1.125 0-1.817.421-.68.41-.68 1.254 0 .574.387.96.387.388.95.634.562.234 1.57.515 1.324.387 2.144.774.832.386 1.418 1.125.586.726.586 1.898 0 1.781-1.336 2.696-1.324.902-3.293.902-1.37 0-2.672-.469-1.289-.469-2.18-1.3l.727-1.419q.797.739 1.934 1.172 1.137.434 2.262.434 1.195 0 1.945-.469.762-.469.762-1.383t-.727-1.347q-.727-.446-2.238-.88-1.324-.41-2.11-.761-.773-.363-1.347-1.066-.563-.715-.563-1.852 0-1.723 1.242-2.578 1.254-.867 3.153-.867z"/></g><path d="M349.324 477.528h-86.4v-110.4h172.8v110.4z" fill="#ddd" fill-rule="evenodd"/><path d="M349.324 477.528h-86.4v-110.4h172.8v110.4z" fill="none" stroke="#b2b2b2" stroke-width="3.0559923599999994" stroke-linejoin="round" stroke-miterlimit="10"/><g aria-label="DAP" style="-inkscape-font-specification:Montserrat-Light" font-weight="300" font-size="18" font-family="Montserrat"><path d="M332.797 400.857q2.426 0 4.383 1.113 1.968 1.102 3.105 3.024 1.149 1.91 1.149 4.265 0 2.356-1.149 4.278-1.137 1.921-3.129 3.023t-4.43 1.102H326v-16.805zm-4.875 14.976h4.898q1.852 0 3.375-.843 1.524-.856 2.403-2.356.89-1.5.89-3.351 0-1.852-.902-3.34-.902-1.5-2.438-2.367-1.535-.868-3.398-.868h-4.828zM345.993 413.42l-1.875 4.242h-2.04l7.536-16.805h1.992l7.512 16.805h-2.086l-1.875-4.243zm4.558-10.372l-3.738 8.52h7.535zM368.148 400.857q3.118 0 4.829 1.476 1.722 1.477 1.722 4.172 0 2.79-1.722 4.324-1.711 1.524-4.829 1.524h-4.394v5.309h-1.922v-16.805zm-4.394 9.656h4.324q2.309 0 3.54-1.008 1.23-1.008 1.23-2.953 0-1.898-1.243-2.87-1.23-.974-3.527-.974h-4.324z"/></g><g aria-label="Generator" style="-inkscape-font-specification:Montserrat-Light" font-weight="300" font-size="18" font-family="Montserrat"><path d="M306.885 438.258v6.094q-1.278 1.008-2.93 1.606-1.652.597-3.316.597-2.403 0-4.407-1.136-1.992-1.137-3.175-3.082-1.172-1.946-1.172-4.278t1.172-4.254q1.183-1.933 3.222-3.058 2.04-1.137 4.465-1.137 1.723 0 3.34.621 1.629.61 2.848 1.688l-1.102 1.441q-1.031-.914-2.367-1.43-1.336-.515-2.719-.515-1.898 0-3.48.89-1.582.88-2.508 2.414-.926 1.524-.926 3.34 0 1.828.937 3.363.938 1.536 2.52 2.426 1.582.89 3.48.89 1.125 0 2.274-.374 1.16-.375 2.144-1.043v-5.063zM316.248 433.77q2.976 0 4.488 1.91 1.512 1.899 1.36 5.192h-10.313q.234 1.851 1.477 2.941 1.254 1.09 3.105 1.09 1.172 0 2.168-.41.996-.41 1.746-1.172l1.031 1.101q-.914 1.008-2.226 1.56-1.3.55-2.86.55-1.851 0-3.28-.797-1.43-.809-2.227-2.262-.785-1.453-.785-3.328 0-1.875.796-3.316.809-1.453 2.25-2.25 1.442-.809 3.27-.809zm4.172 5.567q-.094-1.829-1.242-2.895-1.137-1.066-2.977-1.066-1.805 0-3.012 1.078-1.195 1.078-1.406 2.883zM332.083 433.747q2.261 0 3.527 1.312 1.277 1.301 1.277 3.598v7.805h-1.875v-7.301q0-1.676-.949-2.614-.95-.937-2.625-.937-1.852.023-2.965 1.137-1.113 1.101-1.289 2.918v6.797h-1.863v-12.645h1.863v2.777q1.3-2.812 4.899-2.847zM346.08 433.77q2.976 0 4.488 1.91 1.512 1.899 1.36 5.192h-10.313q.234 1.851 1.477 2.941 1.254 1.09 3.105 1.09 1.172 0 2.168-.41.996-.41 1.746-1.172l1.031 1.101q-.914 1.008-2.226 1.56-1.3.55-2.86.55-1.851 0-3.28-.797-1.43-.809-2.227-2.262-.785-1.453-.785-3.328 0-1.875.796-3.316.809-1.453 2.25-2.25 1.442-.809 3.27-.809zm4.172 5.567q-.094-1.829-1.242-2.895-1.137-1.066-2.977-1.066-1.805 0-3.012 1.078-1.195 1.078-1.406 2.883zM356.896 436.618q.633-1.383 1.781-2.11 1.149-.738 2.754-.761v1.886q-1.968-.023-3.164 1.102-1.195 1.113-1.37 3.012v6.715h-1.864v-12.645h1.863zM371.129 444.516q-1.512 2.04-4.63 2.04-1.277 0-2.26-.505-.974-.504-1.513-1.382-.527-.891-.527-1.98 0-1.653 1.242-2.626 1.254-.973 3.492-.996h4.149v-.738q0-1.418-.867-2.18-.856-.773-2.52-.773-1.922 0-4.008 1.441l-.785-1.371q1.348-.89 2.485-1.29 1.136-.41 2.671-.41 2.332 0 3.586 1.15 1.266 1.148 1.29 3.21l.023 8.356h-1.828zm-4.266.41q1.606 0 2.742-.75 1.137-.761 1.5-2.086v-1.511h-3.937q-3.211 0-3.211 2.039 0 1.054.785 1.687.797.621 2.121.621zM383.664 445.594q-1.37.938-2.86.961-1.464 0-2.343-.89-.879-.903-.879-2.707v-7.22h-1.816v-1.51h1.816v-3.34h1.852v3.34l4.008-.036v1.547h-4.008v6.879q0 1.125.422 1.629.421.492 1.265.492.985 0 2.016-.656zM391.342 433.77q1.851 0 3.304.809 1.465.797 2.286 2.25.82 1.453.82 3.293 0 1.875-.82 3.328-.82 1.453-2.286 2.273-1.453.809-3.304.809-1.852 0-3.317-.809-1.465-.82-2.285-2.273-.808-1.453-.808-3.328 0-1.852.808-3.293.82-1.453 2.285-2.25 1.465-.809 3.317-.809zm0 1.7q-1.301 0-2.344.597-1.043.598-1.617 1.664-.574 1.055-.574 2.414 0 1.371.574 2.438.574 1.066 1.617 1.675 1.043.598 2.344.598 1.3 0 2.343-.598 1.043-.609 1.618-1.675.574-1.067.574-2.438 0-1.371-.574-2.426-.575-1.054-1.63-1.652-1.042-.598-2.331-.598zM402.976 436.618q.633-1.383 1.781-2.11 1.149-.738 2.754-.761v1.886q-1.968-.023-3.164 1.102-1.195 1.113-1.37 3.012v6.715h-1.864v-12.645h1.863z"/></g><path d="M560.257 306.328h-86.4v-110.4h172.8v110.4z" fill="#ddd" fill-rule="evenodd"/><path d="M560.257 306.328h-86.4v-110.4h172.8v110.4z" fill="none" stroke="#ff60dd" stroke-width="3.0559923599999994" stroke-linejoin="round" stroke-miterlimit="10"/><g aria-label="DAP SDK" style="-inkscape-font-specification:Montserrat-Light" font-weight="300" font-size="18" font-family="Montserrat"><path d="M515.197 244.057q2.426 0 4.383 1.113 1.968 1.102 3.105 3.024 1.149 1.91 1.149 4.265 0 2.356-1.149 4.278-1.137 1.921-3.129 3.023t-4.43 1.102H508.4v-16.805zm-4.875 14.976h4.898q1.852 0 3.375-.843 1.524-.856 2.403-2.356.89-1.5.89-3.351 0-1.852-.902-3.34-.902-1.5-2.438-2.367-1.535-.868-3.398-.868h-4.828zM528.393 256.62l-1.875 4.242h-2.04l7.536-16.805h1.992l7.512 16.805h-2.086l-1.875-4.243zm4.558-10.372l-3.738 8.52h7.535zM550.548 244.057q3.118 0 4.829 1.476 1.722 1.477 1.722 4.172 0 2.79-1.722 4.324-1.711 1.524-4.829 1.524h-4.394v5.309h-1.922v-16.805zm-4.394 9.656h4.324q2.309 0 3.54-1.008 1.23-1.008 1.23-2.953 0-1.898-1.243-2.87-1.23-.974-3.527-.974h-4.324zM571.76 243.987q1.442 0 2.86.421 1.418.422 2.472 1.137l-.82 1.805q-1.078-.715-2.309-1.067-1.218-.351-2.32-.351-1.629 0-2.602.586-.972.586-.972 1.652 0 .914.539 1.512t1.347.937q.82.328 2.239.762 1.722.55 2.765 1.031 1.055.48 1.793 1.418.75.938.75 2.473 0 1.394-.761 2.437-.75 1.043-2.133 1.618-1.383.574-3.188.574-1.804 0-3.504-.692-1.699-.703-2.918-1.875l.856-1.722q1.148 1.125 2.648 1.746 1.512.621 2.942.621 1.828 0 2.883-.703 1.054-.715 1.054-1.91 0-.938-.55-1.547-.551-.61-1.372-.95-.808-.34-2.226-.761-1.7-.504-2.766-.973-1.054-.469-1.793-1.394-.726-.926-.726-2.438 0-1.3.715-2.285.726-.984 2.05-1.523 1.325-.54 3.047-.54zM588.349 244.057q2.426 0 4.383 1.113 1.968 1.102 3.105 3.024 1.149 1.91 1.149 4.265 0 2.356-1.149 4.278-1.137 1.921-3.129 3.023t-4.43 1.102h-6.726v-16.805zm-4.875 14.976h4.898q1.852 0 3.375-.843 1.524-.856 2.403-2.356.89-1.5.89-3.351 0-1.852-.902-3.34-.902-1.5-2.438-2.367-1.535-.868-3.398-.868h-4.828zM605.524 252.893l-3.258 3.574v4.395h-1.922v-16.805h1.922v9.68l9.023-9.68h2.285l-6.656 7.3 7.16 9.505h-2.355z"/></g><path d="M851.19 131.928h-86.4v-110.4h172.8v110.4z" fill="#ddd" fill-rule="evenodd"/><path d="M851.19 131.928h-86.4v-110.4h172.8v110.4z" fill="none" stroke="#b2b2b2" stroke-width="3.0559923599999994" stroke-linejoin="round" stroke-miterlimit="10"/><g aria-label="VMN" style="-inkscape-font-specification:Montserrat-Light" font-weight="300" font-size="18" font-family="Montserrat"><path d="M829.618 63.928l-6.82-16.804h2.062l5.79 14.578 5.812-14.578h2.015l-6.867 16.804zM856.407 63.928l-.036-13.851-6.117 12.07h-1.148l-6.094-12.07v13.851h-1.828V47.124h2.379l6.14 12.105 6.118-12.105h2.355v16.804zM875.288 63.928L865.21 50.44v13.488h-1.922V47.124h1.992l10.078 13.511V47.124h1.899v16.804z"/></g><g aria-label="(standalone" style="-inkscape-font-specification:Montserrat-Light" font-weight="300" font-size="14" font-family="Montserrat"><path d="M802.358 73.674q-1.02 1.613-1.595 3.691-.565 2.079-.565 4.394t.565 4.411q.574 2.087 1.595 3.673h-1.321q-1.085-1.567-1.66-3.655-.564-2.096-.564-4.43 0-2.333.565-4.41.574-2.088 1.659-3.674zM807.174 77.639q.885 0 1.705.237.82.228 1.43.656l-.555 1.158q-.574-.374-1.285-.584-.711-.218-1.386-.218-.875 0-1.412.328-.53.319-.53.975 0 .447.302.747.3.301.738.493.437.182 1.221.4 1.03.301 1.668.602.647.3 1.103.875.456.565.456 1.477 0 1.385-1.04 2.096-1.03.702-2.56.702-1.067 0-2.078-.365-1.003-.364-1.696-1.011l.565-1.103q.62.574 1.504.911.884.337 1.76.337.929 0 1.512-.364.593-.365.593-1.076 0-.71-.565-1.048-.565-.346-1.741-.683-1.03-.32-1.64-.593-.602-.282-1.049-.83-.438-.555-.438-1.44 0-1.34.967-2.005.975-.674 2.451-.674zM818.157 86.854q-1.067.729-2.224.747-1.14 0-1.823-.693-.684-.701-.684-2.105v-5.615h-1.413v-1.175h1.413v-2.598h1.44v2.598l3.117-.028v1.203h-3.117v5.35q0 .876.328 1.268.328.382.985.382.765 0 1.567-.51zM826.495 86.015q-1.176 1.586-3.6 1.586-.994 0-1.76-.392-.756-.392-1.175-1.075-.41-.693-.41-1.54 0-1.286.966-2.042.975-.757 2.716-.775h3.226v-.574q0-1.103-.674-1.696-.666-.601-1.96-.601-1.495 0-3.117 1.12l-.61-1.066q1.047-.692 1.932-1.002.884-.32 2.078-.32 1.813 0 2.789.894.984.893 1.002 2.498l.019 6.498h-1.422zm-3.318.32q1.249 0 2.133-.584.884-.593 1.166-1.623v-1.175h-3.062q-2.497 0-2.497 1.586 0 .82.61 1.312.62.483 1.65.483zM836.315 77.639q1.759 0 2.743 1.02.994 1.012.994 2.799v6.07h-1.459V81.85q0-1.304-.738-2.033-.738-.729-2.041-.729-1.44.018-2.306.884-.866.857-1.003 2.27v5.286h-1.45v-9.834h1.45v2.16q1.012-2.188 3.81-2.215zM852.464 87.528h-1.458v-2.105q-.556 1.048-1.54 1.613-.976.565-2.288.565-1.386 0-2.47-.629-1.076-.638-1.677-1.777-.593-1.14-.593-2.598t.593-2.58q.601-1.13 1.677-1.758 1.075-.638 2.452-.638 1.303 0 2.306.565 1.002.565 1.54 1.631v-6.143h1.458zm-5.004-1.23q1.03 0 1.832-.465.802-.474 1.258-1.313.456-.838.456-1.886 0-1.067-.456-1.905-.456-.839-1.258-1.313t-1.832-.474q-1.03 0-1.84.474-.812.474-1.268 1.322-.455.838-.455 1.896 0 1.048.455 1.886.456.839 1.267 1.313.811.465 1.841.465zM862.055 86.015q-1.176 1.586-3.6 1.586-.994 0-1.76-.392-.756-.392-1.175-1.075-.41-.693-.41-1.54 0-1.286.966-2.042.975-.757 2.716-.775h3.226v-.574q0-1.103-.674-1.696-.666-.601-1.96-.601-1.495 0-3.117 1.12l-.61-1.066q1.047-.692 1.932-1.002.884-.32 2.078-.32 1.813 0 2.789.894.984.893 1.002 2.498l.019 6.498h-1.422zm-3.318.32q1.249 0 2.133-.584.884-.593 1.166-1.623v-1.175h-3.062q-2.497 0-2.497 1.586 0 .82.61 1.312.62.483 1.65.483zM866.837 87.528V73.674h1.459v13.854zM876.059 77.657q1.44 0 2.57.629 1.14.62 1.777 1.75.638 1.13.638 2.561 0 1.459-.638 2.589t-1.777 1.768q-1.13.629-2.57.629t-2.58-.629q-1.14-.638-1.777-1.768-.63-1.13-.63-2.589 0-1.44.63-2.561.638-1.13 1.777-1.75 1.14-.629 2.58-.629zm0 1.322q-1.012 0-1.823.465-.812.464-1.258 1.294-.447.82-.447 1.877 0 1.067.447 1.896.446.83 1.258 1.304.81.465 1.823.465 1.011 0 1.822-.465.812-.474 1.258-1.304.447-.83.447-1.896 0-1.066-.447-1.886-.446-.82-1.267-1.285-.81-.465-1.813-.465zM888.787 77.639q1.759 0 2.743 1.02.994 1.012.994 2.799v6.07h-1.459V81.85q0-1.304-.738-2.033-.738-.729-2.042-.729-1.44.018-2.305.884-.866.857-1.003 2.27v5.286h-1.45v-9.834h1.45v2.16q1.012-2.188 3.81-2.215zM899.692 77.657q2.315 0 3.491 1.486 1.176 1.476 1.057 4.038h-8.02q.182 1.44 1.148 2.287.975.848 2.415.848.912 0 1.687-.319.774-.32 1.358-.912l.802.857q-.711.784-1.732 1.213-1.012.428-2.224.428-1.44 0-2.552-.62-1.112-.629-1.732-1.759-.61-1.13-.61-2.589 0-1.458.62-2.579.628-1.13 1.75-1.75 1.12-.629 2.542-.629zm3.245 4.33q-.073-1.422-.966-2.252-.884-.83-2.315-.83-1.404 0-2.343.84-.93.838-1.093 2.242z"/></g><g aria-label="testing)" style="-inkscape-font-specification:Montserrat-Light" font-weight="300" font-size="14" font-family="Montserrat"><path d="M823.511 109.387q-1.066.73-2.224.747-1.14 0-1.823-.692-.683-.702-.683-2.106v-5.614h-1.413v-1.176h1.413v-2.598h1.44v2.598l3.117-.027v1.203h-3.117v5.35q0 .875.328 1.267.328.383.984.383.766 0 1.568-.51zM829.559 100.19q2.315 0 3.49 1.486 1.177 1.477 1.058 4.038h-8.02q.182 1.44 1.148 2.288.975.847 2.415.847.912 0 1.686-.319.775-.319 1.358-.911l.802.857q-.71.783-1.731 1.212-1.012.428-2.224.428-1.44 0-2.552-.62-1.112-.628-1.732-1.759-.61-1.13-.61-2.588 0-1.459.619-2.58.629-1.13 1.75-1.75 1.121-.629 2.543-.629zm3.245 4.33q-.073-1.422-.966-2.251-.885-.83-2.315-.83-1.404 0-2.343.839-.93.838-1.094 2.242zM839.297 100.172q.884 0 1.705.237.82.228 1.43.656l-.555 1.158q-.575-.374-1.286-.583-.71-.22-1.385-.22-.875 0-1.413.329-.528.319-.528.975 0 .447.3.748.301.3.739.492.437.182 1.221.4 1.03.302 1.668.602.647.301 1.103.875.456.566.456 1.477 0 1.385-1.04 2.096-1.03.702-2.56.702-1.067 0-2.079-.364-1.002-.365-1.695-1.012l.565-1.103q.62.574 1.504.912.884.337 1.759.337.93 0 1.513-.365.592-.364.592-1.075t-.565-1.049q-.565-.346-1.74-.683-1.03-.32-1.641-.593-.602-.282-1.048-.829-.438-.556-.438-1.44 0-1.34.966-2.005.976-.675 2.452-.675zM850.167 109.387q-1.066.73-2.224.747-1.14 0-1.823-.692-.683-.702-.683-2.106v-5.614h-1.413v-1.176h1.413v-2.598h1.44v2.598l3.117-.027v1.203h-3.117v5.35q0 .875.328 1.267.328.383.984.383.766 0 1.568-.51zM852.538 110.062v-9.835h1.431v9.835zm.702-13.663q.41 0 .684.291.273.283.273.711 0 .429-.273.72-.274.292-.684.292-.41 0-.683-.282-.265-.292-.265-.73 0-.428.265-.71.273-.292.683-.292zM862.725 100.172q1.76 0 2.744 1.021.993 1.012.993 2.798v6.07h-1.458v-5.678q0-1.303-.738-2.032-.738-.73-2.042-.73-1.44.019-2.306.885-.866.856-1.002 2.27v5.286h-1.45v-9.835h1.45v2.16q1.011-2.187 3.81-2.215zM878.28 109.032q0 1.421-.62 2.479-.62 1.066-1.741 1.631-1.112.574-2.589.574-2.187-.018-4.028-1.412l.665-1.121q.747.62 1.55.92.801.31 1.758.328 1.605 0 2.57-.92.976-.912.976-2.443v-1.486q-.52.994-1.458 1.523-.93.528-2.16.528-1.304 0-2.325-.601-1.02-.611-1.595-1.696-.565-1.084-.565-2.46 0-1.368.556-2.425.565-1.067 1.568-1.668 1.012-.61 2.315-.61 1.249 0 2.178.528.94.529 1.486 1.522v-1.996h1.458zm-4.822-.63q.975 0 1.74-.446.766-.456 1.195-1.249.428-.793.428-1.777 0-1.012-.428-1.805-.429-.793-1.194-1.24-.766-.446-1.741-.446-.966 0-1.732.447-.766.446-1.203 1.24-.438.792-.438 1.804 0 .994.438 1.786.437.784 1.203 1.24.766.447 1.732.447zM881.428 96.207q1.021 1.614 1.586 3.692.574 2.078.574 4.393t-.574 4.411q-.565 2.088-1.586 3.674h1.322q1.085-1.568 1.65-3.655.574-2.097.574-4.43 0-2.333-.574-4.411-.565-2.088-1.65-3.674z"/></g><path d="M851.19 477.528h-86.4v-110.4h172.8v110.4z" fill="#ddd" fill-rule="evenodd"/><path d="M851.19 477.528h-86.4v-110.4h172.8v110.4z" fill="none" stroke="#f58220" stroke-width="3.0559923599999994" stroke-linejoin="round" stroke-miterlimit="10"/><g aria-label="Mainnet" style="-inkscape-font-specification:Montserrat-Light" font-weight="300" font-size="18" font-family="Montserrat"><path d="M820.556 420.862l-.035-13.852-6.117 12.07h-1.149l-6.094-12.07v13.852h-1.828v-16.805h2.38l6.14 12.105 6.117-12.105h2.356v16.805zM834.923 418.916q-1.511 2.04-4.629 2.04-1.277 0-2.261-.505-.973-.504-1.512-1.382-.527-.891-.527-1.98 0-1.653 1.242-2.626 1.254-.973 3.492-.996h4.148v-.738q0-1.418-.867-2.18-.855-.773-2.52-.773-1.921 0-4.007 1.441l-.785-1.371q1.347-.89 2.484-1.29 1.137-.41 2.672-.41 2.332 0 3.586 1.15 1.266 1.148 1.289 3.21l.023 8.356h-1.828zm-4.265.41q1.605 0 2.742-.75 1.137-.761 1.5-2.086v-1.511h-3.938q-3.21 0-3.21 2.039 0 1.054.785 1.687.797.621 2.12.621zM840.811 420.862v-12.645h1.84v12.645zm.903-17.567q.527 0 .879.375.351.363.351.914t-.351.926q-.352.375-.88.375-.527 0-.878-.363-.34-.375-.34-.938 0-.55.34-.914.351-.375.879-.375zM854.077 408.147q2.262 0 3.528 1.312 1.277 1.301 1.277 3.598v7.805h-1.875v-7.301q0-1.676-.95-2.614-.949-.937-2.624-.937-1.852.023-2.965 1.137-1.113 1.101-1.29 2.918v6.797h-1.863v-12.645h1.864v2.777q1.3-2.812 4.898-2.847zM869.677 408.147q2.262 0 3.528 1.312 1.277 1.301 1.277 3.598v7.805h-1.875v-7.301q0-1.676-.95-2.614-.949-.937-2.624-.937-1.852.023-2.965 1.137-1.113 1.101-1.29 2.918v6.797h-1.862v-12.645h1.863v2.777q1.3-2.812 4.898-2.847zM883.675 408.17q2.976 0 4.488 1.91 1.512 1.899 1.36 5.192H879.21q.234 1.851 1.476 2.941 1.254 1.09 3.106 1.09 1.172 0 2.168-.41.996-.41 1.746-1.172l1.031 1.101q-.914 1.008-2.227 1.56-1.3.55-2.859.55-1.851 0-3.281-.797-1.43-.809-2.227-2.262-.785-1.453-.785-3.328 0-1.875.797-3.316.809-1.453 2.25-2.25 1.441-.809 3.27-.809zm4.171 5.567q-.093-1.829-1.242-2.895-1.136-1.066-2.976-1.066-1.805 0-3.012 1.078-1.195 1.078-1.406 2.883zM899.155 419.994q-1.371.938-2.86.961-1.464 0-2.343-.89-.88-.903-.88-2.707v-7.22h-1.816v-1.51h1.817v-3.34h1.851v3.34l4.008-.036v1.547h-4.008v6.879q0 1.125.422 1.629.422.492 1.266.492.984 0 2.016-.656z"/></g><g aria-label="(production)" style="-inkscape-font-specification:Montserrat-Light" font-weight="300" font-size="14" font-family="Montserrat"><path d="M799.292 430.474q-1.021 1.613-1.595 3.691-.566 2.079-.566 4.394t.566 4.411q.574 2.087 1.595 3.673h-1.322q-1.085-1.567-1.659-3.655-.565-2.096-.565-4.43 0-2.333.565-4.41.574-2.088 1.659-3.674zM806.833 434.439q1.385 0 2.452.638 1.075.629 1.668 1.768.601 1.14.601 2.589 0 1.44-.592 2.57-.583 1.13-1.65 1.76-1.057.619-2.442.619-1.304 0-2.288-.565-.976-.574-1.531-1.595v5.724h-1.459v-13.453h1.459v2.123q.537-1.048 1.513-1.613.984-.565 2.27-.565zm-.255 8.622q1.002 0 1.805-.465.802-.474 1.248-1.312.456-.839.456-1.887t-.456-1.877q-.446-.83-1.248-1.304-.803-.474-1.805-.474-1.03 0-1.832.465t-1.249 1.313q-.446.838-.446 1.877 0 1.067.446 1.896.447.83 1.249 1.303.802.465 1.832.465zM815.606 436.672q.492-1.076 1.386-1.64.893-.575 2.142-.593v1.467q-1.532-.018-2.461.857-.93.866-1.067 2.343v5.222h-1.449v-9.834h1.45zM825.075 434.457q1.44 0 2.57.629 1.14.62 1.777 1.75.638 1.13.638 2.561 0 1.459-.638 2.589t-1.777 1.768q-1.13.629-2.57.629t-2.58-.629q-1.14-.638-1.777-1.768-.63-1.13-.63-2.589 0-1.44.63-2.561.638-1.13 1.777-1.75 1.14-.629 2.58-.629zm0 1.322q-1.012 0-1.823.465-.812.464-1.258 1.294-.447.82-.447 1.877 0 1.067.447 1.896.446.83 1.258 1.304.81.464 1.823.464 1.011 0 1.822-.464.812-.474 1.258-1.304.447-.83.447-1.896 0-1.066-.447-1.886-.446-.82-1.267-1.285-.81-.465-1.813-.465zM841.576 444.328h-1.458v-2.105q-.556 1.048-1.54 1.613-.976.565-2.288.565-1.386 0-2.47-.629-1.076-.638-1.677-1.777-.593-1.14-.593-2.598t.593-2.58q.601-1.13 1.677-1.758 1.075-.638 2.452-.638 1.303 0 2.306.565 1.002.565 1.54 1.631v-6.143h1.458zm-5.004-1.23q1.03 0 1.832-.465.802-.474 1.258-1.313.456-.838.456-1.886 0-1.067-.456-1.905-.456-.839-1.258-1.313t-1.832-.474q-1.03 0-1.84.474-.812.474-1.268 1.322-.455.838-.455 1.896 0 1.048.455 1.886.456.839 1.267 1.313.811.465 1.841.465zM853.722 444.328h-1.45v-2.224q-.947 2.242-3.736 2.279-1.714 0-2.698-1.021-.976-1.03-.976-2.807v-6.061h1.45v5.669q0 1.303.729 2.032.729.73 1.996.73 1.513-.019 2.37-1.012.866-1.003.866-2.589v-4.83h1.449zM861.27 434.457q1.14 0 2.087.383.957.383 1.623 1.066l-.802 1.03q-1.194-1.14-2.926-1.14-1.012 0-1.805.457-.793.455-1.24 1.285-.446.82-.446 1.877 0 1.067.447 1.887.446.82 1.24 1.294.792.465 1.804.465.966 0 1.74-.328.775-.328 1.304-.948l.839.903q-.675.802-1.687 1.248-1.002.447-2.25.447-1.423 0-2.526-.62-1.102-.629-1.731-1.759-.62-1.13-.62-2.589 0-1.458.629-2.579.638-1.13 1.768-1.75 1.13-.629 2.552-.629zM872.9 443.654q-1.066.729-2.223.747-1.14 0-1.823-.693-.684-.701-.684-2.105v-5.615h-1.413v-1.175h1.413v-2.598h1.44v2.598l3.117-.028v1.203h-3.117v5.35q0 .876.328 1.268.328.382.985.382.765 0 1.567-.51zM875.272 444.328v-9.834h1.43v9.834zm.702-13.663q.41 0 .683.292.274.283.274.711t-.274.72q-.273.292-.683.292-.41 0-.684-.283-.264-.291-.264-.729 0-.428.264-.71.273-.293.684-.293zM884.192 434.457q1.44 0 2.57.629 1.14.62 1.778 1.75.638 1.13.638 2.561 0 1.459-.638 2.589t-1.778 1.768q-1.13.629-2.57.629t-2.58-.629q-1.139-.638-1.777-1.768-.629-1.13-.629-2.589 0-1.44.63-2.561.637-1.13 1.776-1.75 1.14-.629 2.58-.629zm0 1.322q-1.012 0-1.823.465-.811.464-1.258 1.294-.446.82-.446 1.877 0 1.067.446 1.896.447.83 1.258 1.304.811.464 1.823.464t1.823-.464q.811-.474 1.258-1.304.446-.83.446-1.896 0-1.066-.446-1.886-.447-.82-1.267-1.285-.812-.465-1.814-.465zM896.92 434.439q1.76 0 2.744 1.02.993 1.012.993 2.799v6.07H899.2v-5.678q0-1.304-.739-2.033-.738-.729-2.041-.729-1.44.018-2.306.884-.866.857-1.003 2.27v5.286h-1.449v-9.834h1.45v2.16q1.011-2.188 3.81-2.215zM903.9 430.474q1.021 1.613 1.586 3.691.574 2.079.574 4.394t-.574 4.411q-.565 2.087-1.586 3.673h1.322q1.085-1.567 1.65-3.655.574-2.096.574-4.43 0-2.333-.574-4.41-.565-2.088-1.65-3.674z"/></g><path d="M851.19 305.795h-86.4v-110.4h172.8v110.4z" fill="#ddd" fill-rule="evenodd"/><path d="M851.19 305.795h-86.4v-110.4h172.8v110.4z" fill="none" stroke="#b2b2b2" stroke-width="3.0559923599999994" stroke-linejoin="round" stroke-miterlimit="10"/><g aria-label="Testnet" style="-inkscape-font-specification:Montserrat-Light" font-weight="300" font-size="18" font-family="Montserrat"><path d="M816.443 222.842v14.953h-1.922v-14.953h-5.461v-1.852h12.879v1.852zM827.707 225.103q2.976 0 4.488 1.91 1.512 1.9 1.36 5.192h-10.313q.234 1.852 1.476 2.941 1.254 1.09 3.106 1.09 1.172 0 2.168-.41.996-.41 1.746-1.172l1.031 1.102q-.914 1.008-2.226 1.558-1.301.551-2.86.551-1.851 0-3.281-.797-1.43-.808-2.227-2.261-.785-1.454-.785-3.329 0-1.875.797-3.316.809-1.453 2.25-2.25 1.441-.809 3.27-.809zm4.171 5.567q-.093-1.828-1.242-2.895-1.136-1.066-2.976-1.066-1.805 0-3.012 1.078-1.195 1.078-1.406 2.883zM840.131 225.08q1.137 0 2.191.305 1.055.293 1.84.843l-.715 1.489q-.738-.48-1.652-.75-.914-.282-1.781-.282-1.125 0-1.817.422-.68.41-.68 1.254 0 .574.388.961.386.387.949.633.562.234 1.57.516 1.324.386 2.145.773.832.387 1.418 1.125.585.727.585 1.899 0 1.78-1.335 2.695-1.325.902-3.293.902-1.372 0-2.672-.469-1.29-.468-2.18-1.3l.727-1.418q.796.738 1.933 1.172 1.137.433 2.262.433 1.195 0 1.945-.469.762-.468.762-1.382 0-.914-.727-1.348-.726-.445-2.238-.879-1.324-.41-2.11-.762-.773-.363-1.347-1.066-.562-.715-.562-1.852 0-1.722 1.242-2.578 1.254-.867 3.152-.867zM854.107 236.928q-1.371.937-2.86.96-1.464 0-2.343-.89-.88-.902-.88-2.707v-7.219h-1.816v-1.512h1.817v-3.34h1.851v3.34l4.008-.035v1.547h-4.008v6.88q0 1.124.422 1.628.422.492 1.266.492.984 0 2.015-.656zM863.677 225.08q2.262 0 3.528 1.313 1.277 1.3 1.277 3.597v7.805h-1.875v-7.3q0-1.677-.95-2.614-.949-.938-2.624-.938-1.852.024-2.965 1.137-1.113 1.102-1.29 2.918v6.797h-1.862V225.15h1.863v2.778q1.3-2.813 4.898-2.848zM877.675 225.103q2.976 0 4.488 1.91 1.512 1.9 1.36 5.192H873.21q.234 1.852 1.476 2.941 1.254 1.09 3.106 1.09 1.172 0 2.168-.41.996-.41 1.746-1.172l1.031 1.102q-.914 1.008-2.227 1.558-1.3.551-2.859.551-1.851 0-3.281-.797-1.43-.808-2.227-2.261-.785-1.454-.785-3.329 0-1.875.797-3.316.809-1.453 2.25-2.25 1.441-.809 3.27-.809zm4.171 5.567q-.093-1.828-1.242-2.895-1.136-1.066-2.976-1.066-1.805 0-3.012 1.078-1.195 1.078-1.406 2.883zM893.155 236.928q-1.371.937-2.86.96-1.464 0-2.343-.89-.88-.902-.88-2.707v-7.219h-1.816v-1.512h1.817v-3.34h1.851v3.34l4.008-.035v1.547h-4.008v6.88q0 1.124.422 1.628.422.492 1.266.492.984 0 2.016-.656z"/></g><g aria-label="(network" style="-inkscape-font-specification:Montserrat-Light" font-weight="300" font-size="14" font-family="Montserrat"><path d="M815.692 247.407q-1.021 1.614-1.595 3.692-.566 2.078-.566 4.393t.566 4.411q.574 2.088 1.595 3.674h-1.322q-1.085-1.568-1.659-3.655-.565-2.097-.565-4.43 0-2.333.565-4.411.574-2.088 1.659-3.674zM823.16 251.372q1.76 0 2.744 1.021.993 1.012.993 2.798v6.07h-1.458v-5.678q0-1.303-.738-2.032-.739-.73-2.042-.73-1.44.019-2.306.885-.866.856-1.003 2.27v5.286h-1.449v-9.835h1.45v2.16q1.011-2.187 3.81-2.215zM834.196 251.39q2.315 0 3.491 1.486 1.176 1.477 1.057 4.038h-8.02q.182 1.44 1.148 2.288.975.847 2.415.847.912 0 1.687-.319.774-.319 1.358-.911l.802.857q-.711.783-1.732 1.212-1.012.428-2.224.428-1.44 0-2.552-.62-1.112-.628-1.732-1.759-.61-1.13-.61-2.588 0-1.459.62-2.58.628-1.13 1.75-1.75 1.12-.629 2.542-.629zm3.245 4.33q-.073-1.422-.966-2.251-.884-.83-2.315-.83-1.404 0-2.343.839-.93.838-1.093 2.242zM846.405 260.587q-1.067.73-2.224.747-1.14 0-1.823-.692-.684-.702-.684-2.106v-5.614h-1.413v-1.176h1.413v-2.598h1.44v2.598l3.117-.027v1.203h-3.117v5.35q0 .875.328 1.267.328.383.985.383.765 0 1.567-.51zM857.896 261.262l-2.889-7.994-2.871 7.994h-1.513l-3.682-9.835h1.53l2.918 8.322 2.852-8.322h1.532l2.889 8.322 2.88-8.322h1.513l-3.646 9.835zM868.504 251.39q1.44 0 2.57.63 1.14.62 1.778 1.75.638 1.13.638 2.56 0 1.459-.638 2.59-.638 1.13-1.778 1.767-1.13.63-2.57.63t-2.58-.63q-1.139-.638-1.777-1.768-.629-1.13-.629-2.588 0-1.44.63-2.562.637-1.13 1.776-1.75 1.14-.629 2.58-.629zm0 1.322q-1.012 0-1.823.465-.811.465-1.258 1.294-.446.82-.446 1.878 0 1.066.446 1.896.447.829 1.258 1.303.811.465 1.823.465t1.823-.465q.811-.474 1.258-1.303.446-.83.446-1.896 0-1.067-.446-1.887-.447-.82-1.267-1.285-.812-.465-1.814-.465zM877.422 253.605q.492-1.075 1.386-1.64.893-.575 2.142-.593v1.468q-1.532-.019-2.461.856-.93.866-1.067 2.343v5.223h-1.449v-9.835h1.45zM884.448 258.445v2.817h-1.458v-13.855h1.458v9.06l5.058-5.04h1.714l-3.673 3.8 4.065 6.035h-1.732l-3.363-4.968z"/></g><g aria-label="testing)" style="-inkscape-font-specification:Montserrat-Light" font-weight="300" font-size="14" font-family="Montserrat"><path d="M823.511 283.254q-1.066.729-2.224.747-1.14 0-1.823-.693-.683-.701-.683-2.105v-5.615h-1.413v-1.175h1.413v-2.598h1.44v2.598l3.117-.028v1.203h-3.117v5.35q0 .876.328 1.268.328.382.984.382.766 0 1.568-.51zM829.559 274.057q2.315 0 3.49 1.486 1.177 1.476 1.058 4.038h-8.02q.182 1.44 1.148 2.287.975.848 2.415.848.912 0 1.686-.32.775-.318 1.358-.91l.802.856q-.71.784-1.731 1.212-1.012.429-2.224.429-1.44 0-2.552-.62-1.112-.629-1.732-1.759-.61-1.13-.61-2.589 0-1.458.619-2.579.629-1.13 1.75-1.75 1.121-.629 2.543-.629zm3.245 4.33q-.073-1.422-.966-2.252-.885-.83-2.315-.83-1.404 0-2.343.84-.93.838-1.094 2.242zM839.297 274.039q.884 0 1.705.237.82.228 1.43.656l-.555 1.158q-.575-.374-1.286-.584-.71-.218-1.385-.218-.875 0-1.413.328-.528.319-.528.975 0 .447.3.747.301.301.739.493.437.182 1.221.4 1.03.301 1.668.602.647.3 1.103.875.456.565.456 1.477 0 1.385-1.04 2.096-1.03.702-2.56.702-1.067 0-2.079-.365-1.002-.364-1.695-1.011l.565-1.103q.62.574 1.504.911.884.337 1.759.337.93 0 1.513-.364.592-.365.592-1.076 0-.71-.565-1.048-.565-.346-1.74-.683-1.03-.32-1.641-.593-.602-.282-1.048-.83-.438-.555-.438-1.44 0-1.34.966-2.005.976-.674 2.452-.674zM850.167 283.254q-1.066.729-2.224.747-1.14 0-1.823-.693-.683-.701-.683-2.105v-5.615h-1.413v-1.175h1.413v-2.598h1.44v2.598l3.117-.028v1.203h-3.117v5.35q0 .876.328 1.268.328.382.984.382.766 0 1.568-.51zM852.538 283.928v-9.834h1.431v9.834zm.702-13.663q.41 0 .684.292.273.283.273.711t-.273.72q-.274.292-.684.292-.41 0-.683-.283-.265-.291-.265-.729 0-.428.265-.71.273-.293.683-.293zM862.725 274.039q1.76 0 2.744 1.02.993 1.012.993 2.799v6.07h-1.458v-5.678q0-1.304-.738-2.033-.738-.729-2.042-.729-1.44.018-2.306.884-.866.857-1.002 2.27v5.286h-1.45v-9.834h1.45v2.16q1.011-2.188 3.81-2.215zM878.28 282.898q0 1.422-.62 2.48-.62 1.066-1.741 1.63-1.112.575-2.589.575-2.187-.018-4.028-1.413l.665-1.12q.747.62 1.55.92.801.31 1.758.328 1.605 0 2.57-.92.976-.912.976-2.443v-1.486q-.52.994-1.458 1.522-.93.529-2.16.529-1.304 0-2.325-.602-1.02-.61-1.595-1.695-.565-1.085-.565-2.461 0-1.367.556-2.424.565-1.067 1.568-1.668 1.012-.611 2.315-.611 1.249 0 2.178.529.94.528 1.486 1.522v-1.996h1.458zm-4.822-.629q.975 0 1.74-.446.766-.456 1.195-1.249.428-.793.428-1.777 0-1.012-.428-1.805-.429-.793-1.194-1.24-.766-.446-1.741-.446-.966 0-1.732.446-.766.447-1.203 1.24-.438.793-.438 1.805 0 .993.438 1.786.437.784 1.203 1.24.766.446 1.732.446zM881.428 270.074q1.021 1.613 1.586 3.691.574 2.079.574 4.394t-.574 4.411q-.565 2.087-1.586 3.673h1.322q1.085-1.567 1.65-3.655.574-2.096.574-4.43 0-2.333-.574-4.41-.565-2.088-1.65-3.674z"/></g><path d="M435.724 76.728c83.066 0 114.933 31.6 123.066 94.534" fill="none" stroke="#000" stroke-width="3.9999899999999995" stroke-linejoin="round" stroke-miterlimit="10"/><path d="M560.257 195.928l6.933-26.4-17.2 1.067z" fill-rule="evenodd"/><path d="M349.324 367.128v-210.4" fill="none" stroke="#000" stroke-width="3.9999899999999995" stroke-linejoin="round" stroke-miterlimit="10"/><path d="M349.324 131.928l-8.667 26h17.333z" fill-rule="evenodd"/><path d="M646.657 251.128c88.533 0 40.267-139.866 94.933-169.066" fill="none" stroke="#000" stroke-width="3.9999899999999995" stroke-linejoin="round" stroke-miterlimit="10"/><path d="M764.79 76.728l-27.333-2.266 4.133 16.8z" fill-rule="evenodd"/><path d="M646.657 251.128c88.533 0 41.2-.4 92.933-.533" fill="none" stroke="#000" stroke-width="3.9999899999999995" stroke-linejoin="round" stroke-miterlimit="10"/><path d="M764.79 250.595l-26-8.667v17.334z" fill-rule="evenodd"/><path d="M646.657 251.128c88.533 0 40.267 137.334 94.933 166" fill="none" stroke="#000" stroke-width="3.9999899999999995" stroke-linejoin="round" stroke-miterlimit="10"/><path d="M764.79 422.328l-23.2-14.4-4 16.8z" fill-rule="evenodd"/><g aria-label="Users" style="-inkscape-font-specification:Montserrat-Light" font-weight="300" font-size="18" font-family="Montserrat"><path d="M100.401 43.68q0 3.294-1.875 5.157-1.875 1.852-5.168 1.852-3.316 0-5.203-1.852-1.875-1.863-1.875-5.156v-9.89h1.922v9.89q0 2.426 1.383 3.797 1.382 1.36 3.773 1.36 2.402 0 3.762-1.349 1.36-1.359 1.36-3.808v-9.89h1.921zM108.168 37.88q1.137 0 2.192.305 1.055.293 1.84.843l-.715 1.489q-.738-.48-1.653-.75-.914-.282-1.78-.282-1.126 0-1.817.422-.68.41-.68 1.254 0 .574.387.961t.95.633q.562.234 1.57.516 1.324.386 2.144.773.832.387 1.418 1.125.586.727.586 1.899 0 1.78-1.336 2.695-1.324.902-3.293.902-1.371 0-2.672-.469-1.289-.468-2.18-1.3l.727-1.418q.797.738 1.934 1.172 1.136.433 2.261.433 1.196 0 1.946-.469.761-.468.761-1.382 0-.914-.726-1.348-.727-.445-2.239-.879-1.324-.41-2.109-.762-.773-.363-1.348-1.066-.562-.715-.562-1.852 0-1.722 1.242-2.578 1.254-.867 3.152-.867zM120.776 37.903q2.976 0 4.488 1.91 1.512 1.9 1.36 5.192H116.31q.234 1.852 1.477 2.941 1.254 1.09 3.105 1.09 1.172 0 2.168-.41.996-.41 1.746-1.172l1.031 1.102q-.914 1.008-2.226 1.558-1.3.551-2.86.551-1.851 0-3.28-.797-1.43-.808-2.227-2.261-.785-1.454-.785-3.329 0-1.875.796-3.316.809-1.453 2.25-2.25 1.442-.809 3.27-.809zm4.172 5.567q-.094-1.828-1.242-2.895-1.137-1.066-2.977-1.066-1.805 0-3.012 1.078-1.195 1.078-1.406 2.883zM131.592 40.751q.633-1.383 1.781-2.11 1.149-.738 2.754-.761v1.887q-1.968-.024-3.164 1.101-1.195 1.114-1.37 3.012v6.715h-1.864V37.95h1.863zM141.984 37.88q1.137 0 2.192.305 1.055.293 1.84.843l-.715 1.489q-.738-.48-1.653-.75-.914-.282-1.78-.282-1.126 0-1.817.422-.68.41-.68 1.254 0 .574.387.961t.95.633q.562.234 1.57.516 1.324.386 2.144.773.832.387 1.418 1.125.586.727.586 1.899 0 1.78-1.336 2.695-1.324.902-3.293.902-1.371 0-2.672-.469-1.289-.468-2.18-1.3l.727-1.418q.797.738 1.934 1.172 1.136.433 2.261.433 1.196 0 1.946-.469.761-.468.761-1.382 0-.914-.726-1.348-.727-.445-2.239-.879-1.324-.41-2.109-.762-.773-.363-1.348-1.066-.562-.715-.562-1.852 0-1.722 1.242-2.578 1.254-.867 3.152-.867z"/></g><path d="M156.657 40.728c78.533 0 36.933 27.334 81.2 34.4" fill="none" stroke="#000" stroke-width="3.9999899999999995" stroke-linejoin="round" stroke-miterlimit="10"/><path d="M262.924 76.728l-25.2-10.4-1.2 17.334z" fill-rule="evenodd"/><g aria-label="Merchant" style="-inkscape-font-specification:Montserrat-Light" font-weight="300" font-size="18" font-family="Montserrat"><path d="M51.89 122.862l-.036-13.852-6.117 12.07h-1.148l-6.094-12.07v13.852h-1.828v-16.805h2.379l6.14 12.105 6.117-12.105h2.356v16.805zM63.552 110.17q2.976 0 4.488 1.91 1.512 1.899 1.36 5.192H59.087q.234 1.851 1.477 2.941 1.254 1.09 3.105 1.09 1.172 0 2.168-.41.996-.41 1.746-1.172l1.031 1.101q-.914 1.008-2.226 1.56-1.3.55-2.86.55-1.851 0-3.28-.797-1.43-.809-2.227-2.262-.785-1.453-.785-3.328 0-1.875.796-3.316.809-1.453 2.25-2.25 1.442-.809 3.27-.809zm4.172 5.567q-.094-1.829-1.242-2.895-1.137-1.066-2.977-1.066-1.805 0-3.012 1.078-1.195 1.078-1.406 2.883zM74.488 113.018q.633-1.383 1.781-2.11 1.149-.738 2.754-.761v1.886q-1.968-.023-3.164 1.102-1.195 1.113-1.37 3.012v6.715h-1.864v-12.645h1.863zM86.615 110.17q1.465 0 2.683.492 1.23.493 2.086 1.371l-1.03 1.325q-1.536-1.465-3.763-1.465-1.3 0-2.32.586-1.02.586-1.594 1.652-.574 1.055-.574 2.414 0 1.371.574 2.426.575 1.055 1.594 1.664 1.02.598 2.32.598 1.243 0 2.239-.422.996-.422 1.675-1.219l1.079 1.16q-.868 1.031-2.168 1.606-1.29.574-2.895.574-1.828 0-3.246-.797-1.418-.809-2.227-2.262-.796-1.453-.796-3.328 0-1.875.808-3.316.82-1.453 2.274-2.25 1.453-.809 3.28-.809zM101.871 110.147q2.262 0 3.528 1.312 1.277 1.301 1.277 3.598v7.805H104.8v-7.301q0-1.676-.95-2.614-.949-.937-2.624-.937-1.993.023-3.13 1.3-1.136 1.266-1.136 3.34v6.212h-1.875v-17.813h1.875v7.992q1.242-2.86 4.91-2.894zM118.673 120.916q-1.512 2.04-4.63 2.04-1.277 0-2.26-.505-.974-.504-1.513-1.382-.527-.891-.527-1.98 0-1.653 1.242-2.626 1.254-.973 3.492-.996h4.149v-.738q0-1.418-.867-2.18-.856-.773-2.52-.773-1.922 0-4.008 1.441l-.785-1.371q1.348-.89 2.485-1.29 1.136-.41 2.671-.41 2.332 0 3.586 1.15 1.266 1.148 1.29 3.21l.023 8.356h-1.828zm-4.266.41q1.606 0 2.742-.75 1.137-.761 1.5-2.086v-1.511h-3.937q-3.211 0-3.211 2.039 0 1.054.785 1.687.797.621 2.121.621zM131.323 110.147q2.261 0 3.527 1.312 1.277 1.301 1.277 3.598v7.805h-1.875v-7.301q0-1.676-.949-2.614-.95-.937-2.625-.937-1.852.023-2.965 1.137-1.113 1.101-1.289 2.918v6.797h-1.863v-12.645h1.863v2.777q1.3-2.812 4.899-2.847zM146.688 121.994q-1.37.938-2.86.961-1.464 0-2.343-.89-.879-.903-.879-2.707v-7.22h-1.816v-1.51h1.816v-3.34h1.852v3.34l4.008-.036v1.547h-4.008v6.879q0 1.125.422 1.629.421.492 1.265.492.985 0 2.016-.656z"/></g><g aria-label="Developers" style="-inkscape-font-specification:Montserrat-Light" font-weight="300" font-size="18" font-family="Montserrat"><path d="M26.797 134.857q2.426 0 4.383 1.113 1.968 1.102 3.105 3.024 1.149 1.91 1.149 4.265 0 2.356-1.149 4.278-1.137 1.921-3.129 3.023t-4.43 1.102H20v-16.805zm-4.875 14.976h4.898q1.852 0 3.375-.843 1.524-.856 2.403-2.356.89-1.5.89-3.351 0-1.852-.902-3.34-.902-1.5-2.438-2.367-1.535-.868-3.398-.868h-4.828zM43.573 138.97q2.977 0 4.489 1.91 1.511 1.899 1.359 5.192H39.108q.235 1.851 1.477 2.941 1.254 1.09 3.105 1.09 1.172 0 2.168-.41.996-.41 1.746-1.172l1.032 1.101q-.914 1.008-2.227 1.56-1.3.55-2.86.55-1.85 0-3.28-.797-1.43-.809-2.227-2.262-.785-1.453-.785-3.328 0-1.875.797-3.316.808-1.453 2.25-2.25 1.441-.809 3.27-.809zm4.172 5.567q-.094-1.829-1.242-2.895-1.137-1.066-2.977-1.066-1.804 0-3.011 1.078-1.196 1.078-1.407 2.883zM55.23 151.662l-5.015-12.645h1.992l4.031 10.7 4.008-10.7h1.898l-4.968 12.645zM68.917 138.97q2.977 0 4.489 1.91 1.511 1.899 1.359 5.192H64.452q.235 1.851 1.477 2.941 1.254 1.09 3.105 1.09 1.172 0 2.168-.41.997-.41 1.747-1.172l1.03 1.101q-.913 1.008-2.226 1.56-1.3.55-2.86.55-1.85 0-3.28-.797-1.43-.809-2.227-2.262-.785-1.453-.785-3.328 0-1.875.797-3.316.808-1.453 2.25-2.25 1.441-.809 3.27-.809zm4.172 5.567q-.094-1.829-1.242-2.895-1.137-1.066-2.977-1.066-1.804 0-3.011 1.078-1.196 1.078-1.407 2.883zM77.987 151.662v-17.813h1.875v17.813zM89.771 138.97q1.852 0 3.305.809 1.465.797 2.285 2.25.82 1.453.82 3.293 0 1.875-.82 3.328-.82 1.453-2.285 2.273-1.453.809-3.305.809t-3.316-.809q-1.465-.82-2.286-2.273-.808-1.453-.808-3.328 0-1.852.808-3.293.82-1.453 2.286-2.25 1.464-.809 3.316-.809zm0 1.7q-1.3 0-2.344.597-1.043.598-1.617 1.664-.574 1.055-.574 2.414 0 1.371.574 2.438.574 1.066 1.617 1.675 1.043.598 2.344.598 1.3 0 2.344-.598 1.043-.609 1.617-1.675.574-1.067.574-2.438 0-1.371-.574-2.426-.574-1.054-1.629-1.652-1.043-.598-2.332-.598zM106.302 138.947q1.78 0 3.152.82 1.383.809 2.145 2.273.773 1.465.773 3.329 0 1.851-.762 3.304-.75 1.453-2.12 2.262-1.36.797-3.141.797-1.676 0-2.942-.727-1.254-.738-1.969-2.05v7.359h-1.875v-17.297h1.875v2.73q.692-1.347 1.946-2.074 1.265-.726 2.918-.726zm-.328 11.086q1.289 0 2.32-.598 1.031-.61 1.605-1.688.586-1.078.586-2.425 0-1.348-.586-2.414-.574-1.067-1.605-1.676-1.031-.61-2.32-.61-1.325 0-2.356.598t-1.605 1.688q-.575 1.078-.575 2.414 0 1.37.575 2.437.574 1.067 1.605 1.676 1.031.598 2.356.598zM120.733 138.97q2.977 0 4.489 1.91 1.511 1.899 1.359 5.192h-10.313q.235 1.851 1.477 2.941 1.254 1.09 3.105 1.09 1.172 0 2.168-.41.996-.41 1.746-1.172l1.032 1.101q-.914 1.008-2.227 1.56-1.3.55-2.86.55-1.85 0-3.28-.797-1.43-.809-2.227-2.262-.785-1.453-.785-3.328 0-1.875.797-3.316.808-1.453 2.25-2.25 1.441-.809 3.27-.809zm4.172 5.567q-.094-1.829-1.242-2.895-1.137-1.066-2.977-1.066-1.804 0-3.011 1.078-1.196 1.078-1.407 2.883zM131.55 141.818q.632-1.383 1.78-2.11 1.15-.738 2.755-.761v1.886q-1.97-.023-3.164 1.102-1.196 1.113-1.372 3.012v6.715h-1.863v-12.645h1.863zM142.086 138.947q1.136 0 2.191.304 1.055.293 1.84.844l-.715 1.488q-.738-.48-1.652-.75-.914-.28-1.781-.28-1.125 0-1.817.421-.68.41-.68 1.254 0 .574.387.96.387.388.95.634.562.234 1.57.515 1.324.387 2.144.774.832.386 1.418 1.125.586.726.586 1.898 0 1.781-1.336 2.696-1.324.902-3.293.902-1.37 0-2.672-.469-1.289-.469-2.18-1.3l.727-1.419q.797.739 1.934 1.172 1.137.434 2.262.434 1.195 0 1.945-.469.762-.469.762-1.383t-.727-1.347q-.727-.446-2.238-.88-1.324-.41-2.11-.761-.773-.363-1.347-1.066-.563-.715-.563-1.852 0-1.723 1.242-2.578 1.254-.867 3.153-.867z"/></g><path d="M156.657 127.528c78.533 0 36.8-38.666 81.333-48.533" fill="none" stroke="#000" stroke-width="3.9999899999999995" stroke-linejoin="round" stroke-miterlimit="10"/><path d="M262.924 76.728l-26.667-6.133 1.733 17.333z" fill-rule="evenodd"/><g aria-label="DAP" style="-inkscape-font-specification:Montserrat-Light" font-weight="300" font-size="18" font-family="Montserrat"><path d="M104.797 400.99q2.426 0 4.383 1.113 1.968 1.102 3.105 3.024 1.149 1.91 1.149 4.266 0 2.355-1.149 4.277-1.137 1.922-3.129 3.023-1.992 1.102-4.43 1.102H98V400.99zm-4.875 14.977h4.898q1.852 0 3.375-.844 1.524-.855 2.403-2.355.89-1.5.89-3.352 0-1.852-.902-3.34-.902-1.5-2.438-2.367-1.535-.867-3.398-.867h-4.828zM117.993 413.553l-1.875 4.242h-2.04l7.536-16.805h1.992l7.512 16.805h-2.086l-1.875-4.242zm4.558-10.371l-3.738 8.52h7.535zM140.148 400.99q3.118 0 4.829 1.477 1.722 1.476 1.722 4.172 0 2.789-1.722 4.324-1.711 1.523-4.829 1.523h-4.394v5.309h-1.922V400.99zm-4.394 9.656h4.324q2.309 0 3.54-1.007 1.23-1.008 1.23-2.954 0-1.898-1.243-2.87-1.23-.973-3.527-.973h-4.324z"/></g><g aria-label="Developers" style="-inkscape-font-specification:Montserrat-Light" font-weight="300" font-size="18" font-family="Montserrat"><path d="M26.797 429.79q2.426 0 4.383 1.113 1.968 1.102 3.105 3.024 1.149 1.91 1.149 4.266 0 2.355-1.149 4.277-1.137 1.922-3.129 3.023-1.992 1.102-4.43 1.102H20V429.79zm-4.875 14.977h4.898q1.852 0 3.375-.844 1.524-.855 2.403-2.355.89-1.5.89-3.352 0-1.852-.902-3.34-.902-1.5-2.438-2.367-1.535-.867-3.398-.867h-4.828zM43.573 433.903q2.977 0 4.489 1.91 1.511 1.899 1.359 5.192H39.108q.235 1.852 1.477 2.941 1.254 1.09 3.105 1.09 1.172 0 2.168-.41.996-.41 1.746-1.172l1.032 1.102q-.914 1.008-2.227 1.558-1.3.551-2.86.551-1.85 0-3.28-.797-1.43-.808-2.227-2.261-.785-1.454-.785-3.329 0-1.875.797-3.316.808-1.453 2.25-2.25 1.441-.809 3.27-.809zm4.172 5.567q-.094-1.828-1.242-2.895-1.137-1.066-2.977-1.066-1.804 0-3.011 1.078-1.196 1.078-1.407 2.883zM55.23 446.595l-5.015-12.645h1.992l4.031 10.7 4.008-10.7h1.898l-4.968 12.645zM68.917 433.903q2.977 0 4.489 1.91 1.511 1.899 1.359 5.192H64.452q.235 1.852 1.477 2.941 1.254 1.09 3.105 1.09 1.172 0 2.168-.41.997-.41 1.747-1.172l1.03 1.102q-.913 1.008-2.226 1.558-1.3.551-2.86.551-1.85 0-3.28-.797-1.43-.808-2.227-2.261-.785-1.454-.785-3.329 0-1.875.797-3.316.808-1.453 2.25-2.25 1.441-.809 3.27-.809zm4.172 5.567q-.094-1.828-1.242-2.895-1.137-1.066-2.977-1.066-1.804 0-3.011 1.078-1.196 1.078-1.407 2.883zM77.987 446.595v-17.813h1.875v17.813zM89.771 433.903q1.852 0 3.305.809 1.465.797 2.285 2.25.82 1.453.82 3.293 0 1.875-.82 3.328-.82 1.453-2.285 2.274-1.453.808-3.305.808t-3.316-.808q-1.465-.82-2.286-2.274-.808-1.453-.808-3.328 0-1.852.808-3.293.82-1.453 2.286-2.25 1.464-.809 3.316-.809zm0 1.7q-1.3 0-2.344.597-1.043.598-1.617 1.664-.574 1.055-.574 2.414 0 1.372.574 2.438t1.617 1.676q1.043.597 2.344.597 1.3 0 2.344-.597 1.043-.61 1.617-1.676.574-1.066.574-2.438 0-1.37-.574-2.425-.574-1.055-1.629-1.653-1.043-.597-2.332-.597zM106.302 433.88q1.78 0 3.152.82 1.383.809 2.145 2.274.773 1.465.773 3.328 0 1.851-.762 3.305-.75 1.453-2.12 2.261-1.36.797-3.141.797-1.676 0-2.942-.726-1.254-.739-1.969-2.051v7.36h-1.875V433.95h1.875v2.73q.692-1.347 1.946-2.073 1.265-.727 2.918-.727zm-.328 11.086q1.289 0 2.32-.598 1.031-.61 1.605-1.687.586-1.078.586-2.426t-.586-2.414q-.574-1.066-1.605-1.676-1.031-.61-2.32-.61-1.325 0-2.356.598t-1.605 1.688q-.575 1.078-.575 2.414 0 1.371.575 2.438.574 1.066 1.605 1.675 1.031.598 2.356.598zM120.733 433.903q2.977 0 4.489 1.91 1.511 1.899 1.359 5.192h-10.313q.235 1.852 1.477 2.941 1.254 1.09 3.105 1.09 1.172 0 2.168-.41.996-.41 1.746-1.172l1.032 1.102q-.914 1.008-2.227 1.558-1.3.551-2.86.551-1.85 0-3.28-.797-1.43-.808-2.227-2.261-.785-1.454-.785-3.329 0-1.875.797-3.316.808-1.453 2.25-2.25 1.441-.809 3.27-.809zm4.172 5.567q-.094-1.828-1.242-2.895-1.137-1.066-2.977-1.066-1.804 0-3.011 1.078-1.196 1.078-1.407 2.883zM131.55 436.751q.632-1.383 1.78-2.11 1.15-.738 2.755-.761v1.887q-1.97-.024-3.164 1.101-1.196 1.114-1.372 3.012v6.715h-1.863V433.95h1.863zM142.086 433.88q1.136 0 2.191.305 1.055.293 1.84.843l-.715 1.489q-.738-.48-1.652-.75-.914-.282-1.781-.282-1.125 0-1.817.422-.68.41-.68 1.254 0 .574.387.961t.95.633q.562.234 1.57.516 1.324.386 2.144.773.832.387 1.418 1.125.586.727.586 1.899 0 1.78-1.336 2.695-1.324.902-3.293.902-1.37 0-2.672-.469-1.289-.468-2.18-1.3l.727-1.418q.797.738 1.934 1.172 1.137.433 2.262.433 1.195 0 1.945-.469.762-.468.762-1.382 0-.914-.727-1.348-.727-.445-2.238-.879-1.324-.41-2.11-.762-.773-.363-1.347-1.066-.563-.715-.563-1.852 0-1.722 1.242-2.578 1.254-.867 3.153-.867z"/></g><path d="M156.657 422.328h81.467" fill="none" stroke="#000" stroke-width="3.9999899999999995" stroke-linejoin="round" stroke-miterlimit="10"/><path d="M262.924 422.328l-25.867-8.666v17.333z" fill-rule="evenodd"/></svg>