<?xml version="1.0" encoding="UTF-8" standalone="no"?>
<svg
   xmlns:dc="http://purl.org/dc/elements/1.1/"
   xmlns:cc="http://creativecommons.org/ns#"
   xmlns:rdf="http://www.w3.org/1999/02/22-rdf-syntax-ns#"
   xmlns:svg="http://www.w3.org/2000/svg"
   xmlns="http://www.w3.org/2000/svg"
   viewBox="0 0 959.11857 499.0564"
   height="499.0564"
   width="959.11853"
   xml:space="preserve"
   id="svg2"
   version="1.1"><metadata
     id="metadata8"><rdf:RDF><cc:Work
         rdf:about=""><dc:format>image/svg+xml</dc:format><dc:type
           rdf:resource="http://purl.org/dc/dcmitype/StillImage" /><dc:title></dc:title></cc:Work></rdf:RDF></metadata><defs
     id="defs6"><clipPath
       id="clipPath18"
       clipPathUnits="userSpaceOnUse"><path
         style="clip-rule:evenodd"
         id="path16"
         d="M 0,0 H 792 V 612 H 0 Z" /></clipPath></defs><g
     transform="matrix(1.3333333,0,0,-1.3333333,-68.2763,698.86152)"
     id="g10"><path
       id="path22"
       style="fill:#dddddd;fill-opacity:1;fill-rule:evenodd;stroke:none"
       d="M 313.2,425.2 H 248.4 V 508 H 378 v -82.8 z" /><g
       id="g24"><path
         id="path26"
         style="fill:none;stroke:#ff60dd;stroke-width:2.29229999;stroke-linecap:butt;stroke-linejoin:round;stroke-miterlimit:10;stroke-dasharray:none;stroke-opacity:1"
         d="M 313.2,425.2 H 248.4 V 508 H 378 v -82.8 z" /></g><g
       id="g28"><text
         id="text32"
         style="font-variant:normal;font-weight:300;font-size:18px;font-family:Montserrat;-inkscape-font-specification:Montserrat-Light;writing-mode:lr-tb;fill:#000000;fill-opacity:1;fill-rule:nonzero;stroke:none"
         transform="matrix(1,0,0,-1,261.4,459.3)"><tspan
           id="tspan30"
           y="0"
           x="0 13.896 26.874001 38.880001 43.776001 56.358002 61.344002 66.132004 76.716003 88.416 95.417999">DAP Clients</tspan></text>
</g><path
       id="path34"
       style="fill:#dddddd;fill-opacity:1;fill-rule:evenodd;stroke:none"
       d="m 313.2,166 h -64.8 v 82.8 H 378 V 166 Z" /><g
       id="g36"><path
         id="path38"
         style="fill:none;stroke:#b2b2b2;stroke-width:2.29229999;stroke-linecap:butt;stroke-linejoin:round;stroke-miterlimit:10;stroke-dasharray:none;stroke-opacity:1"
         d="m 313.2,166 h -64.8 v 82.8 H 378 V 166 Z" /></g><g
       id="g40"><text
         id="text44"
         style="font-variant:normal;font-weight:300;font-size:18px;font-family:Montserrat;-inkscape-font-specification:Montserrat-Light;writing-mode:lr-tb;fill:#000000;fill-opacity:1;fill-rule:nonzero;stroke:none"
         transform="matrix(1,0,0,-1,293.8,210.9)"><tspan
           id="tspan42"
           y="0"
           x="0 13.896 26.874001">DAP</tspan></text>
</g><g
       id="g46"><text
         id="text50"
         style="font-variant:normal;font-weight:300;font-size:18px;font-family:Montserrat;-inkscape-font-specification:Montserrat-Light;writing-mode:lr-tb;fill:#000000;fill-opacity:1;fill-rule:nonzero;stroke:none"
         transform="matrix(1,0,0,-1,269.4,189.3)"><tspan
           id="tspan48"
           y="0"
           x="0 13.5 24.084 35.874001 46.368 52.560001 62.945999 69.75 80.928001">Generator</tspan></text>
</g><path
       id="path52"
       style="fill:#dddddd;fill-opacity:1;fill-rule:evenodd;stroke:none"
       d="m 471.4,294.4 h -64.8 v 82.8 h 129.6 v -82.8 z" /><g
       id="g54"><path
         id="path56"
         style="fill:none;stroke:#ff60dd;stroke-width:2.29229999;stroke-linecap:butt;stroke-linejoin:round;stroke-miterlimit:10;stroke-dasharray:none;stroke-opacity:1"
         d="m 471.4,294.4 h -64.8 v 82.8 h 129.6 v -82.8 z" /></g><g
       id="g58"><text
         id="text62"
         style="font-variant:normal;font-weight:300;font-size:18px;font-family:Montserrat;-inkscape-font-specification:Montserrat-Light;writing-mode:lr-tb;fill:#000000;fill-opacity:1;fill-rule:nonzero;stroke:none"
         transform="matrix(1,0,0,-1,430.6,328.5)"><tspan
           id="tspan60"
           y="0"
           x="0 13.896 26.874001 38.880001 43.776001 54.863998 68.958">DAP SDK</tspan></text>
</g><path
       id="path64"
       style="fill:#dddddd;fill-opacity:1;fill-rule:evenodd;stroke:none"
       d="M 689.6,425.2 H 624.8 V 508 h 129.6 v -82.8 z" /><g
       id="g66"><path
         id="path68"
         style="fill:none;stroke:#b2b2b2;stroke-width:2.29229999;stroke-linecap:butt;stroke-linejoin:round;stroke-miterlimit:10;stroke-dasharray:none;stroke-opacity:1"
         d="M 689.6,425.2 H 624.8 V 508 h 129.6 v -82.8 z" /></g><g
       id="g70"><text
         id="text74"
         style="font-variant:normal;font-weight:300;font-size:18px;font-family:Montserrat;-inkscape-font-specification:Montserrat-Light;writing-mode:lr-tb;fill:#000000;fill-opacity:1;fill-rule:nonzero;stroke:none"
         transform="matrix(1,0,0,-1,668.2,476.2)"><tspan
           id="tspan72"
           y="0"
           x="0 11.988 28.566">VMN</tspan></text>
</g><g
       id="g76"><text
         id="text80"
         style="font-variant:normal;font-weight:300;font-size:14px;font-family:Montserrat;-inkscape-font-specification:Montserrat-Light;writing-mode:lr-tb;fill:#000000;fill-opacity:1;fill-rule:nonzero;stroke:none"
         transform="matrix(1,0,0,-1,649.1,458.5)"><tspan
           id="tspan78"
           y="0"
           x="0 4.1999998 10.584 16.072001 24.066 33.348 42.742001 50.834 54.824001 63.419998 72.603996">(standalone</tspan></text>
</g><g
       id="g82"><text
         id="text86"
         style="font-variant:normal;font-weight:300;font-size:14px;font-family:Montserrat;-inkscape-font-specification:Montserrat-Light;writing-mode:lr-tb;fill:#000000;fill-opacity:1;fill-rule:nonzero;stroke:none"
         transform="matrix(1,0,0,-1,663.7,441.6)"><tspan
           id="tspan84"
           y="0"
           x="0 5.4039998 13.692 19.992001 25.577999 29.274 38.458 47.348">testing)</tspan></text>
</g><path
       id="path88"
       style="fill:#dddddd;fill-opacity:1;fill-rule:evenodd;stroke:none"
       d="m 689.6,166 h -64.8 v 82.8 H 754.4 V 166 Z" /><g
       id="g90"><path
         id="path92"
         style="fill:none;stroke:#f58220;stroke-width:2.29229999;stroke-linecap:butt;stroke-linejoin:round;stroke-miterlimit:10;stroke-dasharray:none;stroke-opacity:1"
         d="m 689.6,166 h -64.8 v 82.8 H 754.4 V 166 Z" /></g><g
       id="g94"><text
         id="text98"
         style="font-variant:normal;font-weight:300;font-size:18px;font-family:Montserrat;-inkscape-font-specification:Montserrat-Light;writing-mode:lr-tb;fill:#000000;fill-opacity:1;fill-rule:nonzero;stroke:none"
         transform="matrix(1,0,0,-1,653.3,208.5)"><tspan
           id="tspan96"
           y="0"
           x="0 16.506001 26.802 31.68 43.380001 55.169998 65.664001">Mainnet</tspan></text>
</g><g
       id="g100"><text
         id="text104"
         style="font-variant:normal;font-weight:300;font-size:14px;font-family:Montserrat;-inkscape-font-specification:Montserrat-Light;writing-mode:lr-tb;fill:#000000;fill-opacity:1;fill-rule:nonzero;stroke:none"
         transform="matrix(1,0,0,-1,646.8,190.9)"><tspan
           id="tspan102"
           y="0"
           x="0 4.1999998 13.692 18.886 27.482 36.973999 46.060001 53.942001 59.528 63.223999 71.82 81.101997">(production)</tspan></text>
</g><path
       id="path106"
       style="fill:#dddddd;fill-opacity:1;fill-rule:evenodd;stroke:none"
       d="m 689.6,294.8 h -64.8 v 82.8 h 129.6 v -82.8 z" /><g
       id="g108"><path
         id="path110"
         style="fill:none;stroke:#b2b2b2;stroke-width:2.29229999;stroke-linecap:butt;stroke-linejoin:round;stroke-miterlimit:10;stroke-dasharray:none;stroke-opacity:1"
         d="m 689.6,294.8 h -64.8 v 82.8 h 129.6 v -82.8 z" /></g><g
       id="g112"><text
         id="text116"
         style="font-variant:normal;font-weight:300;font-size:18px;font-family:Montserrat;-inkscape-font-specification:Montserrat-Light;writing-mode:lr-tb;fill:#000000;fill-opacity:1;fill-rule:nonzero;stroke:none"
         transform="matrix(1,0,0,-1,657.8,345.8)"><tspan
           id="tspan114"
           y="0"
           x="0 8.6940002 19.278 27.378 34.380001 46.169998 56.664001">Testnet</tspan></text>
</g><g
       id="g118"><text
         id="text122"
         style="font-variant:normal;font-weight:300;font-size:14px;font-family:Montserrat;-inkscape-font-specification:Montserrat-Light;writing-mode:lr-tb;fill:#000000;fill-opacity:1;fill-rule:nonzero;stroke:none"
         transform="matrix(1,0,0,-1,659.1,328.2)"><tspan
           id="tspan120"
           y="0"
           x="0 4.1999998 13.482 21.77 27.257999 39.158001 47.754002 52.948002">(network</tspan></text>
</g><g
       id="g124"><text
         id="text128"
         style="font-variant:normal;font-weight:300;font-size:14px;font-family:Montserrat;-inkscape-font-specification:Montserrat-Light;writing-mode:lr-tb;fill:#000000;fill-opacity:1;fill-rule:nonzero;stroke:none"
         transform="matrix(1,0,0,-1,663.7,311.2)"><tspan
           id="tspan126"
           y="0"
           x="0 5.4039998 13.692 19.992001 25.577999 29.274 38.458 47.348">testing)</tspan></text>
</g><g
       id="g130"><path
         id="path132"
         style="fill:none;stroke:#000000;stroke-width:2.99979997;stroke-linecap:butt;stroke-linejoin:round;stroke-miterlimit:10;stroke-dasharray:none;stroke-opacity:1"
         d="m 378,466.6 c 62.3,0 86.2,-23.7 92.3,-70.9" /></g><path
       id="path134"
       style="fill:#000000;fill-opacity:1;fill-rule:evenodd;stroke:none"
       d="m 471.4,377.2 5.2,19.8 -12.9,-0.8 z" /><g
       id="g136"><path
         id="path138"
         style="fill:none;stroke:#000000;stroke-width:2.99979997;stroke-linecap:butt;stroke-linejoin:round;stroke-miterlimit:10;stroke-dasharray:none;stroke-opacity:1"
         d="M 313.2,248.8 V 406.6" /></g><path
       id="path140"
       style="fill:#000000;fill-opacity:1;fill-rule:evenodd;stroke:none"
       d="m 313.2,425.2 -6.5,-19.5 h 13 z" /><g
       id="g142"><path
         id="path144"
         style="fill:none;stroke:#000000;stroke-width:2.99979997;stroke-linecap:butt;stroke-linejoin:round;stroke-miterlimit:10;stroke-dasharray:none;stroke-opacity:1"
         d="m 536.2,335.8 c 66.4,0 30.2,104.9 71.2,126.8" /></g><path
       id="path146"
       style="fill:#000000;fill-opacity:1;fill-rule:evenodd;stroke:none"
       d="m 624.8,466.6 -20.5,1.7 3.1,-12.6 z" /><g
       id="g148"><path
         id="path150"
         style="fill:none;stroke:#000000;stroke-width:2.99979997;stroke-linecap:butt;stroke-linejoin:round;stroke-miterlimit:10;stroke-dasharray:none;stroke-opacity:1"
         d="m 536.2,335.8 c 66.4,0 30.9,0.3 69.7,0.4" /></g><path
       id="path152"
       style="fill:#000000;fill-opacity:1;fill-rule:evenodd;stroke:none"
       d="m 624.8,336.2 -19.5,6.5 v -13 z" /><g
       id="g154"><path
         id="path156"
         style="fill:none;stroke:#000000;stroke-width:2.99979997;stroke-linecap:butt;stroke-linejoin:round;stroke-miterlimit:10;stroke-dasharray:none;stroke-opacity:1"
         d="m 536.2,335.8 c 66.4,0 30.2,-103 71.2,-124.5" /></g><path
       id="path158"
       style="fill:#000000;fill-opacity:1;fill-rule:evenodd;stroke:none"
       d="m 624.8,207.4 -17.4,10.8 -3,-12.6 z" /><g
       id="g160"><text
         id="text164"
         style="font-variant:normal;font-weight:300;font-size:18px;font-family:Montserrat;-inkscape-font-specification:Montserrat-Light;writing-mode:lr-tb;fill:#000000;fill-opacity:1;fill-rule:nonzero;stroke:none"
         transform="matrix(1,0,0,-1,114.3,486.2)"><tspan
           id="tspan162"
           y="0"
           x="0 13.806 21.996 32.490002 39.167999">Users</tspan></text>
</g><g
       id="g166"><path
         id="path168"
         style="fill:none;stroke:#000000;stroke-width:2.99979997;stroke-linecap:butt;stroke-linejoin:round;stroke-miterlimit:10;stroke-dasharray:none;stroke-opacity:1"
         d="m 168.7,493.6 c 58.9,0 27.7,-20.5 60.9,-25.8" /></g><path
       id="path170"
       style="fill:#000000;fill-opacity:1;fill-rule:evenodd;stroke:none"
       d="m 248.4,466.6 -18.9,7.8 -0.9,-13 z" /><g
       id="g172"><text
         id="text176"
         style="font-variant:normal;font-weight:300;font-size:18px;font-family:Montserrat;-inkscape-font-specification:Montserrat-Light;writing-mode:lr-tb;fill:#000000;fill-opacity:1;fill-rule:nonzero;stroke:none"
         transform="matrix(1,0,0,-1,76.8,432)"><tspan
           id="tspan174"
           y="0"
           x="0 16.577999 27.162001 33.84 43.919998 55.818001 66.113998 77.814003 84.816002">Merchant </tspan></text>
</g><g
       id="g178"><text
         id="text182"
         style="font-variant:normal;font-weight:300;font-size:18px;font-family:Montserrat;-inkscape-font-specification:Montserrat-Light;writing-mode:lr-tb;fill:#000000;fill-opacity:1;fill-rule:nonzero;stroke:none"
         transform="matrix(1,0,0,-1,64.3,410.4)"><tspan
           id="tspan180"
           y="0"
           x="0 14.094 24.497999 33.102001 43.596001 48.672001 59.778 71.963997 82.458 89.244003">Developers</tspan></text>
</g><g
       id="g184"><path
         id="path186"
         style="fill:none;stroke:#000000;stroke-width:2.99979997;stroke-linecap:butt;stroke-linejoin:round;stroke-miterlimit:10;stroke-dasharray:none;stroke-opacity:1"
         d="m 168.7,428.5 c 58.9,0 27.6,29 61,36.4" /></g><path
       id="path188"
       style="fill:#000000;fill-opacity:1;fill-rule:evenodd;stroke:none"
       d="m 248.4,466.6 -20,4.6 1.3,-13 z" /><g
       id="g190"><text
         id="text194"
         style="font-variant:normal;font-weight:300;font-size:18px;font-family:Montserrat;-inkscape-font-specification:Montserrat-Light;writing-mode:lr-tb;fill:#000000;fill-opacity:1;fill-rule:nonzero;stroke:none"
         transform="matrix(1,0,0,-1,122.8,210.8)"><tspan
           id="tspan192"
           y="0"
           x="0 13.896 26.874001 38.880001">DAP </tspan></text>
</g><g
       id="g196"><text
         id="text200"
         style="font-variant:normal;font-weight:300;font-size:18px;font-family:Montserrat;-inkscape-font-specification:Montserrat-Light;writing-mode:lr-tb;fill:#000000;fill-opacity:1;fill-rule:nonzero;stroke:none"
         transform="matrix(1,0,0,-1,64.3,189.2)"><tspan
           id="tspan198"
           y="0"
           x="0 14.094 24.497999 33.102001 43.596001 48.672001 59.778 71.963997 82.458 89.244003">Developers</tspan></text>
</g><g
       id="g202"><path
         id="path204"
         style="fill:none;stroke:#000000;stroke-width:2.99979997;stroke-linecap:butt;stroke-linejoin:round;stroke-miterlimit:10;stroke-dasharray:none;stroke-opacity:1"
         d="m 168.7,207.4 h 61.1" /></g><path
       id="path206"
       style="fill:#000000;fill-opacity:1;fill-rule:evenodd;stroke:none"
       d="m 248.4,207.4 -19.4,6.5 v -13 z" /></g></svg>