<svg xmlns="http://www.w3.org/2000/svg" height="440.4" width="505.759"><defs><clipPath id="a"><path d="M292.3 250.1h72.9v73h-72.9z"/></clipPath><clipPath id="b"><path d="M375.1 250.1H448v73h-72.9z"/></clipPath><clipPath id="c"><path d="M209.5 250.1h72.9v73h-72.9z"/></clipPath></defs><path d="M315.159 419.4h-7.067M305.559 419.4h-4M299.025 419.4h-4M292.492 419.4h-3.867M286.092 419.4h-4M279.559 419.4h-4M273.025 419.4h-3.866M266.625 419.4h-4M260.092 419.4h-4M253.559 419.4h-3.867M247.159 419.4h-4M240.625 419.4h-4M234.092 419.4h-3.867M227.692 419.4h-4M221.159 419.4h-4M214.625 419.4h-3.866M208.092 419.4h-3.867M201.692 419.4h-4M195.159 419.4h-3.867M188.625 419.4h-3.866M182.225 419.4h-4M175.692 419.4h-4M169.159 419.4h-3.867M162.759 419.4h-4M156.225 419.4h-4M149.692 419.4h-3.867M143.292 419.4h-4M139.159 417v-4M139.159 410.467V406.6M139.159 404.067v-4M139.159 397.533v-4M139.159 391v-3.867M139.159 384.6v-4M139.159 378.067v-4M139.159 371.533v-3.866M139.159 365.133v-4M139.159 358.6v-4M139.159 352.067V348.2M139.159 345.667v-4M139.159 339.133v-4M139.159 332.6v-3.867M139.159 326.067V322.2M139.159 319.667v-4M139.159 313.133v-3.866M139.159 306.6v-3.867M139.159 300.2v-.8h3.2M144.892 299.4h4M151.425 299.4h4M157.959 299.4h3.866M164.359 299.4h4M170.892 299.4h4M177.425 299.4h3.867M183.825 299.4h4M190.359 299.4h4M196.892 299.4h3.867M203.425 299.4h3.867M209.825 299.4h4M216.359 299.4h3.866M222.892 299.4h3.867M229.292 299.4h4M235.825 299.4h4M242.359 299.4h3.866M248.759 299.4h4M255.292 299.4h4M261.825 299.4h3.867M268.225 299.4h4M274.759 299.4h4M281.292 299.4h3.867M287.692 299.4h4M294.225 299.4h4M300.759 299.4h3.866M307.159 299.4h4M313.692 299.4h4M320.225 299.4h3.867M326.625 299.4h4M333.159 299.4h4M339.692 299.4h3.867M346.092 299.4h4M352.625 299.4h4M359.159 299.4h3.866M365.692 299.4h3.867M372.092 299.4h4M378.625 299.4h3.867M385.159 299.4h3.866M391.559 299.4h4M398.092 299.4h4M404.625 299.4h3.867M411.025 299.4h4M417.559 299.4h4M424.092 299.4h3.867M430.492 299.4h4M437.025 299.4h4M443.559 299.4h3.866M449.959 299.4h4M456.492 299.4h4M462.892 299.4h4M469.425 299.4h4M475.959 299.4h3.866M482.492 299.4h2.267v1.6M484.759 303.533v4M484.759 310.067v3.866M484.759 316.6v3.867M484.759 323v4M484.759 329.533v4M484.759 336.067v3.866M484.759 342.467v4M484.759 349v4M484.759 355.533v3.867M484.759 361.933v4M484.759 368.467v4M484.759 375v3.867M484.759 381.4v4M484.759 387.933v4M484.759 394.467v3.866M484.759 400.867v4M484.759 407.4v4M484.759 413.933v3.867M483.825 419.4h-4M477.292 419.4h-3.867M470.892 419.4h-4M464.359 419.4h-3.867M457.959 419.4h-4M451.425 419.4h-4M444.892 419.4h-3.867M438.492 419.4h-4M431.959 419.4h-4M425.425 419.4h-3.866M419.025 419.4h-4M412.492 419.4h-4M405.959 419.4h-3.867M399.425 419.4h-3.866M393.025 419.4h-4M386.492 419.4h-3.867M379.959 419.4h-3.867M373.559 419.4h-4M367.025 419.4h-4M360.492 419.4h-3.867M354.092 419.4h-4M347.559 419.4h-4M341.025 419.4h-3.866M334.625 419.4h-4M328.092 419.4h-4M321.559 419.4h-3.867" fill="none" stroke="#3465a4" stroke-width="1.9999949999999997" stroke-linejoin="round" stroke-miterlimit="10"/><path d="M312.092 405h-45.733v-91.2h91.2V405z" fill="#4dcf38" fill-rule="evenodd"/><g clip-path="url(#a)" opacity=".5" transform="matrix(1.33333 0 0 -1.33333 -126.308 741.533)"><path d="M328.8 252.4h-34.3v68.4h68.4v-68.4z" fill="none" stroke="#fff" stroke-width="4.5" stroke-linejoin="round" stroke-miterlimit="10"/></g><path d="M422.359 405h-45.6v-91.2h91.2V405z" fill="#4dcf38" fill-rule="evenodd"/><g clip-path="url(#b)" opacity=".5" transform="matrix(1.33333 0 0 -1.33333 -126.308 741.533)"><path d="M411.5 252.4h-34.2v68.4h68.4v-68.4z" fill="none" stroke="#fff" stroke-width="4.5" stroke-linejoin="round" stroke-miterlimit="10"/></g><path d="M201.559 405h-45.6v-91.2h91.2V405z" fill="#4dcf38" fill-rule="evenodd"/><g clip-path="url(#c)" opacity=".5" transform="matrix(1.33333 0 0 -1.33333 -126.308 741.533)"><path d="M245.9 252.4h-34.2v68.4h68.4v-68.4z" fill="none" stroke="#fff" stroke-width="4.5" stroke-linejoin="round" stroke-miterlimit="10"/></g><g aria-label="miners" style="-inkscape-font-specification:Montserrat-Light" font-weight="300" font-size="36" font-family="Montserrat"><path d="M267.986 327.97q4.406 0 6.89 2.625 2.509 2.602 2.509 7.196V353.4h-3.727v-14.602q0-3.351-1.875-5.25-1.875-1.898-5.133-1.898-3.89.094-6.093 2.648-2.18 2.532-2.18 6.68V353.4h-3.774v-14.602q0-3.351-1.851-5.25-1.852-1.898-5.156-1.898-3.844.094-6.094 2.648-2.227 2.532-2.227 6.68V353.4h-3.68v-25.29h3.68v5.696q1.242-2.883 3.68-4.336 2.46-1.453 5.977-1.5 3.562 0 5.906 1.735 2.344 1.71 3.164 4.875 1.148-3.305 3.703-4.922 2.578-1.64 6.281-1.688zM285.612 353.4v-25.29h3.68v25.29zm1.804-35.133q1.055 0 1.758.75.703.727.703 1.828 0 1.102-.703 1.852t-1.758.75q-1.054 0-1.758-.727-.68-.75-.68-1.875 0-1.101.68-1.828.704-.75 1.758-.75zM311.903 327.97q4.523 0 7.055 2.625 2.554 2.602 2.554 7.196V353.4h-3.75v-14.602q0-3.351-1.898-5.226t-5.25-1.875q-3.703.047-5.93 2.273-2.226 2.203-2.578 5.836V353.4h-3.726v-25.29h3.726v5.556q2.602-5.625 9.797-5.696zM339.994 328.017q5.953 0 8.976 3.82 3.024 3.797 2.719 10.383h-20.625q.469 3.703 2.953 5.883 2.508 2.18 6.211 2.18 2.344 0 4.336-.82 1.992-.82 3.492-2.344l2.063 2.203q-1.828 2.015-4.453 3.117-2.602 1.102-5.72 1.102-3.702 0-6.562-1.594-2.86-1.617-4.453-4.524-1.57-2.906-1.57-6.656 0-3.75 1.594-6.633 1.617-2.906 4.5-4.5 2.882-1.617 6.539-1.617zm8.343 11.133q-.187-3.656-2.484-5.79-2.273-2.132-5.953-2.132-3.61 0-6.024 2.156-2.39 2.157-2.812 5.766zM361.77 333.712q1.266-2.765 3.563-4.218 2.297-1.477 5.507-1.524v3.774q-3.937-.047-6.328 2.203-2.39 2.226-2.742 6.023v13.43h-3.726v-25.29h3.726zM382.459 327.97q2.273 0 4.383.61 2.109.586 3.68 1.687l-1.43 2.977q-1.477-.961-3.305-1.5-1.828-.563-3.563-.563-2.25 0-3.632.844-1.36.82-1.36 2.508 0 1.148.774 1.922.773.773 1.898 1.265 1.125.469 3.14 1.031 2.65.774 4.29 1.547 1.664.774 2.836 2.25 1.172 1.453 1.172 3.797 0 3.563-2.672 5.39-2.649 1.806-6.586 1.806-2.742 0-5.344-.938-2.578-.937-4.36-2.602l1.454-2.835q1.593 1.476 3.867 2.343 2.273.867 4.523.867 2.39 0 3.89-.937 1.524-.938 1.524-2.766t-1.453-2.695q-1.453-.89-4.476-1.758-2.649-.82-4.22-1.523-1.546-.727-2.694-2.133-1.125-1.43-1.125-3.703 0-3.445 2.484-5.156 2.508-1.735 6.305-1.735z"/></g><g><g aria-label="Verify transactions," style="-inkscape-font-specification:Montserrat-Regular" font-weight="400" font-size="16" font-family="Montserrat"><path d="M218.38 384.067l-5.959-14.938h2.708l4.615 12.146 4.646-12.146h2.625l-6.042 14.938zM232.438 372.63q2.687 0 4.02 1.52 1.334 1.51 1.334 4.26 0 .282-.042.917h-8.583q.302 1.323 1.24 2.083.937.76 2.28.76.917 0 1.75-.343.834-.344 1.448-.98l1.303 1.386q-.855.917-2.053 1.417-1.187.5-2.635.5-1.73 0-3.042-.719-1.312-.729-2.041-2.031-.72-1.302-.72-2.99 0-1.687.72-2.99.729-1.312 2.041-2.051 1.313-.74 2.98-.74zm3.177 4.905q-.063-1.364-.917-2.145-.854-.792-2.24-.792-1.343 0-2.229.792-.885.78-1.104 2.145zM242.613 374.983q.573-1.156 1.573-1.75 1-.604 2.344-.604v2.354q-1.687-.083-2.73.792-1.04.865-1.187 2.365v5.927h-2.458v-11.355h2.458zM248.54 384.067v-11.355h2.437v11.355zm1.207-16.084q.625 0 1.032.417.406.417.406 1.073 0 .635-.406 1.052-.407.417-1.032.417-.614 0-1.02-.407-.407-.416-.407-1.062 0-.656.407-1.073.406-.417 1.02-.417zM258.971 370.265q-.656 0-1.093.385-.438.385-.438 1.146v1.344h2.958v1.843h-2.958v9.084h-2.437v-9.084h-1.49v-1.843h1.49v-1.105q0-1.26.541-2.145.552-.886 1.448-1.323.896-.438 1.917-.438 1.49 0 2.562.792l-.937 1.875q-.73-.531-1.563-.531z"/><path d="M267.099 385.63q-.531 1.343-1.469 2.01-.937.677-2.219.677-.77 0-1.406-.24-.625-.24-1.219-.73l1.042-1.895q.406.302.75.427t.73.125q1.155 0 1.718-1.25l.385-.854-4.687-11.188h2.531l3.396 8.605 3.156-8.605h2.458zM285.708 383.337q-1.417.834-2.803.834-1.385 0-2.28-.834-.897-.833-.897-2.468v-5.886h-1.604v-1.843h1.604v-3.115h2.438v3.115h3.344v1.843h-3.344v5.438q0 .854.292 1.198.302.333.916.333.688 0 1.709-.49zM290.4 374.983q.573-1.156 1.573-1.75 1-.604 2.344-.604v2.354q-1.688-.083-2.73.792-1.041.865-1.187 2.365v5.927h-2.458v-11.355h2.458zM302.744 382.681q-1.219 1.49-3.75 1.49-1.198 0-2.104-.459-.907-.458-1.396-1.25-.49-.802-.49-1.812 0-1.563 1.125-2.469 1.136-.916 3.167-.937h3.427v-.344q0-1.083-.698-1.677-.687-.604-2.01-.604-1.646 0-3.344 1.146l-1.01-1.709q1.302-.77 2.333-1.094 1.042-.333 2.552-.333 2.177 0 3.375 1.063 1.198 1.052 1.219 2.927l.02 7.448h-2.416zm-3.24-.448q1.302 0 2.209-.604.906-.614 1.01-1.552v-1.042h-3.073q-1.219 0-1.781.355-.563.343-.563 1.156 0 .77.584 1.229.593.458 1.614.458zM315.1 372.63q1.979 0 3.104 1.166t1.125 3.208v7.063h-2.458v-6.375q0-1.282-.73-2.021-.718-.74-2-.74-1.364.021-2.229.875-.864.854-.99 2.219v6.042h-2.458v-11.355h2.459v2.178q1.156-2.26 4.177-2.26zM325.855 372.608q1.083 0 2.135.313 1.063.312 1.834.844l-.896 1.812q-.75-.469-1.636-.73-.885-.27-1.635-.27-.77 0-1.219.281-.437.271-.437.844t.52.875q.521.302 1.74.688 1.156.343 1.906.687.76.333 1.303 1.02.541.678.541 1.793 0 1.666-1.25 2.53-1.25.855-3.104.855-1.281 0-2.51-.417-1.22-.416-2.052-1.156l.875-1.75q.729.635 1.78 1.02 1.053.386 2.022.386.833 0 1.343-.291.51-.302.51-.927 0-.47-.312-.771-.312-.313-.76-.49-.448-.187-1.302-.448-1.136-.344-1.844-.666-.708-.334-1.23-.98-.51-.656-.51-1.74 0-1.624 1.198-2.468 1.198-.844 2.99-.844zM339.267 382.681q-1.22 1.49-3.75 1.49-1.198 0-2.105-.459-.906-.458-1.395-1.25-.49-.802-.49-1.812 0-1.563 1.125-2.469 1.135-.916 3.167-.937h3.427v-.344q0-1.083-.698-1.677-.688-.604-2.01-.604-1.646 0-3.344 1.146l-1.01-1.709q1.301-.77 2.333-1.094 1.041-.333 2.552-.333 2.177 0 3.375 1.063 1.198 1.052 1.218 2.927l.021 7.448h-2.416zm-3.24-.448q1.302 0 2.208-.604.907-.614 1.01-1.552v-1.042h-3.072q-1.219 0-1.781.355-.563.343-.563 1.156 0 .77.583 1.229.594.458 1.615.458zM349.515 372.63q1.51 0 2.698.478 1.198.48 1.99 1.375l-1.344 1.584q-1.24-1.282-3.156-1.282-1.51 0-2.49 1.01-.968 1-.968 2.615 0 1.605.947 2.615.948 1.01 2.428 1.01 2.177 0 3.343-1.364l1.365 1.364q-.771 1.021-2 1.573-1.219.542-2.813.542-1.666 0-2.968-.719-1.303-.729-2.032-2.031-.718-1.302-.718-2.99 0-1.708.718-3.01.73-1.313 2.032-2.042 1.302-.729 2.968-.729zM363.276 383.337q-1.417.834-2.803.834-1.385 0-2.28-.834-.897-.833-.897-2.468v-5.886h-1.604v-1.843h1.604v-3.115h2.438v3.115h3.344v1.843h-3.344v5.438q0 .854.292 1.198.302.333.916.333.688 0 1.709-.49zM365.51 384.067v-11.355h2.437v11.355zm1.208-16.084q.625 0 1.031.417.407.417.407 1.073 0 .635-.407 1.052-.406.417-1.03.417-.615 0-1.022-.407-.406-.416-.406-1.062 0-.656.406-1.073.407-.417 1.021-.417zM376.497 372.63q1.73 0 3.073.728 1.344.73 2.083 2.032.75 1.291.75 3 0 1.687-.75 3-.74 1.312-2.083 2.041-1.344.719-3.073.719-1.75 0-3.094-.719-1.343-.729-2.093-2.041-.74-1.313-.74-3 0-1.709.74-3 .75-1.303 2.093-2.032 1.344-.729 3.094-.729zm0 2.114q-1.531 0-2.51 1.03-.97 1.022-.97 2.636 0 1.646.97 2.677.979 1.021 2.51 1.021 1.531 0 2.49-1.02.968-1.032.968-2.678 0-1.625-.979-2.645-.969-1.021-2.479-1.021zM391.473 372.63q1.98 0 3.104 1.166 1.125 1.166 1.125 3.208v7.063h-2.458v-6.375q0-1.282-.73-2.021-.718-.74-2-.74-1.364.021-2.228.875-.865.854-.99 2.219v6.042h-2.458v-11.355h2.458v2.178q1.156-2.26 4.177-2.26zM402.356 372.608q1.084 0 2.136.313 1.062.312 1.833.844l-.896 1.812q-.75-.469-1.635-.73-.886-.27-1.636-.27-.77 0-1.218.281-.438.271-.438.844t.52.875q.522.302 1.74.688 1.157.343 1.907.687.76.333 1.302 1.02.541.678.541 1.793 0 1.666-1.25 2.53-1.25.855-3.104.855-1.28 0-2.51-.417-1.219-.416-2.052-1.156l.875-1.75q.729.635 1.781 1.02 1.052.386 2.02.386.834 0 1.345-.291.51-.302.51-.927 0-.47-.312-.771-.313-.313-.76-.49-.449-.187-1.303-.448-1.135-.344-1.844-.666-.708-.334-1.229-.98-.51-.656-.51-1.74 0-1.624 1.198-2.468 1.198-.844 2.99-.844zM409.327 381.483q.531 0 .916.375.386.375.386.99 0 .573-.386 1.135l-1.208 1.834h-1.26l.812-1.855q-.573-.385-.583-1.114 0-.594.375-.98.375-.385.948-.385z"/></g></g><g><g aria-label="Build blockchain" style="-inkscape-font-specification:Montserrat-Regular" font-weight="400" font-size="16" font-family="Montserrat"><path d="M231.34 394.73q2.323 0 3.667 1 1.343.989 1.343 2.739 0 1.26-.708 2.146-.698.885-1.917 1.177 1.49.26 2.344 1.26.865 1 .865 2.52 0 1.918-1.459 3.011-1.448 1.084-3.99 1.084h-6.635v-14.938zm-3.969 6.187h3.844q1.198 0 1.875-.532.677-.53.677-1.468t-.677-1.438q-.667-.51-1.875-.51h-3.844zm0 6.51h3.844q1.49 0 2.312-.562.823-.573.823-1.615 0-.98-.833-1.542-.833-.573-2.302-.573h-3.844zM250.047 409.667h-2.448v-2.22q-1.105 2.261-4.052 2.303-1.938 0-3.053-1.167-1.114-1.177-1.114-3.208v-7.063h2.458v6.386q0 1.281.698 2.02.708.73 1.948.73 1.427-.021 2.27-1.01.845-1 .845-2.532v-5.594h2.448zM253.611 409.667v-11.355h2.438v11.355zm1.208-16.084q.625 0 1.032.417.406.417.406 1.073 0 .635-.406 1.052-.407.417-1.032.417-.614 0-1.02-.407-.407-.416-.407-1.062 0-.656.407-1.073.406-.417 1.02-.417zM259.838 409.667v-15.834h2.458v15.834zM276.669 409.667h-2.448v-1.938q-.615 1-1.635 1.52-1.01.522-2.355.522-1.625 0-2.854-.73-1.218-.739-1.906-2.062-.677-1.323-.677-3.031 0-1.688.677-2.99.688-1.302 1.906-2.02 1.23-.73 2.813-.73 1.364 0 2.375.542 1.01.531 1.656 1.531v-6.448h2.448zm-5.927-1.938q1.542 0 2.51-1.031.969-1.042.969-2.667 0-1.646-.969-2.687-.968-1.042-2.51-1.042-1.531 0-2.51 1.052-.97 1.042-.99 2.677.02 1.625.99 2.667.979 1.031 2.51 1.031zM292.377 398.23q1.594 0 2.823.728 1.23.73 1.906 2.052.688 1.313.688 3.021 0 1.688-.677 2.99-.667 1.302-1.886 2.02-1.219.709-2.812.709-1.344 0-2.375-.52-1.021-.522-1.636-1.522v1.959h-2.458v-15.834h2.458v6.448q.615-1 1.625-1.52 1.021-.532 2.344-.532zm-.51 9.426q1 0 1.78-.469.793-.468 1.23-1.312.438-.854.438-1.927 0-1.042-.438-1.875-.437-.833-1.23-1.313-.78-.479-1.78-.479t-1.792.469q-.792.469-1.23 1.312-.437.844-.437 1.886 0 1.646.969 2.677.969 1.031 2.49 1.031zM300.35 409.667v-15.834h2.458v15.834zM311.382 398.23q1.73 0 3.073.728 1.344.73 2.084 2.032.75 1.291.75 3 0 1.687-.75 3-.74 1.312-2.084 2.041-1.343.719-3.073.719-1.75 0-3.093-.719-1.344-.729-2.094-2.041-.74-1.313-.74-3 0-1.709.74-3 .75-1.303 2.094-2.032 1.343-.729 3.093-.729zm0 2.114q-1.53 0-2.51 1.03-.969 1.022-.969 2.636 0 1.646.969 2.677.98 1.021 2.51 1.021 1.532 0 2.49-1.02.969-1.032.969-2.678 0-1.625-.98-2.645-.968-1.021-2.479-1.021zM324.507 398.23q1.51 0 2.698.478 1.198.48 1.99 1.375l-1.344 1.584q-1.24-1.282-3.156-1.282-1.51 0-2.49 1.01-.968 1-.968 2.615 0 1.605.947 2.615.948 1.01 2.428 1.01 2.177 0 3.343-1.364l1.365 1.364q-.771 1.021-2 1.573-1.219.542-2.813.542-1.666 0-2.968-.719-1.302-.729-2.032-2.031-.718-1.302-.718-2.99 0-1.708.718-3.01.73-1.313 2.032-2.042 1.302-.729 2.968-.729zM334.403 406.49v3.177h-2.458v-15.834h2.458v9.563l5.01-5.084h2.813l-4.198 4.396 4.52 6.959h-2.895l-3.333-5.209zM348.635 398.23q1.51 0 2.698.478 1.198.48 1.99 1.375l-1.344 1.584q-1.24-1.282-3.156-1.282-1.51 0-2.49 1.01-.968 1-.968 2.615 0 1.605.947 2.615.948 1.01 2.428 1.01 2.177 0 3.343-1.364l1.365 1.364q-.771 1.021-2 1.573-1.219.542-2.813.542-1.666 0-2.968-.719-1.302-.729-2.032-2.031-.718-1.302-.718-2.99 0-1.708.718-3.01.73-1.313 2.032-2.042 1.302-.729 2.968-.729zM362.729 398.23q1.99 0 3.104 1.166 1.125 1.166 1.125 3.208v7.063H364.5v-6.375q0-1.282-.73-2.021-.718-.74-2-.74-1.49.021-2.364 1.021-.875.99-.875 2.52v5.595h-2.458v-15.834h2.458v6.698q1.177-2.302 4.198-2.302zM377.021 408.281q-1.219 1.49-3.75 1.49-1.198 0-2.104-.459-.906-.458-1.396-1.25-.49-.802-.49-1.812 0-1.563 1.126-2.469 1.135-.916 3.166-.937H377v-.344q0-1.083-.698-1.677-.687-.604-2.01-.604-1.646 0-3.344 1.146l-1.01-1.709q1.302-.77 2.333-1.094 1.042-.333 2.552-.333 2.177 0 3.375 1.063 1.198 1.052 1.219 2.927l.02 7.448h-2.416zm-3.24-.448q1.303 0 2.209-.604.906-.614 1.01-1.552v-1.042h-3.073q-1.218 0-1.78.355-.563.343-.563 1.156 0 .77.583 1.229.594.458 1.615.458zM382.742 409.667v-11.355h2.437v11.355zm1.208-16.084q.625 0 1.031.417.407.417.407 1.073 0 .635-.407 1.052-.406.417-1.03.417-.615 0-1.022-.407-.406-.416-.406-1.062 0-.656.406-1.073.407-.417 1.021-.417zM395.372 398.23q1.979 0 3.104 1.166t1.125 3.208v7.063h-2.458v-6.375q0-1.282-.73-2.021-.718-.74-2-.74-1.364.021-2.229.875-.864.854-.99 2.219v6.042h-2.458v-11.355h2.459v2.178q1.156-2.26 4.177-2.26z"/></g></g><g><g aria-label="Layer 1" style="-inkscape-font-specification:Montserrat-Light" font-weight="300" font-size="22" font-family="Montserrat"><path d="M31.358 369.166v2.234H20v-20.54h2.349v18.306zM44.432 369.022q-1.847 2.493-5.657 2.493-1.561 0-2.765-.616-1.188-.616-1.847-1.69-.645-1.089-.645-2.421 0-2.02 1.518-3.208 1.533-1.19 4.269-1.218h5.07v-.902q0-1.733-1.06-2.664-1.046-.946-3.08-.946-2.348 0-4.898 1.762l-.96-1.676q1.648-1.088 3.037-1.575 1.39-.501 3.266-.501 2.85 0 4.382 1.403 1.547 1.404 1.576 3.925l.029 10.212h-2.235zm-5.213.502q1.962 0 3.351-.917 1.39-.931 1.834-2.55v-1.847H39.59q-3.924 0-3.924 2.492 0 1.29.96 2.063.973.759 2.592.759zM56.175 373.606q-.745 1.79-1.92 2.692-1.16.917-2.721.917-1.848 0-3.251-1.146l.96-1.905q1.03.73 2.176.73.903 0 1.619-.558.73-.558 1.189-1.618l.659-1.433-6.403-15.34h2.406l5.128 12.762 4.899-12.762h2.348zM71.662 355.888q3.638 0 5.486 2.335 1.848 2.32 1.662 6.345H66.205q.287 2.263 1.805 3.595 1.533 1.332 3.796 1.332 1.432 0 2.65-.501 1.217-.502 2.133-1.433l1.26 1.347q-1.116 1.232-2.72 1.905-1.59.673-3.495.673-2.263 0-4.01-.974-1.748-.988-2.722-2.764-.96-1.776-.96-4.068t.974-4.054q.989-1.776 2.75-2.75 1.762-.988 3.996-.988zm5.1 6.804q-.115-2.235-1.519-3.538-1.39-1.304-3.638-1.304-2.206 0-3.68 1.318-1.462 1.318-1.72 3.524zM84.97 359.369q.774-1.69 2.177-2.578 1.404-.903 3.366-.931v2.306q-2.406-.03-3.867 1.346-1.46 1.36-1.676 3.68v8.208h-2.277v-15.455h2.277zM103.49 371.4v-18.305H99.32v-2.234h6.474V371.4z"/></g></g></svg>