<svg xmlns="http://www.w3.org/2000/svg" height="440.4" width="505.759"><defs><clipPath id="a"><path d="M292.3 250.1h72.9v73h-72.9z"/></clipPath><clipPath id="b"><path d="M375.1 250.1H448v73h-72.9z"/></clipPath><clipPath id="c"><path d="M209.5 250.1h72.9v73h-72.9z"/></clipPath><clipPath id="d"><path d="M292.3 354.5h72.9v73h-72.9z"/></clipPath><clipPath id="e"><path d="M375.1 354.5H448v73h-72.9z"/></clipPath><clipPath id="f"><path d="M209.5 354.5h72.9v73h-72.9z"/></clipPath><clipPath id="g"><path d="M292.3 458.9h72.9v73h-72.9z"/></clipPath><clipPath id="h"><path d="M375.1 458.9H448v73h-72.9z"/></clipPath><clipPath id="i"><path d="M209.5 458.9h72.9v73h-72.9z"/></clipPath></defs><path d="M315.159 419.4h-7.067M305.559 419.4h-4M299.025 419.4h-4M292.492 419.4h-3.867M286.092 419.4h-4M279.559 419.4h-4M273.025 419.4h-3.866M266.625 419.4h-4M260.092 419.4h-4M253.559 419.4h-3.867M247.159 419.4h-4M240.625 419.4h-4M234.092 419.4h-3.867M227.692 419.4h-4M221.159 419.4h-4M214.625 419.4h-3.866M208.092 419.4h-3.867M201.692 419.4h-4M195.159 419.4h-3.867M188.625 419.4h-3.866M182.225 419.4h-4M175.692 419.4h-4M169.159 419.4h-3.867M162.759 419.4h-4M156.225 419.4h-4M149.692 419.4h-3.867M143.292 419.4h-4M139.159 417v-4M139.159 410.467V406.6M139.159 404.067v-4M139.159 397.533v-4M139.159 391v-3.867M139.159 384.6v-4M139.159 378.067v-4M139.159 371.533v-3.866M139.159 365.133v-4M139.159 358.6v-4M139.159 352.067V348.2M139.159 345.667v-4M139.159 339.133v-4M139.159 332.6v-3.867M139.159 326.067V322.2M139.159 319.667v-4M139.159 313.133v-3.866M139.159 306.6v-3.867M139.159 300.2v-.8h3.2M144.892 299.4h4M151.425 299.4h4M157.959 299.4h3.866M164.359 299.4h4M170.892 299.4h4M177.425 299.4h3.867M183.825 299.4h4M190.359 299.4h4M196.892 299.4h3.867M203.425 299.4h3.867M209.825 299.4h4M216.359 299.4h3.866M222.892 299.4h3.867M229.292 299.4h4M235.825 299.4h4M242.359 299.4h3.866M248.759 299.4h4M255.292 299.4h4M261.825 299.4h3.867M268.225 299.4h4M274.759 299.4h4M281.292 299.4h3.867M287.692 299.4h4M294.225 299.4h4M300.759 299.4h3.866M307.159 299.4h4M313.692 299.4h4M320.225 299.4h3.867M326.625 299.4h4M333.159 299.4h4M339.692 299.4h3.867M346.092 299.4h4M352.625 299.4h4M359.159 299.4h3.866M365.692 299.4h3.867M372.092 299.4h4M378.625 299.4h3.867M385.159 299.4h3.866M391.559 299.4h4M398.092 299.4h4M404.625 299.4h3.867M411.025 299.4h4M417.559 299.4h4M424.092 299.4h3.867M430.492 299.4h4M437.025 299.4h4M443.559 299.4h3.866M449.959 299.4h4M456.492 299.4h4M462.892 299.4h4M469.425 299.4h4M475.959 299.4h3.866M482.492 299.4h2.267v1.6M484.759 303.533v4M484.759 310.067v3.866M484.759 316.6v3.867M484.759 323v4M484.759 329.533v4M484.759 336.067v3.866M484.759 342.467v4M484.759 349v4M484.759 355.533v3.867M484.759 361.933v4M484.759 368.467v4M484.759 375v3.867M484.759 381.4v4M484.759 387.933v4M484.759 394.467v3.866M484.759 400.867v4M484.759 407.4v4M484.759 413.933v3.867M483.825 419.4h-4M477.292 419.4h-3.867M470.892 419.4h-4M464.359 419.4h-3.867M457.959 419.4h-4M451.425 419.4h-4M444.892 419.4h-3.867M438.492 419.4h-4M431.959 419.4h-4M425.425 419.4h-3.866M419.025 419.4h-4M412.492 419.4h-4M405.959 419.4h-3.867M399.425 419.4h-3.866M393.025 419.4h-4M386.492 419.4h-3.867M379.959 419.4h-3.867M373.559 419.4h-4M367.025 419.4h-4M360.492 419.4h-3.867M354.092 419.4h-4M347.559 419.4h-4M341.025 419.4h-3.866M334.625 419.4h-4M328.092 419.4h-4M321.559 419.4h-3.867" fill="none" stroke="#3465a4" stroke-width="1.9999949999999997" stroke-linejoin="round" stroke-miterlimit="10"/><path d="M312.092 405h-45.733v-91.2h91.2V405z" fill="#4dcf38" fill-rule="evenodd"/><g clip-path="url(#a)" opacity=".5" transform="matrix(1.33333 0 0 -1.33333 -126.308 741.533)"><path d="M328.8 252.4h-34.3v68.4h68.4v-68.4z" fill="none" stroke="#fff" stroke-width="4.5" stroke-linejoin="round" stroke-miterlimit="10"/></g><path d="M422.359 405h-45.6v-91.2h91.2V405z" fill="#4dcf38" fill-rule="evenodd"/><g clip-path="url(#b)" opacity=".5" transform="matrix(1.33333 0 0 -1.33333 -126.308 741.533)"><path d="M411.5 252.4h-34.2v68.4h68.4v-68.4z" fill="none" stroke="#fff" stroke-width="4.5" stroke-linejoin="round" stroke-miterlimit="10"/></g><path d="M201.559 405h-45.6v-91.2h91.2V405z" fill="#4dcf38" fill-rule="evenodd"/><g clip-path="url(#c)" opacity=".5" transform="matrix(1.33333 0 0 -1.33333 -126.308 741.533)"><path d="M245.9 252.4h-34.2v68.4h68.4v-68.4z" fill="none" stroke="#fff" stroke-width="4.5" stroke-linejoin="round" stroke-miterlimit="10"/></g><g aria-label="miners" style="-inkscape-font-specification:Montserrat-Light" font-weight="300" font-size="36" font-family="Montserrat"><path d="M267.986 327.97q4.406 0 6.89 2.625 2.509 2.602 2.509 7.196V353.4h-3.727v-14.602q0-3.351-1.875-5.25-1.875-1.898-5.133-1.898-3.89.094-6.093 2.648-2.18 2.532-2.18 6.68V353.4h-3.774v-14.602q0-3.351-1.851-5.25-1.852-1.898-5.156-1.898-3.844.094-6.094 2.648-2.227 2.532-2.227 6.68V353.4h-3.68v-25.29h3.68v5.696q1.242-2.883 3.68-4.336 2.46-1.453 5.977-1.5 3.562 0 5.906 1.735 2.344 1.71 3.164 4.875 1.148-3.305 3.703-4.922 2.578-1.64 6.281-1.688zM285.612 353.4v-25.29h3.68v25.29zm1.804-35.133q1.055 0 1.758.75.703.727.703 1.828 0 1.102-.703 1.852t-1.758.75q-1.054 0-1.758-.727-.68-.75-.68-1.875 0-1.101.68-1.828.704-.75 1.758-.75zM311.903 327.97q4.523 0 7.055 2.625 2.554 2.602 2.554 7.196V353.4h-3.75v-14.602q0-3.351-1.898-5.226t-5.25-1.875q-3.703.047-5.93 2.273-2.226 2.203-2.578 5.836V353.4h-3.726v-25.29h3.726v5.556q2.602-5.625 9.797-5.696zM339.994 328.017q5.953 0 8.976 3.82 3.024 3.797 2.719 10.383h-20.625q.469 3.703 2.953 5.883 2.508 2.18 6.211 2.18 2.344 0 4.336-.82 1.992-.82 3.492-2.344l2.063 2.203q-1.828 2.015-4.453 3.117-2.602 1.102-5.72 1.102-3.702 0-6.562-1.594-2.86-1.617-4.453-4.524-1.57-2.906-1.57-6.656 0-3.75 1.594-6.633 1.617-2.906 4.5-4.5 2.882-1.617 6.539-1.617zm8.343 11.133q-.187-3.656-2.484-5.79-2.273-2.132-5.953-2.132-3.61 0-6.024 2.156-2.39 2.157-2.812 5.766zM361.77 333.712q1.266-2.765 3.563-4.218 2.297-1.477 5.507-1.524v3.774q-3.937-.047-6.328 2.203-2.39 2.226-2.742 6.023v13.43h-3.726v-25.29h3.726zM382.459 327.97q2.273 0 4.383.61 2.109.586 3.68 1.687l-1.43 2.977q-1.477-.961-3.305-1.5-1.828-.563-3.563-.563-2.25 0-3.632.844-1.36.82-1.36 2.508 0 1.148.774 1.922.773.773 1.898 1.265 1.125.469 3.14 1.031 2.65.774 4.29 1.547 1.664.774 2.836 2.25 1.172 1.453 1.172 3.797 0 3.563-2.672 5.39-2.649 1.806-6.586 1.806-2.742 0-5.344-.938-2.578-.937-4.36-2.602l1.454-2.835q1.593 1.476 3.867 2.343 2.273.867 4.523.867 2.39 0 3.89-.937 1.524-.938 1.524-2.766t-1.453-2.695q-1.453-.89-4.476-1.758-2.649-.82-4.22-1.523-1.546-.727-2.694-2.133-1.125-1.43-1.125-3.703 0-3.445 2.484-5.156 2.508-1.735 6.305-1.735z"/></g><g aria-label="Verify transactions," style="-inkscape-font-specification:Montserrat-Regular" font-weight="400" font-size="16" font-family="Montserrat"><path d="M218.38 384.067l-5.959-14.938h2.708l4.615 12.146 4.646-12.146h2.625l-6.042 14.938zM232.438 372.63q2.687 0 4.02 1.52 1.334 1.51 1.334 4.26 0 .282-.042.917h-8.583q.302 1.323 1.24 2.083.937.76 2.28.76.917 0 1.75-.343.834-.344 1.448-.98l1.303 1.386q-.855.917-2.053 1.417-1.187.5-2.635.5-1.73 0-3.042-.719-1.312-.729-2.041-2.031-.72-1.302-.72-2.99 0-1.687.72-2.99.729-1.312 2.041-2.051 1.313-.74 2.98-.74zm3.177 4.905q-.063-1.364-.917-2.145-.854-.792-2.24-.792-1.343 0-2.229.792-.885.78-1.104 2.145zM242.613 374.983q.573-1.156 1.573-1.75 1-.604 2.344-.604v2.354q-1.687-.083-2.73.792-1.04.865-1.187 2.365v5.927h-2.458v-11.355h2.458zM248.54 384.067v-11.355h2.437v11.355zm1.207-16.084q.625 0 1.032.417.406.417.406 1.073 0 .635-.406 1.052-.407.417-1.032.417-.614 0-1.02-.407-.407-.416-.407-1.062 0-.656.407-1.073.406-.417 1.02-.417zM258.971 370.265q-.656 0-1.093.385-.438.385-.438 1.146v1.344h2.958v1.843h-2.958v9.084h-2.437v-9.084h-1.49v-1.843h1.49v-1.105q0-1.26.541-2.145.552-.886 1.448-1.323.896-.438 1.917-.438 1.49 0 2.562.792l-.937 1.875q-.73-.531-1.563-.531z"/><path d="M267.099 385.63q-.531 1.343-1.469 2.01-.937.677-2.219.677-.77 0-1.406-.24-.625-.24-1.219-.73l1.042-1.895q.406.302.75.427t.73.125q1.155 0 1.718-1.25l.385-.854-4.687-11.188h2.531l3.396 8.605 3.156-8.605h2.458zM285.708 383.337q-1.417.834-2.803.834-1.385 0-2.28-.834-.897-.833-.897-2.468v-5.886h-1.604v-1.843h1.604v-3.115h2.438v3.115h3.344v1.843h-3.344v5.438q0 .854.292 1.198.302.333.916.333.688 0 1.709-.49zM290.4 374.983q.573-1.156 1.573-1.75 1-.604 2.344-.604v2.354q-1.688-.083-2.73.792-1.041.865-1.187 2.365v5.927h-2.458v-11.355h2.458zM302.744 382.681q-1.219 1.49-3.75 1.49-1.198 0-2.104-.459-.907-.458-1.396-1.25-.49-.802-.49-1.812 0-1.563 1.125-2.469 1.136-.916 3.167-.937h3.427v-.344q0-1.083-.698-1.677-.687-.604-2.01-.604-1.646 0-3.344 1.146l-1.01-1.709q1.302-.77 2.333-1.094 1.042-.333 2.552-.333 2.177 0 3.375 1.063 1.198 1.052 1.219 2.927l.02 7.448h-2.416zm-3.24-.448q1.302 0 2.209-.604.906-.614 1.01-1.552v-1.042h-3.073q-1.219 0-1.781.355-.563.343-.563 1.156 0 .77.584 1.229.593.458 1.614.458zM315.1 372.63q1.979 0 3.104 1.166t1.125 3.208v7.063h-2.458v-6.375q0-1.282-.73-2.021-.718-.74-2-.74-1.364.021-2.229.875-.864.854-.99 2.219v6.042h-2.458v-11.355h2.459v2.178q1.156-2.26 4.177-2.26zM325.855 372.608q1.083 0 2.135.313 1.063.312 1.834.844l-.896 1.812q-.75-.469-1.636-.73-.885-.27-1.635-.27-.77 0-1.219.281-.437.271-.437.844t.52.875q.521.302 1.74.688 1.156.343 1.906.687.76.333 1.303 1.02.541.678.541 1.793 0 1.666-1.25 2.53-1.25.855-3.104.855-1.281 0-2.51-.417-1.22-.416-2.052-1.156l.875-1.75q.729.635 1.78 1.02 1.053.386 2.022.386.833 0 1.343-.291.51-.302.51-.927 0-.47-.312-.771-.312-.313-.76-.49-.448-.187-1.302-.448-1.136-.344-1.844-.666-.708-.334-1.23-.98-.51-.656-.51-1.74 0-1.624 1.198-2.468 1.198-.844 2.99-.844zM339.267 382.681q-1.22 1.49-3.75 1.49-1.198 0-2.105-.459-.906-.458-1.395-1.25-.49-.802-.49-1.812 0-1.563 1.125-2.469 1.135-.916 3.167-.937h3.427v-.344q0-1.083-.698-1.677-.688-.604-2.01-.604-1.646 0-3.344 1.146l-1.01-1.709q1.301-.77 2.333-1.094 1.041-.333 2.552-.333 2.177 0 3.375 1.063 1.198 1.052 1.218 2.927l.021 7.448h-2.416zm-3.24-.448q1.302 0 2.208-.604.907-.614 1.01-1.552v-1.042h-3.072q-1.219 0-1.781.355-.563.343-.563 1.156 0 .77.583 1.229.594.458 1.615.458zM349.515 372.63q1.51 0 2.698.478 1.198.48 1.99 1.375l-1.344 1.584q-1.24-1.282-3.156-1.282-1.51 0-2.49 1.01-.968 1-.968 2.615 0 1.605.947 2.615.948 1.01 2.428 1.01 2.177 0 3.343-1.364l1.365 1.364q-.771 1.021-2 1.573-1.219.542-2.813.542-1.666 0-2.968-.719-1.303-.729-2.032-2.031-.718-1.302-.718-2.99 0-1.708.718-3.01.73-1.313 2.032-2.042 1.302-.729 2.968-.729zM363.276 383.337q-1.417.834-2.803.834-1.385 0-2.28-.834-.897-.833-.897-2.468v-5.886h-1.604v-1.843h1.604v-3.115h2.438v3.115h3.344v1.843h-3.344v5.438q0 .854.292 1.198.302.333.916.333.688 0 1.709-.49zM365.51 384.067v-11.355h2.437v11.355zm1.208-16.084q.625 0 1.031.417.407.417.407 1.073 0 .635-.407 1.052-.406.417-1.03.417-.615 0-1.022-.407-.406-.416-.406-1.062 0-.656.406-1.073.407-.417 1.021-.417zM376.497 372.63q1.73 0 3.073.728 1.344.73 2.083 2.032.75 1.291.75 3 0 1.687-.75 3-.74 1.312-2.083 2.041-1.344.719-3.073.719-1.75 0-3.094-.719-1.343-.729-2.093-2.041-.74-1.313-.74-3 0-1.709.74-3 .75-1.303 2.093-2.032 1.344-.729 3.094-.729zm0 2.114q-1.531 0-2.51 1.03-.97 1.022-.97 2.636 0 1.646.97 2.677.979 1.021 2.51 1.021 1.531 0 2.49-1.02.968-1.032.968-2.678 0-1.625-.979-2.645-.969-1.021-2.479-1.021zM391.473 372.63q1.98 0 3.104 1.166 1.125 1.166 1.125 3.208v7.063h-2.458v-6.375q0-1.282-.73-2.021-.718-.74-2-.74-1.364.021-2.228.875-.865.854-.99 2.219v6.042h-2.458v-11.355h2.458v2.178q1.156-2.26 4.177-2.26zM402.356 372.608q1.084 0 2.136.313 1.062.312 1.833.844l-.896 1.812q-.75-.469-1.635-.73-.886-.27-1.636-.27-.77 0-1.218.281-.438.271-.438.844t.52.875q.522.302 1.74.688 1.157.343 1.907.687.76.333 1.302 1.02.541.678.541 1.793 0 1.666-1.25 2.53-1.25.855-3.104.855-1.28 0-2.51-.417-1.219-.416-2.052-1.156l.875-1.75q.729.635 1.781 1.02 1.052.386 2.02.386.834 0 1.345-.291.51-.302.51-.927 0-.47-.312-.771-.313-.313-.76-.49-.449-.187-1.303-.448-1.135-.344-1.844-.666-.708-.334-1.229-.98-.51-.656-.51-1.74 0-1.624 1.198-2.468 1.198-.844 2.99-.844zM409.327 381.483q.531 0 .916.375.386.375.386.99 0 .573-.386 1.135l-1.208 1.834h-1.26l.812-1.855q-.573-.385-.583-1.114 0-.594.375-.98.375-.385.948-.385z"/></g><g aria-label="Build blockchain" style="-inkscape-font-specification:Montserrat-Regular" font-weight="400" font-size="16" font-family="Montserrat"><path d="M231.34 394.73q2.323 0 3.667 1 1.343.989 1.343 2.739 0 1.26-.708 2.146-.698.885-1.917 1.177 1.49.26 2.344 1.26.865 1 .865 2.52 0 1.918-1.459 3.011-1.448 1.084-3.99 1.084h-6.635v-14.938zm-3.969 6.187h3.844q1.198 0 1.875-.532.677-.53.677-1.468t-.677-1.438q-.667-.51-1.875-.51h-3.844zm0 6.51h3.844q1.49 0 2.312-.562.823-.573.823-1.615 0-.98-.833-1.542-.833-.573-2.302-.573h-3.844zM250.047 409.667h-2.448v-2.22q-1.105 2.261-4.052 2.303-1.938 0-3.053-1.167-1.114-1.177-1.114-3.208v-7.063h2.458v6.386q0 1.281.698 2.02.708.73 1.948.73 1.427-.021 2.27-1.01.845-1 .845-2.532v-5.594h2.448zM253.611 409.667v-11.355h2.438v11.355zm1.208-16.084q.625 0 1.032.417.406.417.406 1.073 0 .635-.406 1.052-.407.417-1.032.417-.614 0-1.02-.407-.407-.416-.407-1.062 0-.656.407-1.073.406-.417 1.02-.417zM259.838 409.667v-15.834h2.458v15.834zM276.669 409.667h-2.448v-1.938q-.615 1-1.635 1.52-1.01.522-2.355.522-1.625 0-2.854-.73-1.218-.739-1.906-2.062-.677-1.323-.677-3.031 0-1.688.677-2.99.688-1.302 1.906-2.02 1.23-.73 2.813-.73 1.364 0 2.375.542 1.01.531 1.656 1.531v-6.448h2.448zm-5.927-1.938q1.542 0 2.51-1.031.969-1.042.969-2.667 0-1.646-.969-2.687-.968-1.042-2.51-1.042-1.531 0-2.51 1.052-.97 1.042-.99 2.677.02 1.625.99 2.667.979 1.031 2.51 1.031zM292.377 398.23q1.594 0 2.823.728 1.23.73 1.906 2.052.688 1.313.688 3.021 0 1.688-.677 2.99-.667 1.302-1.886 2.02-1.219.709-2.812.709-1.344 0-2.375-.52-1.021-.522-1.636-1.522v1.959h-2.458v-15.834h2.458v6.448q.615-1 1.625-1.52 1.021-.532 2.344-.532zm-.51 9.426q1 0 1.78-.469.793-.468 1.23-1.312.438-.854.438-1.927 0-1.042-.438-1.875-.437-.833-1.23-1.313-.78-.479-1.78-.479t-1.792.469q-.792.469-1.23 1.312-.437.844-.437 1.886 0 1.646.969 2.677.969 1.031 2.49 1.031zM300.35 409.667v-15.834h2.458v15.834zM311.382 398.23q1.73 0 3.073.728 1.344.73 2.084 2.032.75 1.291.75 3 0 1.687-.75 3-.74 1.312-2.084 2.041-1.343.719-3.073.719-1.75 0-3.093-.719-1.344-.729-2.094-2.041-.74-1.313-.74-3 0-1.709.74-3 .75-1.303 2.094-2.032 1.343-.729 3.093-.729zm0 2.114q-1.53 0-2.51 1.03-.969 1.022-.969 2.636 0 1.646.969 2.677.98 1.021 2.51 1.021 1.532 0 2.49-1.02.969-1.032.969-2.678 0-1.625-.98-2.645-.968-1.021-2.479-1.021zM324.507 398.23q1.51 0 2.698.478 1.198.48 1.99 1.375l-1.344 1.584q-1.24-1.282-3.156-1.282-1.51 0-2.49 1.01-.968 1-.968 2.615 0 1.605.947 2.615.948 1.01 2.428 1.01 2.177 0 3.343-1.364l1.365 1.364q-.771 1.021-2 1.573-1.219.542-2.813.542-1.666 0-2.968-.719-1.302-.729-2.032-2.031-.718-1.302-.718-2.99 0-1.708.718-3.01.73-1.313 2.032-2.042 1.302-.729 2.968-.729zM334.403 406.49v3.177h-2.458v-15.834h2.458v9.563l5.01-5.084h2.813l-4.198 4.396 4.52 6.959h-2.895l-3.333-5.209zM348.635 398.23q1.51 0 2.698.478 1.198.48 1.99 1.375l-1.344 1.584q-1.24-1.282-3.156-1.282-1.51 0-2.49 1.01-.968 1-.968 2.615 0 1.605.947 2.615.948 1.01 2.428 1.01 2.177 0 3.343-1.364l1.365 1.364q-.771 1.021-2 1.573-1.219.542-2.813.542-1.666 0-2.968-.719-1.302-.729-2.032-2.031-.718-1.302-.718-2.99 0-1.708.718-3.01.73-1.313 2.032-2.042 1.302-.729 2.968-.729zM362.729 398.23q1.99 0 3.104 1.166 1.125 1.166 1.125 3.208v7.063H364.5v-6.375q0-1.282-.73-2.021-.718-.74-2-.74-1.49.021-2.364 1.021-.875.99-.875 2.52v5.595h-2.458v-15.834h2.458v6.698q1.177-2.302 4.198-2.302zM377.021 408.281q-1.219 1.49-3.75 1.49-1.198 0-2.104-.459-.906-.458-1.396-1.25-.49-.802-.49-1.812 0-1.563 1.126-2.469 1.135-.916 3.166-.937H377v-.344q0-1.083-.698-1.677-.687-.604-2.01-.604-1.646 0-3.344 1.146l-1.01-1.709q1.302-.77 2.333-1.094 1.042-.333 2.552-.333 2.177 0 3.375 1.063 1.198 1.052 1.219 2.927l.02 7.448h-2.416zm-3.24-.448q1.303 0 2.209-.604.906-.614 1.01-1.552v-1.042h-3.073q-1.218 0-1.78.355-.563.343-.563 1.156 0 .77.583 1.229.594.458 1.615.458zM382.742 409.667v-11.355h2.437v11.355zm1.208-16.084q.625 0 1.031.417.407.417.407 1.073 0 .635-.407 1.052-.406.417-1.03.417-.615 0-1.022-.407-.406-.416-.406-1.062 0-.656.406-1.073.407-.417 1.021-.417zM395.372 398.23q1.979 0 3.104 1.166t1.125 3.208v7.063h-2.458v-6.375q0-1.282-.73-2.021-.718-.74-2-.74-1.364.021-2.229.875-.864.854-.99 2.219v6.042h-2.458v-11.355h2.459v2.178q1.156-2.26 4.177-2.26z"/></g><path d="M315.159 280.2h-7.067M305.559 280.2h-4M299.025 280.2h-4M292.492 280.2h-3.867M286.092 280.2h-4M279.559 280.2h-4M273.025 280.2h-3.866M266.625 280.2h-4M260.092 280.2h-4M253.559 280.2h-3.867M247.159 280.2h-4M240.625 280.2h-4M234.092 280.2h-3.867M227.692 280.2h-4M221.159 280.2h-4M214.625 280.2h-3.866M208.092 280.2h-3.867M201.692 280.2h-4M195.159 280.2h-3.867M188.625 280.2h-3.866M182.225 280.2h-4M175.692 280.2h-4M169.159 280.2h-3.867M162.759 280.2h-4M156.225 280.2h-4M149.692 280.2h-3.867M143.292 280.2h-4M139.159 277.8v-4M139.159 271.267V267.4M139.159 264.867v-4M139.159 258.333v-4M139.159 251.8v-3.867M139.159 245.4v-4M139.159 238.867v-4M139.159 232.333v-3.866M139.159 225.933v-4M139.159 219.4v-4M139.159 212.867V209M139.159 206.467v-4M139.159 199.933v-4M139.159 193.4v-3.867M139.159 186.867V183M139.159 180.467v-4M139.159 173.933v-3.866M139.159 167.4v-3.867M139.159 161v-.8h3.2M144.892 160.2h4M151.425 160.2h4M157.959 160.2h3.866M164.359 160.2h4M170.892 160.2h4M177.425 160.2h3.867M183.825 160.2h4M190.359 160.2h4M196.892 160.2h3.867M203.425 160.2h3.867M209.825 160.2h4M216.359 160.2h3.866M222.892 160.2h3.867M229.292 160.2h4M235.825 160.2h4M242.359 160.2h3.866M248.759 160.2h4M255.292 160.2h4M261.825 160.2h3.867M268.225 160.2h4M274.759 160.2h4M281.292 160.2h3.867M287.692 160.2h4M294.225 160.2h4M300.759 160.2h3.866M307.159 160.2h4M313.692 160.2h4M320.225 160.2h3.867M326.625 160.2h4M333.159 160.2h4M339.692 160.2h3.867M346.092 160.2h4M352.625 160.2h4M359.159 160.2h3.866M365.692 160.2h3.867M372.092 160.2h4M378.625 160.2h3.867M385.159 160.2h3.866M391.559 160.2h4M398.092 160.2h4M404.625 160.2h3.867M411.025 160.2h4M417.559 160.2h4M424.092 160.2h3.867M430.492 160.2h4M437.025 160.2h4M443.559 160.2h3.866M449.959 160.2h4M456.492 160.2h4M462.892 160.2h4M469.425 160.2h4M475.959 160.2h3.866M482.492 160.2h2.267v1.6M484.759 164.333v4M484.759 170.867v3.866M484.759 177.4v3.867M484.759 183.8v4M484.759 190.333v4M484.759 196.867v3.866M484.759 203.267v4M484.759 209.8v4M484.759 216.333v3.867M484.759 222.733v4M484.759 229.267v4M484.759 235.8v3.867M484.759 242.2v4M484.759 248.733v4M484.759 255.267v3.866M484.759 261.667v4M484.759 268.2v4M484.759 274.733v3.867M483.825 280.2h-4M477.292 280.2h-3.867M470.892 280.2h-4M464.359 280.2h-3.867M457.959 280.2h-4M451.425 280.2h-4M444.892 280.2h-3.867M438.492 280.2h-4M431.959 280.2h-4M425.425 280.2h-3.866M419.025 280.2h-4M412.492 280.2h-4M405.959 280.2h-3.867M399.425 280.2h-3.866M393.025 280.2h-4M386.492 280.2h-3.867M379.959 280.2h-3.867M373.559 280.2h-4M367.025 280.2h-4M360.492 280.2h-3.867M354.092 280.2h-4M347.559 280.2h-4M341.025 280.2h-3.866M334.625 280.2h-4M328.092 280.2h-4M321.559 280.2h-3.867" fill="none" stroke="#3465a4" stroke-width="1.9999949999999997" stroke-linejoin="round" stroke-miterlimit="10"/><path d="M312.092 265.8h-45.733v-91.2h91.2v91.2z" fill="#f79448" fill-rule="evenodd"/><g clip-path="url(#d)" opacity=".5" transform="matrix(1.33333 0 0 -1.33333 -126.308 741.533)"><path d="M328.8 356.8h-34.3v68.4h68.4v-68.4z" fill="none" stroke="#fff" stroke-width="4.5" stroke-linejoin="round" stroke-miterlimit="10"/></g><path d="M422.359 265.8h-45.6v-91.2h91.2v91.2z" fill="#f79448" fill-rule="evenodd"/><g clip-path="url(#e)" opacity=".5" transform="matrix(1.33333 0 0 -1.33333 -126.308 741.533)"><path d="M411.5 356.8h-34.2v68.4h68.4v-68.4z" fill="none" stroke="#fff" stroke-width="4.5" stroke-linejoin="round" stroke-miterlimit="10"/></g><path d="M201.559 265.8h-45.6v-91.2h91.2v91.2z" fill="#f79448" fill-rule="evenodd"/><g clip-path="url(#f)" opacity=".5" transform="matrix(1.33333 0 0 -1.33333 -126.308 741.533)"><path d="M245.9 356.8h-34.2v68.4h68.4v-68.4z" fill="none" stroke="#fff" stroke-width="4.5" stroke-linejoin="round" stroke-miterlimit="10"/></g><g aria-label="masternodes" style="-inkscape-font-specification:Montserrat-Light" font-weight="300" font-size="36" font-family="Montserrat"><path d="M195.186 188.77q4.406 0 6.89 2.625 2.509 2.602 2.509 7.196V214.2h-3.727v-14.602q0-3.351-1.875-5.25-1.875-1.898-5.133-1.898-3.89.094-6.093 2.648-2.18 2.532-2.18 6.68V214.2h-3.774v-14.602q0-3.351-1.851-5.25-1.852-1.898-5.156-1.898-3.844.094-6.094 2.648-2.227 2.532-2.227 6.68V214.2h-3.68v-25.29h3.68v5.696q1.242-2.883 3.68-4.336 2.46-1.453 5.977-1.5 3.562 0 5.906 1.735 2.344 1.71 3.164 4.875 1.148-3.305 3.703-4.922 2.578-1.64 6.281-1.688zM228.54 210.31q-3.024 4.077-9.259 4.077-2.554 0-4.523-1.007-1.945-1.008-3.023-2.766-1.055-1.781-1.055-3.96 0-3.306 2.484-5.25 2.508-1.946 6.985-1.993h8.297v-1.477q0-2.836-1.735-4.36-1.71-1.546-5.039-1.546-3.844 0-8.016 2.883l-1.57-2.742q2.695-1.782 4.969-2.578 2.273-.82 5.344-.82 4.664 0 7.172 2.296 2.53 2.297 2.578 6.422l.047 16.71h-3.657zm-8.532.82q3.21 0 5.484-1.5 2.274-1.524 3-4.172v-3.024h-7.875q-6.421 0-6.421 4.078 0 2.11 1.57 3.375 1.594 1.243 4.242 1.243zM247.163 188.77q2.273 0 4.383.61 2.109.586 3.68 1.687l-1.43 2.977q-1.477-.961-3.305-1.5-1.828-.563-3.563-.563-2.25 0-3.632.844-1.36.82-1.36 2.508 0 1.148.774 1.922.773.773 1.898 1.265 1.125.469 3.14 1.031 2.65.774 4.29 1.547 1.664.774 2.836 2.25 1.172 1.453 1.172 3.797 0 3.563-2.672 5.39-2.649 1.806-6.586 1.806-2.742 0-5.344-.938-2.578-.937-4.36-2.602l1.454-2.835q1.593 1.476 3.867 2.343 2.273.867 4.523.867 2.39 0 3.89-.937 1.524-.938 1.524-2.766t-1.453-2.695q-1.453-.89-4.476-1.758-2.649-.82-4.22-1.523-1.546-.727-2.694-2.133-1.125-1.43-1.125-3.703 0-3.445 2.484-5.156 2.508-1.735 6.305-1.735zM275.354 212.466q-2.742 1.875-5.718 1.921-2.93 0-4.688-1.78-1.758-1.806-1.758-5.415v-14.437h-3.633v-3.024h3.633v-6.68h3.703v6.68l8.016-.07v3.094h-8.016v13.757q0 2.25.844 3.258.844.985 2.531.985 1.97 0 4.032-1.313zM290.762 188.817q5.953 0 8.976 3.82 3.024 3.797 2.719 10.383h-20.625q.469 3.703 2.953 5.883 2.508 2.18 6.211 2.18 2.344 0 4.336-.82 1.992-.82 3.492-2.344l2.063 2.203q-1.828 2.015-4.453 3.117-2.602 1.102-5.72 1.102-3.702 0-6.562-1.594-2.86-1.617-4.453-4.524-1.57-2.906-1.57-6.656 0-3.75 1.594-6.633 1.617-2.906 4.5-4.5 2.882-1.617 6.539-1.617zm8.343 11.133q-.187-3.656-2.484-5.79-2.273-2.132-5.953-2.132-3.61 0-6.023 2.156-2.391 2.157-2.813 5.766zM312.538 194.512q1.266-2.765 3.563-4.218 2.297-1.477 5.507-1.524v3.774q-3.937-.047-6.328 2.203-2.39 2.226-2.742 6.023v13.43h-3.726v-25.29h3.726zM340.047 188.77q4.523 0 7.055 2.625 2.554 2.602 2.554 7.196V214.2h-3.75v-14.602q0-3.351-1.898-5.226t-5.25-1.875q-3.703.047-5.93 2.273-2.226 2.203-2.578 5.836V214.2h-3.726v-25.29h3.726v5.556q2.602-5.625 9.797-5.696zM368.23 188.817q3.702 0 6.609 1.617 2.93 1.594 4.57 4.5 1.64 2.907 1.64 6.586 0 3.75-1.64 6.656-1.64 2.907-4.57 4.547-2.907 1.618-6.61 1.618-3.703 0-6.633-1.618-2.93-1.64-4.57-4.547-1.617-2.906-1.617-6.656 0-3.703 1.617-6.586 1.64-2.906 4.57-4.5 2.93-1.617 6.633-1.617zm0 3.399q-2.602 0-4.688 1.195t-3.235 3.328q-1.148 2.11-1.148 4.828 0 2.742 1.148 4.875 1.149 2.133 3.235 3.352 2.086 1.195 4.687 1.195 2.602 0 4.688-1.195 2.086-1.22 3.234-3.352 1.149-2.133 1.149-4.875t-1.149-4.851q-1.148-2.11-3.258-3.305-2.086-1.195-4.664-1.195zM410.806 214.2h-3.75v-5.414q-1.43 2.695-3.96 4.148-2.509 1.453-5.884 1.453-3.562 0-6.351-1.617-2.766-1.64-4.313-4.57-1.523-2.93-1.523-6.68 0-3.75 1.523-6.633 1.547-2.906 4.313-4.523 2.765-1.64 6.304-1.64 3.352 0 5.93 1.452 2.578 1.454 3.961 4.196v-15.797h3.75zm-12.867-3.164q2.648 0 4.71-1.195 2.063-1.22 3.235-3.375 1.172-2.157 1.172-4.852 0-2.742-1.172-4.898-1.172-2.157-3.234-3.375-2.063-1.22-4.711-1.22-2.649 0-4.734 1.22-2.086 1.218-3.258 3.398-1.172 2.156-1.172 4.875 0 2.695 1.172 4.852 1.172 2.156 3.258 3.375 2.085 1.195 4.734 1.195zM430.298 188.817q5.953 0 8.976 3.82 3.024 3.797 2.719 10.383h-20.625q.469 3.703 2.953 5.883 2.508 2.18 6.211 2.18 2.344 0 4.336-.82 1.992-.82 3.492-2.344l2.063 2.203q-1.828 2.015-4.453 3.117-2.602 1.102-5.72 1.102-3.702 0-6.562-1.594-2.86-1.617-4.453-4.524-1.57-2.906-1.57-6.656 0-3.75 1.594-6.633 1.617-2.906 4.5-4.5 2.882-1.617 6.539-1.617zm8.343 11.133q-.187-3.656-2.484-5.79-2.273-2.132-5.953-2.132-3.61 0-6.024 2.156-2.39 2.157-2.812 5.766zM455.05 188.77q2.274 0 4.384.61 2.109.586 3.68 1.687l-1.43 2.977q-1.477-.961-3.305-1.5-1.828-.563-3.563-.563-2.25 0-3.632.844-1.36.82-1.36 2.508 0 1.148.774 1.922.773.773 1.898 1.265 1.125.469 3.14 1.031 2.65.774 4.29 1.547 1.664.774 2.836 2.25 1.172 1.453 1.172 3.797 0 3.563-2.672 5.39-2.649 1.806-6.586 1.806-2.742 0-5.344-.938-2.578-.937-4.36-2.602l1.454-2.835q1.593 1.476 3.867 2.343 2.273.867 4.523.867 2.39 0 3.89-.937 1.524-.938 1.524-2.766t-1.453-2.695q-1.453-.89-4.476-1.758-2.649-.82-4.22-1.523-1.546-.727-2.694-2.133-1.125-1.43-1.125-3.703 0-3.445 2.484-5.156 2.508-1.735 6.305-1.735z"/></g><g aria-label="InstantSend, PrivateSend," style="-inkscape-font-specification:Montserrat-Regular" font-weight="400" font-size="16" font-family="Montserrat"><path d="M178.717 244.867v-14.938h2.52v14.938zM191.607 233.43q1.979 0 3.104 1.166t1.125 3.208v7.063h-2.459v-6.375q0-1.282-.729-2.021-.719-.74-2-.74-1.364.021-2.229.875t-.99 2.219v6.042h-2.458v-11.355h2.458v2.178q1.157-2.26 4.178-2.26zM202.49 233.408q1.083 0 2.135.313 1.063.312 1.833.844l-.895 1.812q-.75-.469-1.636-.73-.885-.27-1.635-.27-.771 0-1.22.281-.437.271-.437.844t.521.875q.521.302 1.74.688 1.156.343 1.906.687.76.333 1.302 1.02.542.678.542 1.793 0 1.666-1.25 2.53-1.25.855-3.104.855-1.282 0-2.51-.417-1.22-.416-2.053-1.156l.875-1.75q.73.635 1.781 1.02 1.053.386 2.021.386.834 0 1.344-.291.51-.302.51-.927 0-.47-.312-.771-.313-.313-.76-.49-.448-.187-1.303-.448-1.135-.344-1.843-.666-.709-.334-1.23-.98-.51-.656-.51-1.74 0-1.624 1.198-2.468 1.198-.844 2.99-.844zM215.377 244.137q-1.417.834-2.802.834-1.386 0-2.281-.834-.896-.833-.896-2.468v-5.886h-1.604v-1.843h1.604v-3.115h2.437v3.115h3.344v1.843h-3.344v5.438q0 .854.292 1.198.302.333.917.333.687 0 1.708-.49zM224.413 243.481q-1.219 1.49-3.75 1.49-1.198 0-2.104-.459-.906-.458-1.396-1.25-.49-.802-.49-1.812 0-1.563 1.126-2.469 1.135-.916 3.166-.937h3.427v-.344q0-1.083-.698-1.677-.687-.604-2.01-.604-1.646 0-3.344 1.146l-1.01-1.709q1.302-.77 2.333-1.094 1.042-.333 2.552-.333 2.177 0 3.375 1.063 1.198 1.052 1.219 2.927l.02 7.448h-2.416zm-3.24-.448q1.303 0 2.209-.604.906-.614 1.01-1.552v-1.042h-3.073q-1.218 0-1.78.355-.563.343-.563 1.156 0 .77.583 1.229.594.458 1.615.458zM236.77 233.43q1.978 0 3.103 1.166 1.125 1.166 1.125 3.208v7.063h-2.458v-6.375q0-1.282-.73-2.021-.718-.74-2-.74-1.364.021-2.228.875-.865.854-.99 2.219v6.042h-2.458v-11.355h2.458v2.178q1.156-2.26 4.177-2.26zM250.556 244.137q-1.417.834-2.803.834-1.385 0-2.28-.834-.897-.833-.897-2.468v-5.886h-1.604v-1.843h1.604v-3.115h2.438v3.115h3.344v1.843h-3.344v5.438q0 .854.292 1.198.302.333.916.333.688 0 1.709-.49zM257.842 229.825q1.437 0 2.802.417 1.365.416 2.427 1.125l-1.042 2.218q-1.156-.708-2.312-1.052-1.146-.343-2.063-.343-1.135 0-1.78.406-.647.406-.647 1.156 0 .656.417 1.104.427.448 1.062.719.646.27 1.803.604 1.51.448 2.458.886.958.437 1.625 1.302.677.864.677 2.25 0 1.302-.719 2.291-.719.98-2 1.51-1.27.532-2.916.532-1.709 0-3.313-.635-1.594-.646-2.792-1.73l1.094-2.177q1.136 1.042 2.48 1.615 1.353.562 2.572.562 1.323 0 2.052-.479.74-.479.74-1.333 0-.688-.438-1.136-.437-.447-1.093-.697-.646-.26-1.792-.605-1.531-.448-2.469-.875-.927-.427-1.604-1.25-.667-.833-.667-2.218 0-1.26.677-2.198.688-.948 1.917-1.459 1.23-.51 2.844-.51zM270.779 233.43q2.687 0 4.02 1.52 1.334 1.51 1.334 4.26 0 .282-.042.917h-8.583q.302 1.323 1.24 2.083.937.76 2.28.76.918 0 1.75-.343.834-.344 1.449-.98l1.302 1.386q-.854.917-2.052 1.417-1.188.5-2.636.5-1.729 0-3.041-.719-1.313-.729-2.042-2.031-.719-1.302-.719-2.99 0-1.687.719-2.99.73-1.312 2.042-2.051 1.312-.74 2.979-.74zm3.177 4.905q-.063-1.364-.917-2.145-.854-.792-2.24-.792-1.343 0-2.228.792-.886.78-1.105 2.145zM285.132 233.43q1.979 0 3.104 1.166t1.125 3.208v7.063h-2.458v-6.375q0-1.282-.73-2.021-.718-.74-2-.74-1.364.021-2.229.875-.864.854-.99 2.219v6.042h-2.458v-11.355h2.459v2.178q1.156-2.26 4.177-2.26zM303.432 244.867h-2.448v-1.938q-.615 1-1.636 1.52-1.01.522-2.354.522-1.625 0-2.854-.73-1.219-.739-1.906-2.062-.677-1.323-.677-3.031 0-1.688.677-2.99.687-1.302 1.906-2.02 1.23-.73 2.812-.73 1.365 0 2.375.542 1.01.531 1.657 1.531v-6.448h2.448zm-5.927-1.938q1.541 0 2.51-1.031.969-1.042.969-2.667 0-1.646-.97-2.687-.968-1.042-2.51-1.042-1.53 0-2.51 1.052-.969 1.042-.99 2.677.021 1.625.99 2.667.98 1.031 2.51 1.031zM307.658 242.283q.53 0 .916.375t.386.99q0 .573-.386 1.135l-1.208 1.834h-1.26l.812-1.855q-.573-.385-.583-1.114 0-.594.375-.98.375-.385.948-.385zM323.235 229.93q2.813 0 4.354 1.332 1.553 1.334 1.553 3.771 0 2.542-1.553 3.938-1.541 1.396-4.354 1.396h-3.437v4.5h-2.521v-14.938zm-3.437 8.176h3.333q1.75 0 2.677-.76t.927-2.25q0-1.448-.927-2.177-.927-.73-2.677-.73h-3.333zM333.712 235.783q.573-1.156 1.573-1.75 1-.604 2.344-.604v2.354q-1.688-.083-2.73.792-1.041.865-1.187 2.365v5.927h-2.458v-11.355h2.458zM339.638 244.867v-11.355h2.437v11.355zm1.208-16.084q.625 0 1.031.417.407.417.407 1.073 0 .635-.407 1.052-.406.417-1.03.417-.615 0-1.022-.407-.406-.416-.406-1.062 0-.656.406-1.073.407-.417 1.021-.417zM348.237 244.867l-4.396-11.355h2.562l3.157 8.948 3.114-8.948h2.448l-4.344 11.355zM363.357 243.481q-1.219 1.49-3.75 1.49-1.198 0-2.104-.459-.906-.458-1.396-1.25-.49-.802-.49-1.812 0-1.563 1.126-2.469 1.135-.916 3.166-.937h3.427v-.344q0-1.083-.698-1.677-.687-.604-2.01-.604-1.646 0-3.344 1.146l-1.01-1.709q1.302-.77 2.333-1.094 1.042-.333 2.552-.333 2.177 0 3.375 1.063 1.198 1.052 1.219 2.927l.02 7.448h-2.416zm-3.24-.448q1.303 0 2.209-.604.906-.614 1.01-1.552v-1.042h-3.073q-1.218 0-1.78.355-.563.343-.563 1.156 0 .77.583 1.229.594.458 1.615.458zM375.505 244.137q-1.417.834-2.802.834-1.386 0-2.281-.834-.896-.833-.896-2.468v-5.886h-1.604v-1.843h1.604v-3.115h2.437v3.115h3.344v1.843h-3.344v5.438q0 .854.292 1.198.302.333.917.333.687 0 1.708-.49zM382.16 233.43q2.688 0 4.021 1.52 1.333 1.51 1.333 4.26 0 .282-.041.917h-8.584q.302 1.323 1.24 2.083.937.76 2.281.76.917 0 1.75-.343.834-.344 1.448-.98l1.302 1.386q-.854.917-2.052 1.417-1.187.5-2.635.5-1.73 0-3.042-.719-1.312-.729-2.042-2.031-.718-1.302-.718-2.99 0-1.687.718-2.99.73-1.312 2.042-2.051 1.313-.74 2.98-.74zm3.177 4.905q-.062-1.364-.916-2.145-.855-.792-2.24-.792-1.344 0-2.23.792-.885.78-1.103 2.145zM395.058 229.825q1.437 0 2.802.417 1.365.416 2.427 1.125l-1.042 2.218q-1.156-.708-2.312-1.052-1.146-.343-2.063-.343-1.135 0-1.78.406-.647.406-.647 1.156 0 .656.417 1.104.427.448 1.062.719.646.27 1.803.604 1.51.448 2.458.886.958.437 1.625 1.302.677.864.677 2.25 0 1.302-.719 2.291-.719.98-2 1.51-1.27.532-2.916.532-1.709 0-3.313-.635-1.594-.646-2.792-1.73l1.094-2.177q1.136 1.042 2.48 1.615 1.353.562 2.572.562 1.323 0 2.052-.479.74-.479.74-1.333 0-.688-.438-1.136-.437-.447-1.093-.697-.646-.26-1.792-.605-1.531-.448-2.469-.875-.927-.427-1.604-1.25-.667-.833-.667-2.218 0-1.26.677-2.198.688-.948 1.917-1.459 1.23-.51 2.844-.51zM407.888 233.43q2.688 0 4.021 1.52 1.333 1.51 1.333 4.26 0 .282-.041.917h-8.584q.302 1.323 1.24 2.083.937.76 2.281.76.917 0 1.75-.343.834-.344 1.448-.98l1.302 1.386q-.854.917-2.052 1.417-1.187.5-2.635.5-1.73 0-3.042-.719-1.313-.729-2.042-2.031-.718-1.302-.718-2.99 0-1.687.718-2.99.73-1.312 2.042-2.051 1.312-.74 2.98-.74zm3.177 4.905q-.062-1.364-.916-2.145-.855-.792-2.24-.792-1.344 0-2.23.792-.885.78-1.103 2.145zM422.37 233.43q1.978 0 3.103 1.166 1.125 1.166 1.125 3.208v7.063h-2.458v-6.375q0-1.282-.73-2.021-.718-.74-2-.74-1.364.021-2.228.875-.865.854-.99 2.219v6.042h-2.458v-11.355h2.458v2.178q1.156-2.26 4.177-2.26zM440.669 244.867h-2.448v-1.938q-.615 1-1.635 1.52-1.01.522-2.355.522-1.625 0-2.854-.73-1.218-.739-1.906-2.062-.677-1.323-.677-3.031 0-1.688.677-2.99.688-1.302 1.906-2.02 1.23-.73 2.813-.73 1.364 0 2.375.542 1.01.531 1.656 1.531v-6.448h2.448zm-5.927-1.938q1.542 0 2.51-1.031.969-1.042.969-2.667 0-1.646-.969-2.687-.968-1.042-2.51-1.042-1.531 0-2.51 1.052-.97 1.042-.99 2.677.02 1.625.99 2.667.979 1.031 2.51 1.031zM444.895 242.283q.531 0 .917.375.385.375.385.99 0 .573-.385 1.135l-1.209 1.834h-1.26l.812-1.855q-.573-.385-.583-1.114 0-.594.375-.98.375-.385.948-.385z"/></g><g aria-label="Governance, DashDrive, DAPI" style="-inkscape-font-specification:Montserrat-Regular" font-weight="400" font-size="16" font-family="Montserrat"><path d="M174.2 263.123v5.51q-1.156.875-2.718 1.407-1.563.53-3.084.53-2.177 0-3.979-1t-2.833-2.739q-1.032-1.74-1.032-3.833 0-2.115 1.053-3.823 1.052-1.719 2.885-2.708 1.844-1 4.062-1 1.584 0 3.105.573 1.52.562 2.635 1.52l-1.437 1.855q-.875-.813-2.01-1.26-1.126-.449-2.293-.449-1.49 0-2.74.709-1.25.697-1.978 1.916-.73 1.219-.73 2.667 0 1.469.73 2.687.729 1.22 1.979 1.927 1.26.698 2.76.698.834 0 1.73-.26.895-.27 1.697-.76v-4.167zM182.374 259.03q1.73 0 3.073.728 1.344.73 2.084 2.032.75 1.291.75 3 0 1.687-.75 3-.74 1.312-2.084 2.041-1.343.719-3.073.719-1.75 0-3.093-.719-1.344-.729-2.094-2.041-.74-1.313-.74-3 0-1.709.74-3 .75-1.303 2.094-2.032 1.343-.729 3.093-.729zm0 2.114q-1.53 0-2.51 1.03-.969 1.022-.969 2.636 0 1.646.969 2.677.98 1.021 2.51 1.021 1.532 0 2.49-1.02.969-1.032.969-2.678 0-1.625-.98-2.645-.968-1.021-2.479-1.021zM193.042 270.467l-4.396-11.355h2.563l3.156 8.948 3.114-8.948h2.448l-4.343 11.355zM205.782 259.03q2.687 0 4.02 1.52 1.334 1.51 1.334 4.26 0 .282-.042.917h-8.583q.302 1.323 1.24 2.083.937.76 2.28.76.917 0 1.75-.343.834-.344 1.448-.98l1.303 1.386q-.855.917-2.053 1.417-1.187.5-2.635.5-1.73 0-3.042-.719-1.312-.729-2.041-2.031-.72-1.302-.72-2.99 0-1.687.72-2.99.729-1.312 2.041-2.051 1.313-.74 2.98-.74zm3.177 4.905q-.063-1.364-.917-2.145-.854-.792-2.24-.792-1.343 0-2.229.792-.885.78-1.104 2.145zM216.085 261.383q.573-1.156 1.573-1.75 1-.604 2.344-.604v2.354q-1.687-.083-2.73.792-1.04.865-1.187 2.365v5.927h-2.458v-11.355h2.458zM228.519 259.03q1.979 0 3.104 1.166t1.125 3.208v7.063h-2.459v-6.375q0-1.282-.729-2.021-.719-.74-2-.74-1.364.021-2.229.875t-.99 2.219v6.042h-2.458v-11.355h2.458v2.178q1.157-2.26 4.178-2.26zM242.808 269.081q-1.219 1.49-3.75 1.49-1.198 0-2.104-.459-.907-.458-1.396-1.25-.49-.802-.49-1.812 0-1.563 1.125-2.469 1.136-.916 3.167-.937h3.427v-.344q0-1.083-.698-1.677-.687-.604-2.01-.604-1.646 0-3.344 1.146l-1.01-1.709q1.302-.77 2.333-1.094 1.042-.333 2.552-.333 2.177 0 3.375 1.063 1.198 1.052 1.219 2.927l.02 7.448h-2.416zm-3.24-.448q1.302 0 2.209-.604.906-.614 1.01-1.552v-1.042h-3.073q-1.219 0-1.781.355-.563.343-.563 1.156 0 .77.584 1.229.593.458 1.614.458zM255.036 259.03q1.979 0 3.104 1.166t1.125 3.208v7.063h-2.458v-6.375q0-1.282-.73-2.021-.718-.74-2-.74-1.364.021-2.229.875-.864.854-.99 2.219v6.042H248.4v-11.355h2.459v2.178q1.156-2.26 4.177-2.26zM267.18 259.03q1.51 0 2.697.478 1.198.48 1.99 1.375l-1.344 1.584q-1.24-1.282-3.156-1.282-1.51 0-2.49 1.01-.968 1-.968 2.615 0 1.605.947 2.615.948 1.01 2.428 1.01 2.177 0 3.343-1.364l1.365 1.364q-.771 1.021-2 1.573-1.219.542-2.813.542-1.666 0-2.968-.719-1.302-.729-2.032-2.031-.718-1.302-.718-2.99 0-1.708.718-3.01.73-1.313 2.032-2.042 1.302-.729 2.968-.729zM278.656 259.03q2.688 0 4.021 1.52 1.333 1.51 1.333 4.26 0 .282-.041.917h-8.584q.302 1.323 1.24 2.083.937.76 2.281.76.917 0 1.75-.343.833-.344 1.448-.98l1.302 1.386q-.854.917-2.052 1.417-1.187.5-2.635.5-1.73 0-3.042-.719-1.313-.729-2.042-2.031-.718-1.302-.718-2.99 0-1.687.718-2.99.73-1.312 2.042-2.051 1.312-.74 2.98-.74zm3.177 4.905q-.062-1.364-.916-2.145-.855-.792-2.24-.792-1.344 0-2.23.792-.885.78-1.103 2.145zM287.012 267.883q.531 0 .917.375.385.375.385.99 0 .573-.385 1.135l-1.208 1.834h-1.26l.812-1.855q-.573-.385-.584-1.114 0-.594.375-.98.375-.385.948-.385zM302.629 255.53q2.218 0 3.979.968 1.76.958 2.75 2.667 1 1.697 1 3.833 0 2.135-1.01 3.833-1 1.698-2.771 2.667-1.771.969-4.01.969h-6.063v-14.938zm-3.605 12.676h3.667q1.427 0 2.604-.656 1.177-.667 1.844-1.844.677-1.187.677-2.687 0-1.49-.698-2.677-.687-1.198-1.885-1.875t-2.646-.677h-3.563zM319.672 269.081q-1.219 1.49-3.75 1.49-1.198 0-2.104-.459-.907-.458-1.396-1.25-.49-.802-.49-1.812 0-1.563 1.125-2.469 1.136-.916 3.167-.937h3.427v-.344q0-1.083-.698-1.677-.687-.604-2.01-.604-1.646 0-3.344 1.146l-1.01-1.709q1.302-.77 2.333-1.094 1.042-.333 2.552-.333 2.177 0 3.375 1.063 1.198 1.052 1.219 2.927l.02 7.448h-2.416zm-3.24-.448q1.302 0 2.209-.604.906-.614 1.01-1.552v-1.042h-3.073q-1.219 0-1.781.355-.563.343-.563 1.156 0 .77.584 1.229.593.458 1.614.458zM328.66 259.008q1.084 0 2.136.313 1.062.312 1.833.844l-.896 1.812q-.75-.469-1.635-.73-.886-.27-1.636-.27-.77 0-1.218.281-.438.271-.438.844t.52.875q.522.302 1.74.688 1.157.343 1.907.687.76.333 1.302 1.02.542.678.542 1.793 0 1.666-1.25 2.53-1.25.855-3.105.855-1.28 0-2.51-.417-1.219-.416-2.052-1.156l.875-1.75q.729.635 1.781 1.02 1.052.386 2.02.386.834 0 1.345-.291.51-.302.51-.927 0-.47-.312-.771-.313-.313-.76-.49-.449-.187-1.303-.448-1.135-.344-1.844-.666-.708-.334-1.229-.98-.51-.656-.51-1.74 0-1.624 1.198-2.468 1.198-.844 2.99-.844zM342.03 259.03q1.99 0 3.104 1.166 1.125 1.166 1.125 3.208v7.063h-2.458v-6.375q0-1.282-.73-2.021-.718-.74-2-.74-1.489.021-2.364 1.021-.875.99-.875 2.52v5.595h-2.458v-15.834h2.458v6.698q1.177-2.302 4.198-2.302zM355.663 255.53q2.219 0 3.98.968 1.76.958 2.75 2.667 1 1.697 1 3.833 0 2.135-1.011 3.833-1 1.698-2.77 2.667-1.772.969-4.011.969h-6.063v-14.938zm-3.604 12.676h3.667q1.427 0 2.604-.656 1.177-.667 1.844-1.844.677-1.187.677-2.687 0-1.49-.698-2.677-.688-1.198-1.886-1.875t-2.645-.677h-3.563zM368.363 261.383q.573-1.156 1.573-1.75 1-.604 2.343-.604v2.354q-1.687-.083-2.729.792-1.041.865-1.187 2.365v5.927h-2.459v-11.355h2.459zM374.16 270.467v-11.355h2.438v11.355zm1.209-16.084q.625 0 1.031.417.406.417.406 1.073 0 .635-.406 1.052-.406.417-1.031.417-.615 0-1.021-.407-.406-.416-.406-1.062 0-.656.406-1.073.406-.417 1.02-.417zM382.887 270.467l-4.396-11.355h2.563l3.156 8.948 3.115-8.948h2.448l-4.344 11.355zM395.755 259.03q2.687 0 4.02 1.52 1.334 1.51 1.334 4.26 0 .282-.042.917h-8.583q.302 1.323 1.24 2.083.937.76 2.28.76.918 0 1.75-.343.834-.344 1.449-.98l1.302 1.386q-.854.917-2.052 1.417-1.188.5-2.636.5-1.729 0-3.041-.719-1.313-.729-2.042-2.031-.719-1.302-.719-2.99 0-1.687.719-2.99.73-1.312 2.042-2.051 1.312-.74 2.979-.74zm3.177 4.905q-.063-1.364-.917-2.145-.854-.792-2.24-.792-1.343 0-2.228.792-.886.78-1.105 2.145zM403.983 267.883q.531 0 .917.375.385.375.385.99 0 .573-.385 1.135l-1.209 1.834h-1.26l.812-1.855q-.573-.385-.583-1.114 0-.594.375-.98.375-.385.948-.385zM419.727 255.53q2.219 0 3.98.968 1.76.958 2.75 2.667 1 1.697 1 3.833 0 2.135-1.011 3.833-1 1.698-2.77 2.667-1.772.969-4.011.969h-6.063v-14.938zm-3.604 12.676h3.667q1.427 0 2.604-.656 1.177-.667 1.844-1.844.677-1.187.677-2.687 0-1.49-.698-2.677-.688-1.198-1.886-1.875-1.197-.677-2.645-.677h-3.563zM431.845 267.092l-1.427 3.375h-2.625l6.594-14.938h2.583l6.52 14.938h-2.687l-1.427-3.375zm3.76-8.875l-2.823 6.635h5.636zM451.283 255.53q2.813 0 4.354 1.332 1.553 1.334 1.553 3.771 0 2.542-1.553 3.938-1.541 1.396-4.354 1.396h-3.437v4.5h-2.521v-14.938zm-3.437 8.176h3.333q1.75 0 2.677-.76t.927-2.25q0-1.448-.927-2.177-.927-.73-2.677-.73h-3.333zM459.597 270.467v-14.938h2.52v14.938z"/></g><path d="M315.159 141h-7.067M305.559 141h-4M299.025 141h-4M292.492 141h-3.867M286.092 141h-4M279.559 141h-4M273.025 141h-3.866M266.625 141h-4M260.092 141h-4M253.559 141h-3.867M247.159 141h-4M240.625 141h-4M234.092 141h-3.867M227.692 141h-4M221.159 141h-4M214.625 141h-3.866M208.092 141h-3.867M201.692 141h-4M195.159 141h-3.867M188.625 141h-3.866M182.225 141h-4M175.692 141h-4M169.159 141h-3.867M162.759 141h-4M156.225 141h-4M149.692 141h-3.867M143.292 141h-4M139.159 138.6v-4M139.159 132.067V128.2M139.159 125.667v-4M139.159 119.133v-4M139.159 112.6v-3.867M139.159 106.2v-4M139.159 99.667v-4M139.159 93.133v-3.866M139.159 86.733v-4M139.159 80.2v-4M139.159 73.667V69.8M139.159 67.267v-4M139.159 60.733v-4M139.159 54.2v-3.867M139.159 47.667V43.8M139.159 41.267v-4M139.159 34.733v-3.866M139.159 28.2v-3.867M139.159 21.8V21h3.2M144.892 21h4M151.425 21h4M157.959 21h3.866M164.359 21h4M170.892 21h4M177.425 21h3.867M183.825 21h4M190.359 21h4M196.892 21h3.867M203.425 21h3.867M209.825 21h4M216.359 21h3.866M222.892 21h3.867M229.292 21h4M235.825 21h4M242.359 21h3.866M248.759 21h4M255.292 21h4M261.825 21h3.867M268.225 21h4M274.759 21h4M281.292 21h3.867M287.692 21h4M294.225 21h4M300.759 21h3.866M307.159 21h4M313.692 21h4M320.225 21h3.867M326.625 21h4M333.159 21h4M339.692 21h3.867M346.092 21h4M352.625 21h4M359.159 21h3.866M365.692 21h3.867M372.092 21h4M378.625 21h3.867M385.159 21h3.866M391.559 21h4M398.092 21h4M404.625 21h3.867M411.025 21h4M417.559 21h4M424.092 21h3.867M430.492 21h4M437.025 21h4M443.559 21h3.866M449.959 21h4M456.492 21h4M462.892 21h4M469.425 21h4M475.959 21h3.866M482.492 21h2.267v1.6M484.759 25.133v4M484.759 31.667v3.866M484.759 38.2v3.867M484.759 44.6v4M484.759 51.133v4M484.759 57.667v3.866M484.759 64.067v4M484.759 70.6v4M484.759 77.133V81M484.759 83.533v4M484.759 90.067v4M484.759 96.6v3.867M484.759 103v4M484.759 109.533v4M484.759 116.067v3.866M484.759 122.467v4M484.759 129v4M484.759 135.533v3.867M483.825 141h-4M477.292 141h-3.867M470.892 141h-4M464.359 141h-3.867M457.959 141h-4M451.425 141h-4M444.892 141h-3.867M438.492 141h-4M431.959 141h-4M425.425 141h-3.866M419.025 141h-4M412.492 141h-4M405.959 141h-3.867M399.425 141h-3.866M393.025 141h-4M386.492 141h-3.867M379.959 141h-3.867M373.559 141h-4M367.025 141h-4M360.492 141h-3.867M354.092 141h-4M347.559 141h-4M341.025 141h-3.866M334.625 141h-4M328.092 141h-4M321.559 141h-3.867" fill="none" stroke="#3465a4" stroke-width="1.9999949999999997" stroke-linejoin="round" stroke-miterlimit="10"/><path d="M312.092 126.6h-45.733V35.4h91.2v91.2z" fill="#ff60dd" fill-rule="evenodd"/><g clip-path="url(#g)" opacity=".5" transform="matrix(1.33333 0 0 -1.33333 -126.308 741.533)"><path d="M328.8 461.2h-34.3v68.4h68.4v-68.4z" fill="none" stroke="#fff" stroke-width="4.5" stroke-linejoin="round" stroke-miterlimit="10"/></g><path d="M422.359 126.6h-45.6V35.4h91.2v91.2z" fill="#ff60dd" fill-rule="evenodd"/><g clip-path="url(#h)" opacity=".5" transform="matrix(1.33333 0 0 -1.33333 -126.308 741.533)"><path d="M411.5 461.2h-34.2v68.4h68.4v-68.4z" fill="none" stroke="#fff" stroke-width="4.5" stroke-linejoin="round" stroke-miterlimit="10"/></g><path d="M201.559 126.6h-45.6V35.4h91.2v91.2z" fill="#ff60dd" fill-rule="evenodd"/><g><g clip-path="url(#i)" opacity=".5" transform="matrix(1.33333 0 0 -1.33333 -126.308 741.533)"><path d="M245.9 461.2h-34.2v68.4h68.4v-68.4z" fill="none" stroke="#fff" stroke-width="4.5" stroke-linejoin="round" stroke-miterlimit="10"/></g></g><g><g aria-label="DAPs" style="-inkscape-font-specification:Montserrat-Light" font-weight="300" font-size="36" font-family="Montserrat"><path d="M268.105 54.19q4.852 0 8.766 2.227 3.937 2.203 6.21 6.047 2.297 3.82 2.297 8.531t-2.296 8.555q-2.274 3.844-6.258 6.047-3.985 2.203-8.86 2.203h-13.453V54.19zm-9.75 29.954h9.797q3.703 0 6.75-1.688 3.047-1.71 4.805-4.71 1.78-3 1.78-6.704 0-3.703-1.804-6.68-1.805-3-4.875-4.734-3.07-1.734-6.797-1.734h-9.656zM294.353 79.316l-3.75 8.484h-4.078l15.07-33.61h3.984l15.024 33.61h-4.172l-3.75-8.484zm9.117-20.743l-7.476 17.04h15.07zM338.472 54.19q6.234 0 9.656 2.954 3.446 2.953 3.446 8.343 0 5.579-3.446 8.649-3.422 3.047-9.656 3.047h-8.79V87.8h-3.843V54.19zm-8.79 19.313h8.65q4.617 0 7.077-2.016 2.461-2.015 2.461-5.906 0-3.797-2.484-5.742-2.46-1.945-7.055-1.945h-8.648zM364.09 62.37q2.274 0 4.383.61 2.11.586 3.68 1.687l-1.43 2.977q-1.476-.961-3.304-1.5-1.828-.563-3.563-.563-2.25 0-3.633.844-1.359.82-1.359 2.508 0 1.148.774 1.922.773.773 1.898 1.265 1.125.469 3.14 1.031 2.65.774 4.29 1.547 1.664.774 2.836 2.25 1.171 1.453 1.171 3.797 0 3.563-2.671 5.39-2.649 1.806-6.586 1.806-2.743 0-5.344-.938-2.578-.937-4.36-2.602l1.454-2.835q1.593 1.476 3.867 2.343 2.273.867 4.523.867 2.39 0 3.89-.937 1.524-.938 1.524-2.766t-1.453-2.695q-1.453-.89-4.476-1.758-2.649-.82-4.22-1.523-1.546-.727-2.694-2.133-1.125-1.43-1.125-3.703 0-3.445 2.484-5.156 2.508-1.735 6.305-1.735z"/></g></g><g><g aria-label="Third party; does anything" style="-inkscape-font-specification:Montserrat-Regular" font-weight="400" font-size="16" font-family="Montserrat"><path d="M181.919 105.79v12.677h-2.52V105.79h-4.72v-2.26h11.97v2.26zM194.265 107.03q1.99 0 3.104 1.166 1.125 1.166 1.125 3.208v7.063h-2.458v-6.375q0-1.282-.73-2.021-.718-.74-2-.74-1.49.021-2.364 1.021-.875.99-.875 2.52v5.595h-2.458v-15.834h2.458v6.698q1.177-2.302 4.198-2.302zM201.755 118.467v-11.355h2.438v11.355zm1.208-16.084q.625 0 1.032.417.406.417.406 1.073 0 .635-.406 1.052-.407.417-1.032.417-.614 0-1.02-.407-.407-.416-.407-1.062 0-.656.407-1.073.406-.417 1.02-.417zM210.336 109.383q.573-1.156 1.573-1.75 1-.604 2.344-.604v2.354q-1.688-.083-2.73.792-1.041.865-1.187 2.365v5.927h-2.458v-11.355h2.458zM226.946 118.467h-2.448v-1.938q-.614 1-1.635 1.52-1.01.522-2.354.522-1.625 0-2.854-.73-1.22-.739-1.907-2.062-.677-1.323-.677-3.031 0-1.688.677-2.99.688-1.302 1.907-2.02 1.229-.73 2.812-.73 1.365 0 2.375.542 1.01.531 1.656 1.531v-6.448h2.448zm-5.927-1.938q1.542 0 2.51-1.031.97-1.042.97-2.667 0-1.646-.97-2.687-.968-1.042-2.51-1.042-1.531 0-2.51 1.052-.969 1.042-.99 2.677.021 1.625.99 2.667.979 1.031 2.51 1.031zM242.654 107.03q1.594 0 2.823.728 1.23.73 1.907 2.052.687 1.313.687 3.021 0 1.688-.677 2.99-.667 1.302-1.885 2.02-1.22.709-2.813.709-1.344 0-2.375-.52-1.02-.522-1.635-1.522v6.094h-2.459v-15.49h2.459v1.97q.614-1 1.625-1.522 1.02-.53 2.343-.53zm-.51 9.426q1 0 1.781-.469.792-.468 1.23-1.312.437-.854.437-1.927 0-1.042-.438-1.875-.437-.833-1.229-1.313-.781-.479-1.781-.479-1 0-1.792.469-.791.469-1.229 1.312-.437.844-.437 1.886 0 1.646.968 2.677.97 1.031 2.49 1.031zM257.325 117.081q-1.219 1.49-3.75 1.49-1.198 0-2.104-.459-.906-.458-1.396-1.25-.49-.802-.49-1.812 0-1.563 1.126-2.469 1.135-.916 3.166-.937h3.427v-.344q0-1.083-.698-1.677-.687-.604-2.01-.604-1.646 0-3.344 1.146l-1.01-1.709q1.302-.77 2.333-1.094 1.042-.333 2.552-.333 2.177 0 3.375 1.063 1.198 1.052 1.219 2.927l.02 7.448h-2.416zm-3.24-.448q1.303 0 2.209-.604.906-.614 1.01-1.552v-1.042h-3.073q-1.218 0-1.78.355-.563.343-.563 1.156 0 .77.583 1.229.594.458 1.615.458zM265.376 109.383q.573-1.156 1.573-1.75 1-.604 2.344-.604v2.354q-1.688-.083-2.73.792-1.041.865-1.187 2.365v5.927h-2.458v-11.355h2.458zM277.729 117.737q-1.417.834-2.802.834-1.386 0-2.281-.834-.896-.833-.896-2.468v-5.886h-1.604v-1.843h1.604v-3.115h2.437v3.115h3.344v1.843h-3.344v5.438q0 .854.292 1.198.302.333.917.333.687 0 1.708-.49zM284.421 120.03q-.53 1.343-1.468 2.01-.938.677-2.22.677-.77 0-1.405-.24-.625-.24-1.22-.73l1.043-1.895q.406.302.75.427.343.125.729.125 1.156 0 1.719-1.25l.385-.854-4.688-11.188h2.532l3.396 8.605 3.156-8.605h2.458zM291.78 109.508q.584 0 .959.396.385.396.385.99 0 .614-.385 1.02-.375.407-.959.407-.573 0-.958-.396-.386-.406-.386-1.031 0-.594.386-.99.385-.396.958-.396zm0 6.375q.531 0 .917.375.385.375.385.99 0 .573-.385 1.135l-1.208 1.834h-1.26l.812-1.855q-.573-.385-.584-1.114 0-.594.375-.98.375-.385.948-.385zM312.066 118.467h-2.448v-1.938q-.614 1-1.635 1.52-1.01.522-2.354.522-1.625 0-2.854-.73-1.22-.739-1.907-2.062-.677-1.323-.677-3.031 0-1.688.677-2.99.688-1.302 1.907-2.02 1.229-.73 2.812-.73 1.365 0 2.375.542 1.01.531 1.656 1.531v-6.448h2.448zm-5.927-1.938q1.542 0 2.51-1.031.97-1.042.97-2.667 0-1.646-.97-2.687-.968-1.042-2.51-1.042-1.531 0-2.51 1.052-.969 1.042-.99 2.677.021 1.625.99 2.667.979 1.031 2.51 1.031zM320.774 107.03q1.73 0 3.073.728 1.344.73 2.084 2.032.75 1.291.75 3 0 1.687-.75 3-.74 1.312-2.084 2.041-1.343.719-3.073.719-1.75 0-3.093-.719-1.344-.729-2.094-2.041-.74-1.313-.74-3 0-1.709.74-3 .75-1.303 2.094-2.032 1.343-.729 3.093-.729zm0 2.114q-1.53 0-2.51 1.03-.969 1.022-.969 2.636 0 1.646.969 2.677.98 1.021 2.51 1.021 1.532 0 2.49-1.02.969-1.032.969-2.678 0-1.625-.98-2.645-.968-1.021-2.479-1.021zM333.792 107.03q2.688 0 4.021 1.52 1.333 1.51 1.333 4.26 0 .282-.041.917h-8.584q.302 1.323 1.24 2.083.937.76 2.281.76.917 0 1.75-.343.834-.344 1.448-.98l1.302 1.386q-.854.917-2.052 1.417-1.187.5-2.635.5-1.73 0-3.042-.719-1.312-.729-2.042-2.031-.718-1.302-.718-2.99 0-1.687.718-2.99.73-1.312 2.042-2.051 1.313-.74 2.98-.74zm3.177 4.905q-.062-1.364-.916-2.145-.855-.792-2.24-.792-1.344 0-2.23.792-.885.78-1.103 2.145zM345.034 107.008q1.083 0 2.135.313 1.063.312 1.833.844l-.895 1.812q-.75-.469-1.636-.73-.885-.27-1.635-.27-.771 0-1.22.281-.437.271-.437.844t.521.875q.521.302 1.74.688 1.156.343 1.906.687.76.333 1.302 1.02.542.678.542 1.793 0 1.666-1.25 2.53-1.25.855-3.104.855-1.282 0-2.51-.417-1.22-.416-2.053-1.156l.875-1.75q.73.635 1.781 1.02 1.053.386 2.021.386.834 0 1.344-.291.51-.302.51-.927 0-.47-.312-.771-.313-.313-.76-.49-.448-.187-1.303-.448-1.135-.344-1.843-.666-.709-.334-1.23-.98-.51-.656-.51-1.74 0-1.624 1.198-2.468 1.198-.844 2.99-.844zM363.757 117.081q-1.219 1.49-3.75 1.49-1.198 0-2.104-.459-.906-.458-1.396-1.25-.49-.802-.49-1.812 0-1.563 1.126-2.469 1.135-.916 3.166-.937h3.427v-.344q0-1.083-.698-1.677-.687-.604-2.01-.604-1.646 0-3.344 1.146l-1.01-1.709q1.302-.77 2.333-1.094 1.042-.333 2.552-.333 2.177 0 3.375 1.063 1.198 1.052 1.219 2.927l.02 7.448h-2.416zm-3.24-.448q1.303 0 2.209-.604.906-.614 1.01-1.552v-1.042h-3.073q-1.218 0-1.78.355-.563.343-.563 1.156 0 .77.583 1.229.594.458 1.615.458zM376.113 107.03q1.98 0 3.104 1.166 1.125 1.166 1.125 3.208v7.063h-2.458v-6.375q0-1.282-.73-2.021-.718-.74-2-.74-1.364.021-2.228.875-.865.854-.99 2.219v6.042h-2.458v-11.355h2.458v2.178q1.156-2.26 4.177-2.26zM387.675 120.03q-.531 1.343-1.469 2.01-.937.677-2.219.677-.77 0-1.406-.24-.625-.24-1.219-.73l1.042-1.895q.406.302.75.427t.73.125q1.155 0 1.718-1.25l.385-.854-4.687-11.188h2.531l3.396 8.605 3.156-8.605h2.458zM400.95 117.737q-1.416.834-2.802.834-1.385 0-2.281-.834-.896-.833-.896-2.468v-5.886h-1.604v-1.843h1.604v-3.115h2.438v3.115h3.343v1.843h-3.343v5.438q0 .854.291 1.198.302.333.917.333.687 0 1.708-.49zM409.945 107.03q1.99 0 3.104 1.166 1.125 1.166 1.125 3.208v7.063h-2.458v-6.375q0-1.282-.73-2.021-.718-.74-2-.74-1.49.021-2.364 1.021-.875.99-.875 2.52v5.595h-2.458v-15.834h2.458v6.698q1.177-2.302 4.198-2.302zM417.435 118.467v-11.355h2.438v11.355zm1.208-16.084q.625 0 1.032.417.406.417.406 1.073 0 .635-.406 1.052-.407.417-1.032.417-.614 0-1.02-.407-.407-.416-.407-1.062 0-.656.407-1.073.406-.417 1.02-.417zM430.065 107.03q1.98 0 3.104 1.166 1.125 1.166 1.125 3.208v7.063h-2.458v-6.375q0-1.282-.73-2.021-.718-.74-2-.74-1.364.021-2.228.875-.865.854-.99 2.219v6.042h-2.458v-11.355h2.458v2.178q1.156-2.26 4.177-2.26zM447.792 117.362q0 1.625-.73 2.813-.718 1.198-2.051 1.844-1.334.646-3.104.646-2.521 0-4.72-1.49l1.053-1.77q.833.614 1.687.926.865.313 1.875.313 1.625 0 2.594-.875.969-.875.969-2.344v-1.438q-.573.938-1.531 1.438-.948.49-2.23.49-1.51 0-2.677-.688-1.156-.698-1.802-1.937-.635-1.24-.635-2.865 0-1.604.635-2.823.646-1.23 1.802-1.896 1.167-.677 2.678-.677 1.26 0 2.218.51.959.5 1.542 1.417v-1.844h2.427zm-5.698-1.375q1.438 0 2.354-.979.917-.979.917-2.51 0-1.531-.906-2.5-.907-.98-2.365-.98-1.448 0-2.364.97-.917.968-.938 2.51.02 1.531.927 2.51.906.98 2.375.98z"/></g></g><g><g aria-label="Layer 1" style="-inkscape-font-specification:Montserrat-Light" font-weight="300" font-size="22" font-family="Montserrat"><path d="M31.358 369.166v2.234H20v-20.54h2.349v18.306zM44.432 369.022q-1.847 2.493-5.657 2.493-1.561 0-2.765-.616-1.188-.616-1.847-1.69-.645-1.089-.645-2.421 0-2.02 1.518-3.208 1.533-1.19 4.269-1.218h5.07v-.902q0-1.733-1.06-2.664-1.046-.946-3.08-.946-2.348 0-4.898 1.762l-.96-1.676q1.648-1.088 3.037-1.575 1.39-.501 3.266-.501 2.85 0 4.382 1.403 1.547 1.404 1.576 3.925l.029 10.212h-2.235zm-5.213.502q1.962 0 3.351-.917 1.39-.931 1.834-2.55v-1.847H39.59q-3.924 0-3.924 2.492 0 1.29.96 2.063.973.759 2.592.759zM56.175 373.606q-.745 1.79-1.92 2.692-1.16.917-2.721.917-1.848 0-3.251-1.146l.96-1.905q1.03.73 2.176.73.903 0 1.619-.558.73-.558 1.189-1.618l.659-1.433-6.403-15.34h2.406l5.128 12.762 4.899-12.762h2.348zM71.662 355.888q3.638 0 5.486 2.335 1.848 2.32 1.662 6.345H66.205q.287 2.263 1.805 3.595 1.533 1.332 3.796 1.332 1.432 0 2.65-.501 1.217-.502 2.133-1.433l1.26 1.347q-1.116 1.232-2.72 1.905-1.59.673-3.495.673-2.263 0-4.01-.974-1.748-.988-2.722-2.764-.96-1.776-.96-4.068t.974-4.054q.989-1.776 2.75-2.75 1.762-.988 3.996-.988zm5.1 6.804q-.115-2.235-1.519-3.538-1.39-1.304-3.638-1.304-2.206 0-3.68 1.318-1.462 1.318-1.72 3.524zM84.97 359.369q.774-1.69 2.177-2.578 1.404-.903 3.366-.931v2.306q-2.406-.03-3.867 1.346-1.46 1.36-1.676 3.68v8.208h-2.277v-15.455h2.277zM103.49 371.4v-18.305H99.32v-2.234h6.474V371.4z"/></g></g><g><g aria-label="Layer 2" style="-inkscape-font-specification:Montserrat-Light" font-weight="300" font-size="22" font-family="Montserrat"><path d="M31.358 229.966v2.234H20v-20.54h2.349v18.306zM44.432 229.822q-1.847 2.493-5.657 2.493-1.561 0-2.765-.616-1.188-.616-1.847-1.69-.645-1.089-.645-2.421 0-2.02 1.518-3.208 1.533-1.19 4.269-1.218h5.07v-.902q0-1.733-1.06-2.664-1.046-.946-3.08-.946-2.348 0-4.898 1.762l-.96-1.676q1.648-1.088 3.037-1.575 1.39-.501 3.266-.501 2.85 0 4.382 1.403 1.547 1.404 1.576 3.925l.029 10.212h-2.235zm-5.213.502q1.962 0 3.351-.917 1.39-.931 1.834-2.55v-1.847H39.59q-3.924 0-3.924 2.492 0 1.29.96 2.063.973.759 2.592.759zM56.175 234.406q-.745 1.79-1.92 2.692-1.16.917-2.721.917-1.848 0-3.251-1.146l.96-1.905q1.03.73 2.176.73.903 0 1.619-.558.73-.558 1.189-1.618l.659-1.433-6.403-15.34h2.406l5.128 12.762 4.899-12.761h2.348zM71.662 216.688q3.638 0 5.486 2.335 1.848 2.32 1.662 6.345H66.205q.287 2.263 1.805 3.595 1.533 1.332 3.796 1.332 1.432 0 2.65-.501 1.217-.502 2.133-1.433l1.26 1.347q-1.116 1.232-2.72 1.905-1.59.673-3.495.673-2.263 0-4.01-.974-1.748-.988-2.722-2.764-.96-1.776-.96-4.068t.974-4.054q.989-1.776 2.75-2.75 1.762-.988 3.996-.988zm5.1 6.804q-.115-2.235-1.519-3.538-1.39-1.304-3.638-1.304-2.206 0-3.68 1.318-1.462 1.318-1.72 3.524zM84.97 220.169q.774-1.69 2.177-2.578 1.404-.903 3.366-.931v2.306q-2.406-.03-3.867 1.346-1.46 1.36-1.676 3.68v8.208h-2.277v-15.454h2.277zM106.912 211.575q2.85 0 4.54 1.375 1.705 1.36 1.705 3.68 0 1.405-.974 3.123-.96 1.705-2.65 3.524l-6.316 6.689h11.115v2.234h-14.108v-1.934l7.691-8.364q1.289-1.29 2.048-2.621.76-1.332.76-2.335 0-1.49-1.09-2.335-1.073-.859-3.007-.859-1.404 0-2.893.673-1.476.673-2.707 1.876l-1.032-1.876q1.49-1.346 3.295-2.091 1.804-.76 3.623-.76z"/></g></g><g><g aria-label="Layer 3" style="-inkscape-font-specification:Montserrat-Light" font-weight="300" font-size="22" font-family="Montserrat"><path d="M31.358 90.766V93H20V72.46h2.349v18.306zM44.432 90.622q-1.847 2.493-5.657 2.493-1.561 0-2.765-.616-1.188-.616-1.847-1.69-.645-1.089-.645-2.421 0-2.02 1.518-3.208 1.533-1.19 4.269-1.218h5.07v-.902q0-1.733-1.06-2.664-1.046-.946-3.08-.946-2.348 0-4.898 1.762l-.96-1.676q1.648-1.088 3.037-1.575 1.39-.501 3.266-.501 2.85 0 4.382 1.403 1.547 1.404 1.576 3.925L46.667 93h-2.235zm-5.213.502q1.962 0 3.351-.917 1.39-.931 1.834-2.55V85.81H39.59q-3.924 0-3.924 2.492 0 1.29.96 2.063.973.759 2.592.759zM56.175 95.206q-.745 1.79-1.92 2.692-1.16.917-2.721.917-1.848 0-3.251-1.146l.96-1.905q1.03.73 2.176.73.903 0 1.619-.558.73-.558 1.189-1.618l.659-1.433-6.403-15.34h2.406l5.128 12.762 4.899-12.761h2.348zM71.662 77.488q3.638 0 5.486 2.335 1.848 2.32 1.662 6.345H66.205q.287 2.263 1.805 3.595 1.533 1.332 3.796 1.332 1.432 0 2.65-.501 1.217-.502 2.133-1.433l1.26 1.347q-1.116 1.232-2.72 1.905-1.59.673-3.495.673-2.263 0-4.01-.974-1.748-.988-2.722-2.764-.96-1.776-.96-4.068t.974-4.054q.989-1.776 2.75-2.75 1.762-.988 3.996-.988zm5.1 6.804q-.115-2.235-1.519-3.538-1.39-1.304-3.638-1.304-2.206 0-3.68 1.318-1.462 1.318-1.72 3.524zM84.97 80.969q.774-1.69 2.177-2.578 1.404-.903 3.366-.931v2.306q-2.406-.03-3.867 1.346-1.46 1.36-1.676 3.68V93h-2.277V77.546h2.277zM106.54 81.24q2.807.144 4.497 1.59 1.69 1.433 1.69 3.868 0 1.876-.888 3.351-.873 1.461-2.506 2.263-1.619.803-3.796.803-1.733 0-3.466-.573t-3.05-1.504l1.03-1.963q1.118.903 2.507 1.418 1.39.516 2.807.516 2.378 0 3.724-1.16 1.347-1.16 1.347-3.065t-1.332-2.908q-1.332-1.002-3.767-1.002h-2.521v-1.49l6.001-6.66h-8.88V72.49h11.817v1.59l-6.36 7.075z"/></g></g></svg>