<svg xmlns="http://www.w3.org/2000/svg" height="171" width="646"><defs><clipPath id="a"><path d="M237.964 224h484.072v128H237.964z"/></clipPath></defs><g clip-path="url(#a)" fill="#fff" transform="matrix(1.33333 0 0 -1.33333 -317.286 469.667)"><path d="M309.926 290.075c1.775 7.404 2.51 10.445 2.51 10.445h-54.12c-14.412 0-16.48-9.393-17.841-15.073a6852.801 6852.801 0 0 0-2.51-10.448h54.12c14.411 0 16.477 9.396 17.84 15.076"/><path d="M339.973 352h-57.417l-4.683-26.602h50.732c28.13 0 35.839-9.251 30.83-37.397-5.01-28.144-15.802-37.398-43.932-37.398h-50.804l-4.684-26.6h57.417c43.929 0 67.436 20.048 75.14 63.998 7.708 43.952-8.668 64-52.599 64m185.539-63.238c-3.273-18.504 5.587-29.296 24.084-29.296h23.344c3.854 0 5.78-2.314 5.01-6.17-.58-3.854-3.276-6.168-7.127-6.168h-49.036l-4.044-23.13H573.1c18.493 0 31.015 10.795 34.291 29.299 3.276 18.502-5.586 29.296-24.082 29.296h-23.344c-3.855 0-5.782 2.314-5.012 6.169.58 3.855 3.279 6.166 7.132 6.166h46.849l4.237 23.13h-53.173c-18.493 0-31.209-10.792-34.485-29.296m-47.36 6.177l-8.286-47.804h-13.872c-16.57 0-22.737 7.323-19.654 23.902 2.89 16.579 11.369 23.902 27.94 23.902zm-73.795-23.902c-5.393-30.458 8.286-47.034 38.729-47.034h53.947l16.569 94.068h-53.948c-30.44 0-50.094-16.576-55.297-47.034m284.132 47.035h-23.383L671.082 352h-31.213l-22.544-127.997h31.211l12.332 70.166h15.344c10.79 0 15.168-4.625 13.435-15.422l-9.635-54.744h31.213l9.635 54.744c4.817 27.373-5.01 39.325-32.37 39.325"/></g></svg>